<?xml version="1.0" encoding="UTF-8" standalone="no"?>
<!-- Created with Inkscape (http://www.inkscape.org/) -->

<svg
   xmlns:osb="http://www.openswatchbook.org/uri/2009/osb"
   xmlns:dc="http://purl.org/dc/elements/1.1/"
   xmlns:cc="http://creativecommons.org/ns#"
   xmlns:rdf="http://www.w3.org/1999/02/22-rdf-syntax-ns#"
   xmlns:svg="http://www.w3.org/2000/svg"
   xmlns="http://www.w3.org/2000/svg"
   xmlns:xlink="http://www.w3.org/1999/xlink"
   xmlns:sodipodi="http://sodipodi.sourceforge.net/DTD/sodipodi-0.dtd"
   xmlns:inkscape="http://www.inkscape.org/namespaces/inkscape"
   width="210mm"
   height="297mm"
   viewBox="0 0 210 297"
   version="1.1"
   id="svg8"
   inkscape:version="0.92.4 (5da689c313, 2019-01-14)"
   sodipodi:docname="chapter.svg">
  <defs
     id="defs2">
    <linearGradient
       id="linearGradient587489"
       inkscape:collect="always">
      <stop
         id="stop587481"
         offset="0"
         style="stop-color:#0c0000;stop-opacity:1" />
      <stop
         style="stop-color:#000000;stop-opacity:1"
         offset="0.72788191"
         id="stop587483" />
      <stop
         id="stop587485"
         offset="0.98196954"
         style="stop-color:#b70000;stop-opacity:1" />
      <stop
         id="stop587487"
         offset="1"
         style="stop-color:#fff1b9;stop-opacity:1" />
    </linearGradient>
    <linearGradient
       id="linearGradient587294"
       inkscape:collect="always">
      <stop
         id="stop587286"
         offset="0"
         style="stop-color:#000000;stop-opacity:1" />
      <stop
         style="stop-color:#fdf0e7;stop-opacity:1"
         offset="0.89172632"
         id="stop587288" />
      <stop
         id="stop587290"
         offset="0.92904478"
         style="stop-color:#dc4d00;stop-opacity:1" />
      <stop
         id="stop587292"
         offset="1"
         style="stop-color:#840004;stop-opacity:1" />
    </linearGradient>
    <linearGradient
       inkscape:collect="always"
       id="linearGradient26340">
      <stop
         style="stop-color:#0c0000;stop-opacity:1"
         offset="0"
         id="stop26336" />
      <stop
         id="stop26344"
         offset="0.6879313"
         style="stop-color:#000000;stop-opacity:1" />
      <stop
         style="stop-color:#ff0000;stop-opacity:1"
         offset="0.98198646"
         id="stop26389" />
      <stop
         style="stop-color:#fff1b9;stop-opacity:1"
         offset="1"
         id="stop26338" />
    </linearGradient>
    <linearGradient
       id="linearGradient24078"
       osb:paint="solid">
      <stop
         style="stop-color:#000000;stop-opacity:1;"
         offset="0"
         id="stop24076" />
    </linearGradient>
    <filter
       style="color-interpolation-filters:sRGB;"
       inkscape:label="Noise Fill"
       id="filter26154">
      <feTurbulence
         type="fractalNoise"
         baseFrequency="0.25 0.45"
         numOctaves="5"
         seed="1"
         result="turbulence"
         id="feTurbulence26138" />
      <feComposite
         in="SourceGraphic"
         in2="turbulence"
         operator="in"
         result="composite1"
         id="feComposite26140" />
      <feColorMatrix
         values="1 0 0 0 0 0 1 0 0 0 0 0 1 0 0 0 0 0 2.5 -1.1 "
         result="color"
         id="feColorMatrix26142" />
      <feFlood
         flood-opacity="0"
         flood-color="rgb(0,0,0)"
         result="flood"
         id="feFlood26144" />
      <feMerge
         result="merge"
         id="feMerge26150">
        <feMergeNode
           in="flood"
           id="feMergeNode26146" />
        <feMergeNode
           in="color"
           id="feMergeNode26148" />
      </feMerge>
      <feComposite
         in2="SourceGraphic"
         operator="in"
         result="composite2"
         id="feComposite26152" />
    </filter>
    <radialGradient
       inkscape:collect="always"
       xlink:href="#linearGradient587489"
       id="radialGradient26342"
       cx="108.01583"
       cy="194.94414"
       fx="108.01583"
       fy="194.94414"
       r="90.771717"
       gradientTransform="matrix(0.98109677,-0.01118814,0.00900534,0.77819455,-1.036297,43.904693)"
       gradientUnits="userSpaceOnUse" />
    <radialGradient
       inkscape:collect="always"
       xlink:href="#linearGradient587294"
       id="radialGradient26423-4"
       cx="752.80127"
       cy="677.37726"
       fx="752.80127"
       fy="677.37726"
       r="234.71681"
       gradientTransform="matrix(1.536881,0.01348048,-0.01041831,1.1850866,-743.32317,-94.389714)"
       gradientUnits="userSpaceOnUse" />
    <radialGradient
       inkscape:collect="always"
       xlink:href="#linearGradient26340"
       id="radialGradient26342-6"
       cx="108.01583"
       cy="194.94414"
       fx="108.01583"
       fy="194.94414"
       r="90.771713"
       gradientTransform="matrix(0.98109676,-0.01118814,0.00900534,0.77819455,292.6929,77.24384)"
       gradientUnits="userSpaceOnUse" />
    <radialGradient
       inkscape:collect="always"
       xlink:href="#linearGradient587294"
       id="radialGradient26423-4-4"
       cx="752.80127"
       cy="677.37726"
       fx="752.80127"
       fy="677.37726"
       r="234.71681"
       gradientTransform="matrix(0.40663309,0.00356671,-0.00275651,0.31355416,-196.94586,-31.098624)"
       gradientUnits="userSpaceOnUse" />
    <radialGradient
       inkscape:collect="always"
       xlink:href="#linearGradient587294"
       id="radialGradient26423-4-4-9"
       cx="752.80127"
       cy="677.37726"
       fx="752.80127"
       fy="677.37726"
       r="234.71681"
       gradientTransform="matrix(1.536881,0.01348048,-0.01041831,1.1850866,-743.32328,-94.389797)"
       gradientUnits="userSpaceOnUse" />
    <filter
       inkscape:collect="always"
       style="color-interpolation-filters:sRGB"
       id="filter587726"
       x="-0.015223993"
       width="1.030448"
       y="-0.056665106"
       height="1.1133302">
      <feGaussianBlur
         inkscape:collect="always"
         stdDeviation="1.0268159"
         id="feGaussianBlur587728" />
    </filter>
    <radialGradient
       inkscape:collect="always"
       xlink:href="#linearGradient587294"
       id="radialGradient26423-4-7"
       cx="752.80127"
       cy="677.37726"
       fx="752.80127"
       fy="677.37726"
       r="234.71681"
       gradientTransform="matrix(0.40663309,0.00356671,-0.00275651,0.31355416,-196.94585,-31.098644)"
       gradientUnits="userSpaceOnUse" />
    <filter
       inkscape:collect="always"
       style="color-interpolation-filters:sRGB"
       id="filter588065"
       x="-0.015543707"
       width="1.0310874"
       y="-0.052635408"
       height="1.1052708">
      <feGaussianBlur
         inkscape:collect="always"
         stdDeviation="1.1718024"
         id="feGaussianBlur588067" />
    </filter>
    <radialGradient
       inkscape:collect="always"
       xlink:href="#linearGradient587489"
       id="radialGradient588295"
       gradientUnits="userSpaceOnUse"
       gradientTransform="matrix(0.98109676,-0.01118814,0.00900534,0.77819453,-1.3112152,37.780002)"
       cx="108.01583"
       cy="194.94414"
       fx="108.01583"
       fy="194.94414"
       r="90.771717" />
    <filter
       inkscape:collect="always"
       style="color-interpolation-filters:sRGB"
       id="filter589211"
       x="-0.030701097"
       width="1.0614022"
       y="-0.10995608"
       height="1.2199122">
      <feGaussianBlur
         inkscape:collect="always"
         stdDeviation="9.1196076"
         id="feGaussianBlur589213" />
    </filter>
    <filter
       inkscape:collect="always"
       style="color-interpolation-filters:sRGB"
       id="filter589223"
       x="-0.014727657"
       width="1.0294553"
       y="-0.064792567"
       height="1.1295851">
      <feGaussianBlur
         inkscape:collect="always"
         stdDeviation="3.5414454"
         id="feGaussianBlur589225" />
    </filter>
  </defs>
  <sodipodi:namedview
     id="base"
     pagecolor="#ffffff"
     bordercolor="#666666"
     borderopacity="1.0"
     inkscape:pageopacity="0.0"
     inkscape:pageshadow="2"
     inkscape:zoom="2"
     inkscape:cx="484.72328"
     inkscape:cy="712.67572"
     inkscape:document-units="mm"
     inkscape:current-layer="layer1"
     showgrid="false"
     showguides="true"
     inkscape:guide-bbox="true"
     inkscape:window-width="3840"
     inkscape:window-height="2043"
     inkscape:window-x="0"
     inkscape:window-y="52"
     inkscape:window-maximized="0"
     inkscape:snap-object-midpoints="true"
     inkscape:snap-center="true"
     inkscape:snap-bbox="true"
     inkscape:object-paths="true"
     inkscape:bbox-paths="true"
     inkscape:document-rotation="0" />
  <metadata
     id="metadata5">
    <rdf:RDF>
      <cc:Work
         rdf:about="">
        <dc:format>image/svg+xml</dc:format>
        <dc:type
           rdf:resource="http://purl.org/dc/dcmitype/StillImage" />
        <dc:title />
      </cc:Work>
    </rdf:RDF>
  </metadata>
  <g
     inkscape:label="Layer 1"
     inkscape:groupmode="layer"
     id="layer1">
    <path
       style="opacity:1;fill:#000000;fill-opacity:1;stroke:none;stroke-width:1;stroke-linecap:butt;stroke-linejoin:miter;stroke-miterlimit:4;stroke-dasharray:none;stroke-opacity:1"
       d="m 106.71958,97.705663 c -0.2515,0.286531 0.27438,0.945555 -1.46089,1.939417 -0.1909,0.109329 0.12486,0.43846 -3.13728,0.94103 -2.348286,0.36178 -5.012552,6.0575 1.91823,5.46788 0.77683,-0.0661 2.41219,1.11427 1.38958,2.57917 -1.10543,1.58355 -3.8812,1.80851 -3.32228,4.4664 -1.83516,-0.14778 -2.628765,-0.31494 -3.246826,-0.74466 -0.62837,-0.81353 -0.918666,-1.49306 1.501196,-2.86081 -2.780221,-0.23328 -3.87104,1.73226 -4.729939,3.99976 -0.0646,-0.33677 -2.166614,-2.62154 -4.384746,-2.3332 0.511892,0.10037 1.275837,1.2271 0.0088,3.00137 -1.628452,0.91336 -2.973538,0.14038 -4.026628,-1.21439 0.29532,1.47787 0.378513,1.96406 0.234093,2.31045 0.26438,1.16031 -3.051847,2.13667 -3.239079,0.61288 -0.451398,-3.67387 -2.956433,-1.03797 -5.946923,-3.68505 0,0 0.467653,0.8921 0.529682,1.56632 0.0751,0.8155 -0.114541,1.7702 -0.769461,2.26188 -0.783799,0.58845 -2.278877,0.63978 -2.945556,-0.0847 -0.717939,-0.7803 -0.03721,-2.4404 0.03979,-2.58486 0.388069,-0.72803 2.239221,-2.90592 0.199472,-4.33824 -2.033612,-1.42797 -3.668149,-0.60209 -4.23902,-1.40198 -0.374179,-0.24059 -0.117194,-1.05356 0.165365,-1.8898 0,0 -2.199968,2.02026 -2.261878,3.74137 -0.0361,1.00409 1.286926,1.96493 2.029336,2.55488 0.383339,0.30463 -1.347065,1.58757 -1.444874,3.03496 -0.0307,0.45417 1.094084,1.3208 2.477884,1.2516 1.3838,-0.0692 0.950484,1.62628 0.850596,1.91358 -0.0755,0.21727 -1.557565,1.32969 -2.596224,1.15755 -1.230591,-0.20395 -2.516974,-1.60293 -3.519684,-0.99218 0.283261,-0.14768 1.828554,1.19552 1.417484,2.2443 -0.343498,0.87641 -0.766818,1.86962 -1.582848,2.33888 -1.005779,0.57838 -2.327286,1.59283 -3.472656,0.23616 -0.667481,-0.7906 -0.883505,-2.01379 -0.278535,-2.71508 1.050729,-1.21801 0.849034,-2.95483 0.647504,-3.03702 0.238371,0.70405 -0.380127,1.17274 -0.827855,1.56114 -1.290121,1.11915 -2.22554,2.06714 -2.683041,2.67891 -0.721191,0.96437 0.0499,2.80424 -0.378273,3.42563 -0.685249,0.99457 -2.385792,1.68374 -3.448883,1.11052 -1.193922,-0.64377 -1.012341,-4.89737 -1.012341,-4.89737 -0.17205,-0.10867 -0.85023,3.00653 -1.133782,3.33261 -0.326548,0.37528 -1.96946,1.11123 -2.294951,0.38344 -0.53286,-1.19149 -0.231441,-5.04908 -2.235522,-4.28087 -0.978189,0.37495 -1.867673,0.82406 -2.286683,1.03456 -0.962438,0.48352 -3.17297,0.68975 -3.604429,-0.29714 -0.60379,-1.38104 3.545935,-2.96636 3.472656,-4.08709 -0.182221,-2.78697 -3.391702,-1.67539 -3.35535,-1.13016 0.0854,-0.20283 2.072436,-0.16541 1.522386,1.14928 -0.48663,1.16309 -1.878264,1.15625 -3.116604,1.39319 -1.978152,0.3785 -4.153006,0.93071 -5.188316,3.37809 -0.454509,1.0744 0.802175,3.06796 2.224154,2.81637 1.11901,-0.19798 3.30589,-1.26454 6.330881,-0.85059 0.851318,0.11648 0.174324,1.07857 0.232543,1.38131 0.113659,0.59102 1.100949,0.91573 0.608748,1.26452 -0.455229,0.3226 -1.377403,0.62424 -2.169893,1.21698 0.481571,0.12039 1.319001,1.12061 1.07487,1.74821 -0.44804,1.15177 -1.834761,1.223 -2.0314,0.92501 0.219369,0.59356 1.581039,1.19057 2.143538,1.21285 1.043641,0.0414 0.580202,2.56693 -0.306959,3.11815 -2.324489,1.44428 -3.549158,-1.8868 -4.032827,-2.91403 -0.20085,0.64656 -0.129098,3.46416 -1.600935,3.79201 -1.474431,0.32842 -0.456666,-3.21865 -1.823146,-3.58117 -3.71511,-0.98558 -4.150149,2.30192 -5.676141,0.70228 -0.0779,0.3799 0.111697,0.99304 0.561208,1.11673 0.990298,0.27251 0.972119,0.33043 2.61276,0.37414 1.31639,0.0351 -1.348052,3.23498 -1.362191,3.6127 -0.0234,0.62448 1.056481,3.416 0.106971,4.43797 -1.05577,1.13633 -2.747018,1.05328 -3.026691,0.70073 -0.427259,-0.53858 -0.398774,-2.71531 -0.618566,-4.46174 -0.097,-0.77112 -1.340345,-2.30872 -5.668904,0.57102 -0.35334,0.23507 -3.776459,2.51276 -3.275769,-1.33532 -2.104769,5.67335 3.050863,4.63302 4.937683,2.56367 0.228891,-0.25102 0.756168,-0.0908 1.030427,0.11989 1.155131,0.88759 -1.3935,2.13735 -1.050581,3.05252 0.652211,1.74068 2.386169,1.6952 2.546099,1.44953 0.14868,-0.22838 0.224274,2.70488 -1.294495,2.72128 -2.4815,0.0268 -1.200695,-4.82707 -2.864425,-3.72484 0.99641,-0.25066 -0.01,2.18887 -0.516248,2.21537 -0.506309,0.0265 -1.443982,-2.65431 -2.537312,-1.37459 1.08596,-0.16332 1.072084,2.71065 0.587044,3.81217 -0.18366,0.4171 -1.617214,1.2288 -1.858284,-0.93999 -0.70454,-6.33835 -4.996074,-2.1154 -5.768123,-1.09865 -0.362701,0.47765 -1.132999,0.56462 -1.776119,0.28784 0.93136,1.26994 1.600858,1.41573 2.287198,2.21279 l 1.09089,1.02836 h 15.483279 a 89.480598,72.096044 0 0 1 74.814039,-32.84502 89.480598,72.096044 0 0 1 74.96907,32.84502 h 16.95762 c -0.24393,-0.54448 -0.0712,-0.82552 0.86093,-0.57619 0.57895,0.15486 3.63848,-2.41225 1.27899,-4.88343 0.23522,1.39015 -1.63982,1.42387 -2.80861,1.51567 -1.37736,0.10818 -3.47846,3.58178 -5.55057,2.05001 -0.69802,-0.516 -0.45241,-4.15428 2.52439,-4.6483 -2.40772,-2.68325 -4.71637,3.21303 -6.87761,3.44734 -0.54138,0.0587 -1.00685,-1.46853 0.65526,-2.33009 -1.77584,0.4548 -3.69601,0.65425 -4.0411,-0.64699 -0.18158,-0.68465 0.30054,-0.94876 2.68717,-2.56987 -1.51562,-0.0562 -3.72749,-0.86036 -1.51928,-2.21589 0.48922,-0.30032 2.18222,1.80617 3.16104,1.55908 2.22529,-0.56175 0.91797,-2.51307 2.9006,-4.81779 -1.8127,-0.0408 -1.78956,1.88547 -3.92999,2.24792 -1.87672,0.31779 -1.16276,-2.7368 -3.86385,-2.15904 -2.26397,0.48426 -3.52415,5.32542 -4.95835,5.18831 -1.16612,-0.11147 -1.45309,-1.42632 -1.35651,-2.03243 0.171,-1.07325 1.00367,-1.82751 3.23443,-3.01894 -3.66057,-0.40674 -4.5668,0.83625 -5.43584,-1.11104 -0.12434,-0.27863 3.28803,-1.1056 3.06493,-1.31051 -0.25753,-0.23654 1.39816,-0.78223 1.29346,-3.70365 -0.7844,1.53296 -0.66928,2.04578 -1.69706,2.07584 -1.06689,0.0312 -0.88674,-2.05638 -1.82314,-1.89136 -1.77573,0.31293 -1.57804,3.21415 -1.98283,3.52743 -0.63333,0.49016 -2.32679,1.0903 -2.39055,-1.20509 -0.0193,-0.69332 0.89155,-2.03366 0.93379,-2.70991 0.11013,-1.76288 -0.75877,-1.89074 -1.07383,-2.39831 -0.54285,-0.87451 -0.7465,-2.5889 -1.04387,-2.95796 -0.42994,-0.5336 1.57642,-1.48395 2.19832,-0.87591 0.91664,0.8962 1.51608,2.19321 3.38171,1.79421 2.1888,-0.46811 1.84176,-2.71346 1.84174,-3.13108 -6e-5,-1.78218 -2.02161,-3.54661 -3.12694,-3.26647 0.6488,-5.3e-4 2.08421,2.46177 -0.0336,3.0701 -1.03587,0.29756 -2.99784,-0.63528 -4.09432,-2.4753 -1.25089,-2.09915 -2.94482,-1.98417 -4.56148,-1.07694 -2.22045,1.24605 -2.01262,3.6853 -2.35644,4.2447 -0.39382,0.64075 0.27672,0.76446 -2.29082,0.98031 1.64964,1.87353 1.63658,1.8434 1.65933,2.8453 0.0349,1.53942 -1.58326,3.2894 -1.99885,2.86701 -0.33288,-0.33834 0.46365,-1.80037 -0.68522,-3.82561 -2.08256,2.32476 -4.84424,-0.76156 -3.70572,-2.37246 0.45391,-0.64224 1.68854,-0.64487 3.56516,-1.42007 -2.09145,-0.36964 -1.92332,-1.86589 -3.08095,-1.62884 -2.26143,0.46307 -1.77382,2.88304 -2.40864,3.43183 -0.83168,0.71896 -2.45247,1.57941 -2.99982,1.17926 -0.44014,-0.32177 -0.66308,-2.07013 2.2903,-3.9455 -1.95346,-0.63102 -1.78178,0.0546 -2.29392,-0.22014 -0.83182,-0.44624 0.64275,-1.64802 -0.47904,-5.26221 -1.58061,2.99471 -2.10763,1.96323 -2.70836,3.13004 -1.40934,2.73745 -3.06776,4.02702 -3.26336,3.252 -0.29077,-1.15209 -0.28082,-1.1595 1.69963,-4.22042 -1.00255,1.16314 -3.56014,1.02704 -2.55384,0.2465 1.43905,-1.11622 1.43555,-4.22305 0.85524,-5.02967 0.0718,1.51136 -2.91747,2.59198 -3.35742,2.06964 -0.45286,-0.53766 -0.78454,-1.27838 -0.6196,-1.82056 0.3808,-1.25174 2.47116,-1.21573 3.5171,-3.57652 0.64097,-1.44673 -0.30024,-1.63659 -3.47886,-2.53111 1.58587,1.3577 1.40021,3.06644 -0.30282,2.25722 -2.16848,-1.03038 -4.65497,0.10547 -4.64571,2.2655 0.002,0.49459 1.1983,1.53172 0.28318,3.06183 -0.0958,0.16013 -1.70004,0.19912 -2.16937,-0.51108 0.32404,1.10541 -3.04241,3.14444 -3.47008,1.757 -0.33607,-1.09035 -0.28958,-2.52121 1.69189,-3.85507 -2.62182,-0.52272 -4.20462,3.26565 -4.40594,2.92282 -0.0675,-0.11499 -0.82626,-0.13749 -0.38809,-1.36736 -0.58227,0.79858 -1.92481,1.64887 -2.43602,0.66146 -0.55199,-1.06618 1.72708,-2.40295 2.42569,-2.81326 2.30047,-1.35112 -0.11158,-2.90138 -0.56431,-3.05408 0.8378,0.5269 0.4045,2.83007 -1.72547,1.21853 -2.12998,-1.61155 -2.50188,-0.91861 -3.21376,-0.13488 -0.71188,0.78372 -0.94716,3.39918 -3.04994,2.14768 -0.0491,0.66391 -0.19046,3.65155 -1.63039,2.67735 -1.43995,-0.97421 0.65911,-1.29279 -0.72399,-5.4529 -1.67665,1.84812 -3.65591,2.91778 -3.3135,1.83504 0.3424,-1.08275 -0.92552,-2.39004 -0.92552,-2.39004 0,0 -0.18879,1.56591 -0.71675,2.16369 -0.6731,0.7621 -1.79824,1.3662 -2.48512,0.6165 -0.73595,-0.80327 0.5047,-1.68713 1.0759,-2.61482 0.15138,-0.24584 1.96484,-4.07228 -2.25722,-3.90416 -1.11931,0.0446 -2.87795,-0.0775 -2.42001,-1.26917 0.28318,-0.7369 2.99379,-3.10564 0.6413,-5.740737 z m 68.10954,21.611597 c -0.0505,4e-5 -0.0965,0.013 -0.13539,0.045 0.0432,-0.0193 0.0887,-0.0331 0.13539,-0.045 z M 43.222168,130.70003 c -0.01,-0.0271 -0.02074,-0.0547 -0.02584,-0.0816 -0.002,0.0298 0.0089,0.0566 0.02584,0.0816 z"
       id="path828-1" />
    <path
       style="opacity:1;fill:url(#radialGradient26423-4-7);fill-opacity:1;stroke:none;stroke-width:1;stroke-linecap:butt;stroke-linejoin:miter;stroke-miterlimit:4;stroke-dasharray:none;stroke-opacity:1;filter:url(#filter588065)"
       d="m 104.48875,102.17219 c -1.78201,-0.73018 -4.534018,2.50435 -1.13672,1.91992 1.17683,0.41087 0.42379,-1.43531 1.13672,-1.91992 z m 3.1211,4.55273 c 1.72234,4.19564 -6.04379,4.38078 -3.09375,8.625 -2.21344,0.15055 -5.373271,-0.78418 -7.029299,-1.10742 -0.692271,3.73028 8.403409,0.0782 11.958459,1.409 1.9088,-0.77953 9.0351,2.09638 5.97709,-1.20783 0.71349,-2.51571 -1.93626,-0.76092 -3.18165,-1.34961 -3.44989,2.2381 -6.65093,-3.03863 -3.33789,-5.31641 1.06516,-1.40874 -0.41691,-1.02615 -1.29296,-1.05273 z m -35.339846,3.7207 c 2.452912,0.62594 -1.165374,4.89941 0.58789,3.5293 0.116455,-1.61274 2.906781,-3.96826 -0.380859,-3.91211 -0.263557,0.0888 -1.729321,-0.43896 -0.207031,0.38281 z m 51.582026,0.88867 c -1.00991,2.17773 -3.05823,3.00819 -4.23047,4.99219 2.46356,0.0438 11.54185,1.47079 10.55469,1.66797 -1.58883,-1.84124 -7.87188,-0.22706 -6.45508,-4.97656 0.4092,-0.78002 1.67272,-2.20243 0.13086,-1.6836 z m 15.45703,-0.22265 c -1.52488,0.73666 1.07784,4.02274 -1.24804,5.23828 -2.24387,0.28548 -3.88827,1.77976 -6.18164,2.17578 3.63181,0.44484 8.92707,3.25592 11.36914,2.82422 0.31239,-1.43366 -1.58354,-2.85639 -0.83789,-4.0625 -3.21402,-0.0156 -3.44982,-4.61986 -2.33985,-6.07813 -0.24379,-0.0829 -0.50443,-0.12428 -0.76172,-0.0977 z m -45.839837,3.2207 c -0.458963,2.36843 -3.327972,1.73577 -4.529297,2.6543 1.961123,-0.82389 8.060644,0.28907 4.529297,-2.6543 z m -12.853516,1.24609 c -0.400487,2.99815 -4.258362,2.74995 -5.738281,3.02344 -0.07036,1.68581 -4.555871,3.08013 -0.549642,1.72197 2.075426,-1.50551 9.073893,-0.90604 8.356282,-2.97978 -0.698695,-1.14146 -0.124126,-2.37013 -2.068359,-1.76563 z m 94.486323,5.51954 c 0.048,-2.80867 -1.42305,-4.08178 0,0 z m -7.09765,-0.86524 c -2.31144,0.64875 -2.48028,4.0218 -2.91211,5.71485 0.34293,2.06869 -0.64095,4.26177 -2.35352,5.44726 4.42529,2.26608 10.54202,8.18155 12.87695,9.56836 -0.067,-1.95605 0.20619,-2.91721 -1.70312,-3.9082 -1.54173,-0.78265 -4.7258,-1.34706 -4.19141,-4.30469 0.6344,-1.99067 1.29469,-3.42838 -0.38281,-5.11328 -1.02242,-1.89467 -0.98,-4.39389 0.53711,-5.49024 -0.69824,-0.49417 -0.88436,-1.96732 -1.87109,-1.91406 z m -126.828126,0.85938 c -1.392291,-0.076 -3.584254,2.87492 -0.791017,1.51758 1.617855,0.18029 1.665461,-1.19113 0.791017,-1.51758 z m 108.345706,0.20703 c -0.73534,1.46807 -3.55998,2.79612 0.0586,3.05078 -0.0118,-1.17536 1.16616,-2.6034 -0.0586,-3.05078 z m -78.281253,0.0215 c -1.343332,-0.16391 -2.144225,0.7939 0,0 z m -22.257813,1.83594 c -2.923317,0.66903 1.366736,4.42084 -1.804687,5.51758 0.01523,1.63757 0.338661,5.59567 2.454262,2.9929 1.109445,-2.05022 8.080406,-2.4925 4.498863,-4.73704 -3.306844,1.79621 -4.69786,-1.83536 -5.148438,-3.77344 z m 12.783204,1.54687 c -0.175832,0.79928 0.620572,0.0904 0,0 z m 92.916012,1.77149 c -0.7046,1.09493 2.41111,0.85425 0,0 z m 4.39063,2.67187 c 0.5131,-0.75268 -1.79941,-0.28084 0,0 z m -117.275392,1.9492 c 2.803068,-0.22609 5.114606,-2.6208 0,0 z m -4.919923,5.69532 c -1.897953,1.55939 -0.158708,3.66385 -0.775391,5.61914 0.63251,-1.70469 6.85457,-4.95694 5.503907,-5.58985 -1.286135,1.79068 -3.932982,1.00996 -4.728516,-0.0293 z m 145.230465,4.34765 c -0.47526,1.88697 -3.44026,2.64236 -4.17578,2.37891 4.44347,2.76908 5.91813,11.01607 11.5803,10.42942 1.81862,-0.85645 10.57695,1.39584 7.66775,-1.58567 -1.05433,-1.999 -0.93186,-2.96437 -3.2207,-1.57227 -2.18287,1.0044 -3.68295,-2.1169 -4.68946,-1.94922 -2.90176,1.64427 -3.86656,-2.07055 -6.21094,-2.76953 -1.8289,-1.88161 0.57544,-3.78147 -0.48046,-5.68554 z m -148.992184,4.14844 c -1.784313,0.14021 -2.706293,0.0352 -2.595703,2.13281 -0.628265,3.27834 -4.806162,2.8388 -6.251953,1.0957 -0.805005,5.07384 -7.225845,2.17849 -6.474609,-1.90039 -3.954937,2.60813 5.564291,6.02388 6.623685,8.879 2.738179,-1.32606 5.497649,-7.35521 8.692721,-10.14071 l 0.09766,-0.0957 z"
       id="path828-6-61"
       inkscape:connector-curvature="0" />
    <path
       style="opacity:1;fill:url(#radialGradient26423-4);fill-opacity:1;stroke:none;stroke-width:3.77953;stroke-linecap:butt;stroke-linejoin:miter;stroke-miterlimit:4;stroke-dasharray:none;stroke-opacity:1;filter:url(#filter589211)"
       d="m 404.38867,392.42969 c -0.95055,1.08298 1.03702,3.57375 -5.52148,7.33008 -0.72151,0.41325 0.47192,1.65716 -11.85742,3.55664 -8.87539,1.36735 -18.94512,22.89453 7.25,20.66601 2.93605,-0.24982 9.11693,4.21146 5.25195,9.74805 -4.178,5.98511 -14.66906,6.83525 -12.55664,16.88086 -6.936,-0.55858 -9.93555,-1.19035 -12.27149,-2.81445 -2.37494,-3.07476 -3.47214,-5.64309 5.67383,-10.8125 -10.50796,-0.88166 -14.63072,6.5471 -17.87695,15.11718 -0.24416,-1.27283 -8.18875,-9.90818 -16.57227,-8.81836 1.93474,0.37932 4.82209,4.63789 0.0332,11.34375 -6.15474,3.45211 -11.23857,0.53055 -15.21875,-4.58984 1.11617,5.58565 1.4306,7.42323 0.88476,8.73242 0.9992,4.38542 -11.53458,8.07561 -12.24219,2.31641 -1.70607,-13.8855 -11.17396,-3.92306 -22.47656,-13.92774 0,0 1.76754,3.37168 2.00195,5.91992 0.28347,3.08221 -0.43291,6.69052 -2.9082,8.54883 -2.96243,2.22407 -8.61308,2.41807 -11.13281,-0.32031 -2.71347,-2.94913 -0.14063,-9.22354 0.15039,-9.76953 1.46672,-2.75161 8.46324,-10.98299 0.75391,-16.39649 -7.68605,-5.39709 -13.86387,-2.27565 -16.02149,-5.29882 -1.41422,-0.90936 -0.44294,-3.98199 0.625,-7.14258 0,0 -8.31484,7.63564 -8.54883,14.14062 -0.13644,3.79499 4.86397,7.42652 7.66993,9.65625 1.44884,1.15136 -5.09127,6.00026 -5.46094,11.47071 -0.11603,1.71654 4.13512,4.99197 9.36523,4.73047 5.23011,-0.26155 3.59238,6.14656 3.21485,7.23242 -0.28574,0.82121 -5.88686,5.02561 -9.8125,4.375 -4.65105,-0.77087 -9.51297,-6.05831 -13.30274,-3.75 1.07059,-0.55816 6.91107,4.51856 5.35742,8.48242 -1.2983,3.31242 -2.89825,7.06626 -5.98242,8.83984 -3.80137,2.18601 -8.79604,6.02012 -13.125,0.89258 -2.52276,-2.98809 -3.33923,-7.61117 -1.05273,-10.26172 3.97122,-4.6035 3.20899,-11.16784 2.44726,-11.47851 0.90097,2.66101 -1.4367,4.43242 -3.1289,5.90039 -4.87605,4.22986 -8.41149,7.8128 -10.14063,10.125 -2.72576,3.64486 0.18859,10.5987 -1.42969,12.94726 -2.58992,3.75901 -9.01717,6.36377 -13.03515,4.19727 -4.51246,-2.43319 -3.82617,-18.50977 -3.82617,-18.50977 -0.65027,-0.41072 -3.21347,11.36328 -4.28516,12.59571 -1.2342,1.41838 -7.44363,4.19993 -8.67383,1.44922 -2.01396,-4.50324 -0.87474,-19.08316 -8.44922,-16.17969 -3.69709,1.41717 -7.05892,3.11456 -8.64258,3.91015 -3.63753,1.82748 -11.99229,2.60693 -13.62304,-1.12304 -2.28201,-5.21968 13.40196,-11.21144 13.125,-15.44727 -0.68875,-10.53343 -12.81903,-6.33216 -12.68164,-4.27148 0.32277,-0.76657 7.83283,-0.62516 5.7539,4.34375 -1.83923,4.39593 -7.09895,4.3701 -11.77929,5.26562 -7.47651,1.43052 -15.6964,3.51764 -19.60938,12.76758 -1.71783,4.06069 3.03184,11.59542 8.40625,10.64453 4.22933,-0.74827 12.49467,-4.77934 23.92774,-3.21484 3.21758,0.44027 0.6589,4.07649 0.8789,5.2207 0.42962,2.23378 4.16107,3.46104 2.30078,4.7793 -1.72055,1.21927 -5.20593,2.35933 -8.20117,4.59961 1.82011,0.45501 4.9852,4.23539 4.0625,6.60742 -1.69338,4.35318 -6.93456,4.62235 -7.67773,3.49609 0.82911,2.24338 5.97558,4.49978 8.10156,4.58399 3.94447,0.15647 2.19289,9.7018 -1.16016,11.78515 -8.78547,5.4587 -13.41414,-7.13122 -15.24218,-11.01367 -0.75912,2.44369 -0.48796,13.09288 -6.05078,14.33203 -5.57265,1.24124 -1.72598,-12.165 -6.89063,-13.53515 -14.0414,-3.72503 -15.6856,8.70014 -21.45313,2.65429 -0.29439,1.43581 0.42216,3.75322 2.1211,4.22071 3.74286,1.02996 3.67415,1.24889 9.875,1.41406 4.97533,0.13266 -5.095,12.22673 -5.14844,13.6543 -0.0884,2.36027 3.993,12.91087 0.4043,16.77343 -3.99031,4.29479 -10.38243,3.98088 -11.43946,2.64844 -1.61481,-2.03558 -1.50718,-10.2626 -2.33789,-16.86328 -0.36699,-2.91447 -5.06587,-8.72585 -21.425777,2.1582 -1.335458,0.88846 -14.273231,9.49705 -12.380859,-5.04687 -7.955036,21.44258 11.53083,17.51058 18.662106,9.68945 0.8651,-0.94877 2.85796,-0.34356 3.89453,0.45313 4.36585,3.3547 -5.266774,8.07815 -3.970699,11.5371 2.465049,6.57892 9.018629,6.407 9.623049,5.47852 0.56194,-0.86317 0.84765,10.22317 -4.89258,10.28516 -9.378898,0.10129 -4.53806,-18.24404 -10.826172,-14.07813 3.765959,-0.94734 -0.03779,8.27289 -1.951172,8.37305 -1.913612,0.10016 -5.457573,-10.03201 -9.589844,-5.19531 4.104416,-0.61724 4.05201,10.24497 2.21875,14.4082 -0.694145,1.57644 -6.112344,4.64424 -7.023437,-3.55273 -2.662791,-23.95594 -18.882797,-7.99515 -21.800781,-4.15235 -1.370797,1.80529 -4.282163,2.13399 -6.712891,1.08789 3.520139,4.79978 6.050528,5.35077 8.644531,8.36328 l 4.123047,3.88672 H 120.28906 A 338.19439,272.48899 0 0 1 403.05078,467.34375 338.19439,272.48899 0 0 1 686.39844,591.48242 h 64.09179 c -0.92192,-2.05788 -0.26904,-3.12008 3.25391,-2.17773 2.18816,0.5853 13.75174,-9.11714 4.83398,-18.45703 0.88903,5.25411 -6.19772,5.38159 -10.61523,5.72851 -5.20573,0.40887 -13.14695,13.53742 -20.97851,7.74805 -2.63819,-1.95024 -1.70989,-15.7012 9.54101,-17.56836 -9.10008,-10.14138 -17.82567,12.14368 -25.99414,13.0293 -2.04616,0.22185 -3.80543,-5.55035 2.47656,-8.80664 -6.71183,1.71889 -13.96919,2.47272 -15.27343,-2.44532 -0.68629,-2.58769 1.13594,-3.58586 10.15624,-9.71289 -5.72829,-0.21241 -14.08814,-3.2517 -5.74218,-8.375 1.84902,-1.13503 8.24779,6.82646 11.94726,5.89258 8.41055,-2.12315 3.46949,-9.49827 10.96289,-18.20898 -6.85115,-0.15421 -6.7637,7.12624 -14.85351,8.49609 -7.09312,1.2011 -4.39467,-10.34382 -14.60352,-8.16016 -8.55673,1.83028 -13.31963,20.12759 -18.74023,19.60938 -4.40738,-0.42138 -5.49198,-5.39079 -5.12695,-7.68164 0.64626,-4.05634 3.79339,-6.90708 12.2246,-11.41016 -13.83522,-1.53728 -17.26039,3.16062 -20.54492,-4.19922 -0.46998,-1.05309 12.42716,-4.1787 11.58399,-4.95312 -0.97334,-0.89401 5.28439,-2.9565 4.88867,-13.99805 -2.96466,5.79387 -2.52954,7.73205 -6.41406,7.8457 -4.03234,0.11793 -3.35148,-7.77213 -6.89063,-7.14843 -6.71142,1.18272 -5.96426,12.14798 -7.49414,13.33203 -2.39369,1.85253 -8.79417,4.1208 -9.03516,-4.55469 -0.0729,-2.62046 3.36965,-7.68632 3.5293,-10.24219 0.41624,-6.66285 -2.86781,-7.14608 -4.05859,-9.06445 -2.05172,-3.30527 -2.8214,-9.78485 -3.94532,-11.17969 -1.62497,-2.01683 5.95811,-5.60861 8.3086,-3.31054 3.46446,3.38725 5.73005,8.28928 12.78125,6.78125 8.27263,-1.76928 6.96101,-10.25558 6.96094,-11.83399 -2.3e-4,-6.73576 -7.64074,-13.40454 -11.81836,-12.3457 2.45215,-0.002 7.87733,9.30431 -0.12696,11.60351 -3.9151,1.1246 -11.33043,-2.40105 -15.47461,-9.35546 -4.72777,-7.93376 -11.13002,-7.49918 -17.24023,-4.07032 -8.39225,4.70952 -7.60674,13.9287 -8.90625,16.04297 -1.48845,2.42177 1.04589,2.88923 -8.6582,3.70508 6.23486,7.08106 6.1855,6.9672 6.27148,10.75391 0.13228,5.81831 -5.98399,12.43237 -7.55469,10.83593 -1.25816,-1.2788 1.75238,-6.80449 -2.58984,-14.45898 -7.87109,8.78653 -18.30893,-2.87836 -14.00586,-8.9668 1.71557,-2.4274 6.38187,-2.43733 13.47461,-5.36719 -7.90466,-1.3971 -7.26924,-7.05218 -11.64453,-6.15625 -8.54714,1.75019 -6.7042,10.89654 -9.10352,12.97071 -3.14335,2.71733 -9.26916,5.96937 -11.33789,4.45703 -1.66352,-1.21614 -2.50613,-7.82406 8.65625,-14.91211 -7.38315,-2.38492 -6.73427,0.20636 -8.66992,-0.83203 -3.14389,-1.68662 2.42929,-6.22874 -1.81055,-19.88867 -5.97396,11.31859 -7.96585,7.42005 -10.23632,11.83007 -5.32664,10.34627 -11.59468,15.22023 -12.33399,12.29102 -1.09897,-4.35436 -1.06134,-4.38234 6.42383,-15.95117 -3.7892,4.39612 -13.45565,3.88171 -9.65234,0.93164 5.43896,-4.21879 5.42572,-15.96109 3.23242,-19.00977 0.27137,5.71227 -11.02665,9.79647 -12.68946,7.82227 -1.71159,-2.0321 -2.96519,-4.83164 -2.34179,-6.88086 1.43924,-4.73095 9.33981,-4.59495 13.29297,-13.51758 2.42256,-5.46795 -1.13476,-6.18561 -13.14844,-9.5664 5.99384,5.13143 5.29212,11.58971 -1.14453,8.53124 -8.19583,-3.89431 -17.59359,0.39864 -17.5586,8.5625 0.008,1.86932 4.52904,5.78918 1.07032,11.57227 -0.36208,0.60525 -6.42541,0.75258 -8.19922,-1.93164 1.22468,4.17793 -11.49888,11.8845 -13.11524,6.64063 -1.27018,-4.12098 -1.09449,-9.52892 6.39453,-14.57032 -9.90924,-1.97559 -15.89148,12.34261 -16.65234,11.04688 -0.25512,-0.43457 -3.12287,-0.51964 -1.4668,-5.16797 -2.2007,3.01825 -7.2749,6.23194 -9.20703,2.5 -2.08626,-4.02962 6.52756,-9.08204 9.16797,-10.63281 8.69465,-5.10664 -0.42171,-10.9658 -2.13281,-11.54297 3.16645,1.99143 1.52879,10.69636 -6.52149,4.60547 -8.05031,-6.0909 -9.45591,-3.4719 -12.14648,-0.50977 -2.69057,2.96209 -3.57979,12.84727 -11.52734,8.11719 -0.18558,2.50923 -0.71982,13.80119 -6.16211,10.11914 -5.44233,-3.68202 2.49113,-4.88616 -2.73633,-20.60938 -6.33695,6.98499 -13.81759,11.02783 -12.52344,6.93555 1.29411,-4.09228 -3.49805,-9.0332 -3.49805,-9.0332 0,0 -0.7135,5.91841 -2.70898,8.17773 -2.54404,2.88042 -6.79653,5.16363 -9.39258,2.33008 -2.78158,-3.03598 1.90754,-6.37662 4.06641,-9.88281 0.57214,-0.9292 7.42614,-15.39124 -8.53125,-14.75586 -4.23043,0.16857 -10.87728,-0.29293 -9.14649,-4.79688 1.07029,-2.78517 11.31513,-11.73783 2.42383,-21.69726 z m 257.42188,81.68164 c -0.19087,1.5e-4 -0.36474,0.049 -0.51172,0.16992 0.16327,-0.0729 0.33525,-0.12495 0.51172,-0.16992 z m -497.41211,43.02148 c -0.0378,-0.10242 -0.0788,-0.20617 -0.0977,-0.30859 -0.008,0.11263 0.0342,0.21373 0.0977,0.30859 z"
       transform="matrix(0.26458333,0,0,0.26458333,-0.27491824,-6.1246907)"
       id="path828-6" />
    <path
       style="opacity:1;fill:url(#radialGradient26423-4-4);fill-opacity:1;stroke:none;stroke-width:1;stroke-linecap:butt;stroke-linejoin:miter;stroke-miterlimit:4;stroke-dasharray:none;stroke-opacity:1;filter:url(#filter587726)"
       d="m 106.02557,115.66375 a 89.480598,72.096044 0 0 0 -39.917454,7.6016 c -0.44522,0.26242 -0.927055,0.51991 -1.416968,0.58653 a 89.480598,72.096044 0 0 0 -40.238371,34.42426 l 0.930693,0.87746 a 89.480598,72.096044 0 0 1 80.98215,-41.62691 89.480598,72.096044 0 0 1 79.14968,38.55681 c 0.28897,-0.009 0.52564,-0.018 0.81078,-0.0274 a 89.480598,72.096044 0 0 0 -80.30051,-40.39237 z"
       id="path828-6-6"
       inkscape:connector-curvature="0" />
    <path
       style="opacity:0;fill:url(#radialGradient26342-6);fill-opacity:1;stroke:none;stroke-width:2.46527314;stroke-miterlimit:4;stroke-dasharray:none;stroke-opacity:1"
       d="m 398.71094,153 c -33.6055,0.37742 -69.2876,16.51082 -84.89844,47.56445 -14.25911,26.38808 -5.15785,61.15911 17.5918,79.78516 40.68746,35.80418 110.20374,32.77398 146.22265,-8.27734 17.49716,-20.24354 21.81487,-51.68286 7.54623,-74.86342 C 468.10845,167.20583 432.07544,152.53568 398.71094,153 Z"
       id="path26312-7"
       inkscape:connector-curvature="0" />
    <path
       style="opacity:1;fill:url(#radialGradient588295);fill-opacity:1;stroke:none;stroke-width:2.46527;stroke-miterlimit:4;stroke-dasharray:none;stroke-opacity:1"
       d="M 106.3656,117.52668 A 89.480598,72.096044 0 0 0 31.405318,150.3717 H 181.39668 A 89.480598,72.096044 0 0 0 106.3656,117.52668 Z"
       id="path26312" />
    <path
       style="opacity:1;fill:url(#radialGradient26423-4-4-9);fill-opacity:1;stroke:none;stroke-width:3.77953;stroke-linecap:butt;stroke-linejoin:miter;stroke-miterlimit:4;stroke-dasharray:none;stroke-opacity:1;filter:url(#filter589223)"
       d="M 401.76562,460.30273 A 338.19439,272.48899 0 0 0 250.89648,489.0332 c -1.68272,0.99183 -3.50384,1.96501 -5.35546,2.2168 A 338.19439,272.48899 0 0 0 113.40234,591.48242 h 6.88672 A 338.19439,272.48899 0 0 1 403.05078,467.34375 338.19439,272.48899 0 0 1 686.39844,591.48242 h 4.11328 A 338.19439,272.48899 0 0 0 401.76562,460.30273 Z"
       transform="matrix(0.26458333,0,0,0.26458333,-0.27491824,-6.1246907)"
       id="path828-6-6-6" />
    <path
       style="opacity:1;fill:#ffffff;fill-opacity:1;stroke:none;stroke-width:1;stroke-miterlimit:4;stroke-dasharray:none;stroke-opacity:1"
       d="M 8.3240398,88.725848 V 150.3717 H 16.06827 l -1.09089,-1.02836 c -0.68634,-0.79706 -1.355838,-0.94285 -2.287198,-2.21279 0.64312,0.27678 1.413408,0.1898 1.776119,-0.28784 0.772049,-1.01675 5.063583,-5.2397 5.768123,1.09865 0.24107,2.16877 1.674624,1.35709 1.858284,0.93999 0.48504,-1.10152 0.498916,-3.97549 -0.587044,-3.81217 1.09333,-1.27972 2.031003,1.40109 2.537312,1.37459 0.506251,-0.0265 1.512658,-2.46602 0.516248,-2.21537 1.66373,-1.10223 0.382925,3.75164 2.864425,3.72484 1.518769,-0.0164 1.443175,-2.94965 1.294495,-2.72128 -0.15993,0.24567 -1.893888,0.29115 -2.546099,-1.44952 -0.342919,-0.91518 2.205712,-2.16494 1.050581,-3.05253 -0.274259,-0.2107 -0.801526,-0.37091 -1.030427,-0.11989 -1.886807,2.06935 -7.042452,3.10968 -4.937683,-2.56367 -0.50069,3.84808 2.922429,1.5704 3.275769,1.33532 4.328559,-2.87973 5.571918,-1.34215 5.668904,-0.57102 0.2198,1.74643 0.191312,3.92316 0.618566,4.46174 0.279676,0.35255 1.970921,0.4356 3.026691,-0.70073 0.94951,-1.02197 -0.130371,-3.81349 -0.106971,-4.43797 0.0141,-0.37771 2.678581,-3.5776 1.362191,-3.6127 -1.640641,-0.0437 -1.622462,-0.10163 -2.61276,-0.37414 -0.449511,-0.12369 -0.639088,-0.73682 -0.561208,-1.11673 1.526,1.59965 1.961041,-1.68786 5.676141,-0.70228 1.366491,0.36252 0.348715,3.90959 1.823146,3.58117 1.471832,-0.32785 1.400082,-3.14545 1.600935,-3.79201 0.483669,1.02723 1.708338,4.3583 4.032827,2.91403 0.887161,-0.55123 1.3506,-3.07675 0.306959,-3.11815 -0.562499,-0.0223 -1.924172,-0.61929 -2.143538,-1.21285 -0.0169,-0.025 -0.02784,-0.0519 -0.02584,-0.0816 0.005,0.027 0.01584,0.0547 0.02584,0.0816 0.196639,0.29799 1.58336,0.22676 2.0314,-0.92501 0.244131,-0.6276 -0.593299,-1.62782 -1.07487,-1.74821 0.79249,-0.59274 1.714664,-0.89438 2.169893,-1.21698 0.492201,-0.34879 -0.495089,-0.6735 -0.608748,-1.26452 -0.0582,-0.30274 0.618768,-1.26483 -0.232543,-1.38131 -3.024999,-0.41394 -5.211871,0.65261 -6.330881,0.85059 -1.421979,0.25159 -2.678663,-1.74197 -2.224154,-2.81637 1.03531,-2.44738 3.210156,-2.99959 5.188316,-3.37808 1.23834,-0.23694 2.629974,-0.23011 3.116604,-1.3932 0.55005,-1.31469 -1.436987,-1.35211 -1.522386,-1.14928 -0.0364,-0.54523 3.173118,-1.65681 3.35535,1.13016 0.0733,1.12073 -4.076446,2.70605 -3.472656,4.08709 0.431459,0.98689 2.641997,0.78066 3.604429,0.29714 0.41901,-0.2105 1.308494,-0.6596 2.286683,-1.03456 2.004081,-0.76821 1.702662,3.08938 2.235522,4.28087 0.325491,0.7278 1.968411,-0.008 2.294951,-0.38344 0.28356,-0.32608 0.961729,-3.44128 1.133782,-3.33261 0,0 -0.181581,4.25359 1.012341,4.89737 1.063091,0.57324 2.763634,-0.11595 3.448883,-1.11052 0.42817,-0.62138 -0.342918,-2.46126 0.378273,-3.42563 0.457501,-0.61177 1.39292,-1.55976 2.683041,-2.67891 0.447728,-0.38841 1.066229,-0.85708 0.827855,-1.56114 0.201533,0.0822 0.403225,1.81901 -0.647504,3.03702 -0.60497,0.70129 -0.388946,1.92448 0.278535,2.71508 1.14537,1.35667 2.466877,0.34222 3.472656,-0.23616 0.81603,-0.46926 1.239358,-1.46246 1.582848,-2.33888 0.41107,-1.04878 -1.134223,-2.39198 -1.417484,-2.2443 1.00271,-0.61074 2.289093,0.78823 3.519684,0.99218 1.038659,0.17215 2.520722,-0.94028 2.596224,-1.15755 0.0999,-0.28731 0.533204,-1.98278 -0.850596,-1.91358 -1.3838,0.0692 -2.508584,-0.79743 -2.477884,-1.2516 0.0978,-1.44739 1.828213,-2.73033 1.444874,-3.03496 -0.74241,-0.58995 -2.065436,-1.55079 -2.029336,-2.55488 0.0619,-1.72111 2.261878,-3.74137 2.261878,-3.74137 -0.282559,0.83624 -0.539544,1.64921 -0.165365,1.8898 0.570871,0.79989 2.205408,-0.026 4.23902,1.40198 2.039749,1.43234 0.188597,3.6102 -0.199472,4.33824 -0.077,0.14445 -0.757722,1.80457 -0.03979,2.58486 0.666679,0.72453 2.161757,0.6732 2.945556,0.0847 0.65492,-0.49168 0.844574,-1.44638 0.769461,-2.26188 -0.06199,-0.67422 -0.529682,-1.56631 -0.529682,-1.56631 2.99049,2.64707 5.495533,0.0112 5.946923,3.68504 0.18724,1.52378 3.503459,0.54743 3.239079,-0.61288 0.14442,-0.34639 0.06119,-0.83258 -0.234093,-2.31045 1.05309,1.35477 2.398176,2.12775 4.026628,1.21439 1.26705,-1.77427 0.50333,-2.901 -0.0088,-3.00136 2.218132,-0.28834 4.320146,1.99642 4.384746,2.33319 0.858899,-2.2675 1.94972,-4.23305 4.729941,-3.99976 -2.419861,1.36774 -2.129565,2.04728 -1.501198,2.86081 0.618061,0.42971 1.411668,0.59688 3.246828,0.74466 -0.55893,-2.65789 2.21684,-2.88285 3.32228,-4.4664 1.02261,-1.4649 -0.61275,-2.64526 -1.38958,-2.57917 -6.930784,0.58962 -4.266507,-5.1061 -1.91823,-5.46788 3.26213,-0.50257 2.94638,-0.8317 3.13728,-0.941029 1.73527,-0.993862 1.20939,-1.652886 1.46089,-1.939417 2.35248,2.635096 -0.35812,5.003836 -0.6413,5.740736 -0.45795,1.19168 1.30071,1.31378 2.42,1.26917 4.22207,-0.16812 2.4086,3.65832 2.25723,3.90416 -0.57121,0.92769 -1.81185,1.81155 -1.0759,2.61482 0.68688,0.7497 1.81202,0.1456 2.48512,-0.6165 0.52796,-0.59778 0.71675,-2.16369 0.71675,-2.16369 0,0 1.26792,1.30729 0.92552,2.39004 -0.34241,1.08275 1.63684,0.0131 3.3135,-1.83503 1.38309,4.1601 -0.71597,4.47868 0.72398,5.45289 1.43994,0.97419 1.58128,-2.01344 1.6304,-2.67735 2.10276,1.2515 2.33806,-1.36396 3.04994,-2.14767 0.71188,-0.78374 1.08378,-1.47668 3.21375,0.13487 2.12997,1.61154 2.56328,-0.69163 1.72548,-1.21853 0.45273,0.1527 2.86478,1.70296 0.56431,3.05408 -0.69861,0.41031 -2.97767,1.74707 -2.4257,2.81326 0.51121,0.9874 1.85377,0.13712 2.43603,-0.66146 -0.43816,1.22988 0.32058,1.25237 0.38809,1.36736 0.20131,0.34282 1.78411,-3.44554 4.40594,-2.92282 -1.98147,1.33386 -2.02796,2.76472 -1.69189,3.85507 0.42767,1.38743 3.79413,-0.65159 3.47008,-1.757 0.46933,0.7102 2.07357,0.67122 2.16937,0.51108 0.91512,-1.53011 -0.28118,-2.56724 -0.28318,-3.06183 -0.009,-2.16003 2.47723,-3.29586 4.64571,-2.2655 1.70303,0.80922 1.88869,-0.89953 0.30282,-2.25722 3.17862,0.89451 4.11983,1.08438 3.47886,2.53111 -1.04594,2.36079 -3.13631,2.32478 -3.5171,3.57652 -0.16495,0.54218 0.16675,1.28292 0.6196,1.82057 0.43996,0.52234 3.42922,-0.55829 3.35742,-2.06965 0.58031,0.80662 0.58381,3.91345 -0.85524,5.02967 -1.0063,0.78054 1.55129,0.91664 2.55384,-0.2465 -1.98045,3.06092 -1.9904,3.06833 -1.69963,4.22042 0.1956,0.77502 1.85402,-0.51455 3.26336,-3.252 0.60073,-1.16681 1.12775,-0.13533 2.70836,-3.13004 1.12179,3.61419 -0.35278,4.81597 0.47904,5.26221 0.51214,0.27475 0.34047,-0.41088 2.29392,0.22014 -2.95337,1.87537 -2.73044,3.62373 -2.2903,3.9455 0.54735,0.40015 2.16814,-0.4603 2.99982,-1.17926 0.63482,-0.54879 0.14721,-2.96876 2.40864,-3.43183 1.15763,-0.23705 0.9895,1.2592 3.08095,1.62884 -1.87662,0.7752 -3.11125,0.77783 -3.56516,1.42007 -1.13852,1.6109 1.62316,4.69723 3.70572,2.37246 1.14887,2.02524 0.35234,3.48727 0.68522,3.82561 0.41559,0.42239 2.03375,-1.32759 1.99885,-2.86701 -0.0228,-1.00191 -0.01,-0.97177 -1.65933,-2.8453 2.56755,-0.21585 1.897,-0.33956 2.29082,-0.9803 0.34382,-0.55941 0.13599,-2.99866 2.35644,-4.24471 1.61666,-0.90723 3.31059,-1.02221 4.56148,1.07694 1.09648,1.84001 3.05845,2.77286 4.09432,2.4753 2.1178,-0.60833 0.68237,-3.07063 0.0336,-3.0701 -0.0467,0.0119 -0.0922,0.0257 -0.13539,0.045 0.0389,-0.032 0.0849,-0.0449 0.13539,-0.045 1.10533,-0.28014 3.12688,1.48429 3.12694,3.26647 2e-5,0.41762 0.34706,2.66297 -1.84174,3.13108 -1.86563,0.399 -2.46507,-0.89801 -3.38171,-1.79421 -0.6219,-0.60804 -2.62826,0.34231 -2.19832,0.87592 0.29737,0.36905 0.50102,2.08344 1.04387,2.95796 0.31506,0.50756 1.18396,0.63542 1.07383,2.3983 -0.0422,0.67625 -0.95309,2.01659 -0.93379,2.70991 0.0638,2.29539 1.75722,1.69524 2.39055,1.2051 0.40479,-0.31331 0.2071,-3.21452 1.98283,-3.52744 0.9364,-0.16503 0.75625,1.92256 1.82314,1.89136 1.02778,-0.0301 0.91266,-0.54287 1.69706,-2.07584 0.10471,2.92142 -1.55099,3.46711 -1.29346,3.70365 0.2231,0.20491 -3.18927,1.03188 -3.06493,1.31051 0.86904,1.94729 1.77528,0.70431 5.43584,1.11104 -2.23075,1.19143 -3.06343,1.94569 -3.23443,3.01894 -0.0966,0.60611 0.19039,1.92096 1.35651,2.03244 1.4342,0.13711 2.69438,-4.70406 4.95835,-5.18832 2.70109,-0.57776 1.98713,2.47683 3.86385,2.15904 2.14043,-0.36245 2.11729,-2.28872 3.92999,-2.24792 -1.98263,2.30472 -0.67531,4.25604 -2.9006,4.81779 -0.97882,0.24709 -2.67182,-1.85939 -3.16104,-1.55908 -2.20821,1.35554 0.004,2.15969 1.51928,2.21589 -2.38662,1.62111 -2.86875,1.88522 -2.68717,2.56987 0.34508,1.30124 2.26526,1.10179 4.0411,0.64699 -1.66211,0.86156 -1.19664,2.38879 -0.65526,2.33009 2.16124,-0.23431 4.46989,-6.1306 6.87761,-3.44734 -2.9768,0.49402 -3.22241,4.1323 -2.52439,4.6483 2.07211,1.53177 4.17321,-1.94183 5.55057,-2.05001 1.16879,-0.0918 3.04384,-0.12551 2.80861,-1.51566 2.35949,2.47117 -0.70004,5.03828 -1.27899,4.88342 -0.93212,-0.24933 -1.10486,0.0317 -0.86093,0.57619 h 7.27863 V 88.725848 Z"
       id="rect26690" />
    <rect
       style="opacity:1;fill:#ffffff;fill-opacity:1;stroke:none;stroke-width:0.343356;stroke-miterlimit:4;stroke-dasharray:none;stroke-opacity:1"
       id="rect26783-9"
       width="197.24687"
       height="14.803996"
       x="8.3240395"
       y="150.37169" />
  </g>
</svg>
