<?xml version="1.0" encoding="UTF-8" standalone="no"?>
<!-- Created with Inkscape (http://www.inkscape.org/) -->

<svg
   xmlns:osb="http://www.openswatchbook.org/uri/2009/osb"
   xmlns:dc="http://purl.org/dc/elements/1.1/"
   xmlns:cc="http://creativecommons.org/ns#"
   xmlns:rdf="http://www.w3.org/1999/02/22-rdf-syntax-ns#"
   xmlns:svg="http://www.w3.org/2000/svg"
   xmlns="http://www.w3.org/2000/svg"
   xmlns:xlink="http://www.w3.org/1999/xlink"
   xmlns:sodipodi="http://sodipodi.sourceforge.net/DTD/sodipodi-0.dtd"
   xmlns:inkscape="http://www.inkscape.org/namespaces/inkscape"
   width="210mm"
   height="297mm"
   viewBox="0 0 210 297"
   version="1.1"
   id="svg8"
   inkscape:version="0.92.4 (5da689c313, 2019-01-14)"
   sodipodi:docname="chapter.svg">
  <defs
     id="defs2">
    <linearGradient
       id="linearGradient587489"
       inkscape:collect="always">
      <stop
         id="stop587481"
         offset="0"
         style="stop-color:#0c0000;stop-opacity:1" />
      <stop
         style="stop-color:#000000;stop-opacity:1"
         offset="0.72788191"
         id="stop587483" />
      <stop
         id="stop587485"
         offset="0.98196954"
         style="stop-color:#b70000;stop-opacity:1" />
      <stop
         id="stop587487"
         offset="1"
         style="stop-color:#fff1b9;stop-opacity:1" />
    </linearGradient>
    <linearGradient
       id="linearGradient587294"
       inkscape:collect="always">
      <stop
         id="stop587286"
         offset="0"
         style="stop-color:#000000;stop-opacity:1" />
      <stop
         style="stop-color:#fdf0e7;stop-opacity:1"
         offset="0.89172632"
         id="stop587288" />
      <stop
         id="stop587290"
         offset="0.92904478"
         style="stop-color:#dc4d00;stop-opacity:1" />
      <stop
         id="stop587292"
         offset="1"
         style="stop-color:#840004;stop-opacity:1" />
    </linearGradient>
    <linearGradient
       inkscape:collect="always"
       id="linearGradient26340">
      <stop
         style="stop-color:#0c0000;stop-opacity:1"
         offset="0"
         id="stop26336" />
      <stop
         id="stop26344"
         offset="0.6879313"
         style="stop-color:#000000;stop-opacity:1" />
      <stop
         style="stop-color:#ff0000;stop-opacity:1"
         offset="0.98198646"
         id="stop26389" />
      <stop
         style="stop-color:#fff1b9;stop-opacity:1"
         offset="1"
         id="stop26338" />
    </linearGradient>
    <linearGradient
       inkscape:collect="always"
       id="linearGradient26304">
      <stop
         style="stop-color:#000000;stop-opacity:1"
         offset="0"
         id="stop26300" />
      <stop
         style="stop-color:#000000;stop-opacity:1"
         offset="1"
         id="stop26302" />
    </linearGradient>
    <linearGradient
       id="linearGradient24078"
       osb:paint="solid">
      <stop
         style="stop-color:#000000;stop-opacity:1;"
         offset="0"
         id="stop24076" />
    </linearGradient>
    <filter
       style="color-interpolation-filters:sRGB;"
       inkscape:label="Noise Fill"
       id="filter26154">
      <feTurbulence
         type="fractalNoise"
         baseFrequency="0.25 0.45"
         numOctaves="5"
         seed="1"
         result="turbulence"
         id="feTurbulence26138" />
      <feComposite
         in="SourceGraphic"
         in2="turbulence"
         operator="in"
         result="composite1"
         id="feComposite26140" />
      <feColorMatrix
         values="1 0 0 0 0 0 1 0 0 0 0 0 1 0 0 0 0 0 2.5 -1.1 "
         result="color"
         id="feColorMatrix26142" />
      <feFlood
         flood-opacity="0"
         flood-color="rgb(0,0,0)"
         result="flood"
         id="feFlood26144" />
      <feMerge
         result="merge"
         id="feMerge26150">
        <feMergeNode
           in="flood"
           id="feMergeNode26146" />
        <feMergeNode
           in="color"
           id="feMergeNode26148" />
      </feMerge>
      <feComposite
         in2="SourceGraphic"
         operator="in"
         result="composite2"
         id="feComposite26152" />
    </filter>
    <radialGradient
       inkscape:collect="always"
       xlink:href="#linearGradient26304"
       id="radialGradient26306"
       cx="106.61007"
       cy="196.89072"
       fx="106.61007"
       fy="196.89072"
       r="96.717987"
       gradientTransform="matrix(0.90876628,-0.12372635,0.09728194,0.73458557,-6.6994155,62.49793)"
       gradientUnits="userSpaceOnUse" />
    <radialGradient
       inkscape:collect="always"
       xlink:href="#linearGradient587489"
       id="radialGradient26342"
       cx="108.01583"
       cy="194.94414"
       fx="108.01583"
       fy="194.94414"
       r="90.771717"
       gradientTransform="matrix(0.98109677,-0.01118814,0.00900534,0.77819455,-1.036297,43.904693)"
       gradientUnits="userSpaceOnUse" />
    <radialGradient
       inkscape:collect="always"
       xlink:href="#linearGradient587294"
       id="radialGradient26423-4"
       cx="752.80127"
       cy="677.37726"
       fx="752.80127"
       fy="677.37726"
       r="234.71681"
       gradientTransform="matrix(1.536881,0.01348048,-0.01041831,1.1850866,-743.32317,-94.389714)"
       gradientUnits="userSpaceOnUse" />
    <radialGradient
       inkscape:collect="always"
       xlink:href="#linearGradient26340"
       id="radialGradient26342-6"
       cx="108.01583"
       cy="194.94414"
       fx="108.01583"
       fy="194.94414"
       r="90.771713"
       gradientTransform="matrix(0.98109676,-0.01118814,0.00900534,0.77819455,292.6929,77.24384)"
       gradientUnits="userSpaceOnUse" />
    <radialGradient
       inkscape:collect="always"
       xlink:href="#linearGradient587294"
       id="radialGradient26423-4-4"
       cx="752.80127"
       cy="677.37726"
       fx="752.80127"
       fy="677.37726"
       r="234.71681"
       gradientTransform="matrix(0.40663309,0.00356671,-0.00275651,0.31355416,-196.67094,-24.973936)"
       gradientUnits="userSpaceOnUse" />
    <radialGradient
       inkscape:collect="always"
       xlink:href="#linearGradient587294"
       id="radialGradient26423-4-4-9"
       cx="752.80127"
       cy="677.37726"
       fx="752.80127"
       fy="677.37726"
       r="234.71681"
       gradientTransform="matrix(1.536881,0.01348048,-0.01041831,1.1850866,-743.32328,-94.389797)"
       gradientUnits="userSpaceOnUse" />
    <filter
       inkscape:collect="always"
       style="color-interpolation-filters:sRGB"
       id="filter587726"
       x="-0.015223993"
       width="1.030448"
       y="-0.056665106"
       height="1.1133302">
      <feGaussianBlur
         inkscape:collect="always"
         stdDeviation="1.0268159"
         id="feGaussianBlur587728" />
    </filter>
    <filter
       inkscape:collect="always"
       style="color-interpolation-filters:sRGB"
       id="filter587770"
       x="-0.010834302"
       width="1.0216686"
       y="-0.013446783"
       height="1.0268936">
      <feGaussianBlur
         inkscape:collect="always"
         stdDeviation="0.80788322"
         id="feGaussianBlur587772" />
    </filter>
    <radialGradient
       inkscape:collect="always"
       xlink:href="#linearGradient587294"
       id="radialGradient26423-4-7"
       cx="752.80127"
       cy="677.37726"
       fx="752.80127"
       fy="677.37726"
       r="234.71681"
       gradientTransform="matrix(0.40663309,0.00356671,-0.00275651,0.31355416,-196.67093,-24.973953)"
       gradientUnits="userSpaceOnUse" />
    <filter
       inkscape:collect="always"
       style="color-interpolation-filters:sRGB"
       id="filter588065"
       x="-0.015543707"
       width="1.0310874"
       y="-0.052635408"
       height="1.1052708">
      <feGaussianBlur
         inkscape:collect="always"
         stdDeviation="1.1718024"
         id="feGaussianBlur588067" />
    </filter>
    <radialGradient
       inkscape:collect="always"
       xlink:href="#linearGradient587489"
       id="radialGradient588295"
       gradientUnits="userSpaceOnUse"
       gradientTransform="matrix(3.7080823,-0.04228588,0.03403593,2.9412077,-3.9167131,165.939)"
       cx="108.01583"
       cy="194.94414"
       fx="108.01583"
       fy="194.94414"
       r="90.771717" />
    <filter
       inkscape:collect="always"
       style="color-interpolation-filters:sRGB"
       id="filter589211"
       x="-0.030701097"
       width="1.0614022"
       y="-0.10995608"
       height="1.2199122">
      <feGaussianBlur
         inkscape:collect="always"
         stdDeviation="9.1196076"
         id="feGaussianBlur589213" />
    </filter>
    <filter
       inkscape:collect="always"
       style="color-interpolation-filters:sRGB"
       id="filter589223"
       x="-0.014727657"
       width="1.0294553"
       y="-0.064792567"
       height="1.1295851">
      <feGaussianBlur
         inkscape:collect="always"
         stdDeviation="3.5414454"
         id="feGaussianBlur589225" />
    </filter>
  </defs>
  <sodipodi:namedview
     id="base"
     pagecolor="#ffffff"
     bordercolor="#666666"
     borderopacity="1.0"
     inkscape:pageopacity="0.0"
     inkscape:pageshadow="2"
     inkscape:zoom="2"
     inkscape:cx="484.72328"
     inkscape:cy="712.67572"
     inkscape:document-units="mm"
     inkscape:current-layer="layer1"
     showgrid="false"
     showguides="true"
     inkscape:guide-bbox="true"
     inkscape:window-width="3840"
     inkscape:window-height="2043"
     inkscape:window-x="0"
     inkscape:window-y="52"
     inkscape:window-maximized="0"
     inkscape:snap-object-midpoints="true"
     inkscape:snap-center="true"
     inkscape:snap-bbox="true"
     inkscape:object-paths="true"
     inkscape:bbox-paths="true" />
  <metadata
     id="metadata5">
    <rdf:RDF>
      <cc:Work
         rdf:about="">
        <dc:format>image/svg+xml</dc:format>
        <dc:type
           rdf:resource="http://purl.org/dc/dcmitype/StillImage" />
        <dc:title></dc:title>
      </cc:Work>
    </rdf:RDF>
  </metadata>
  <g
     inkscape:label="Layer 1"
     inkscape:groupmode="layer"
     id="layer1">
    <path
       style="opacity:1;fill:#000000;fill-opacity:1;stroke:none;stroke-width:3.77952766;stroke-linecap:butt;stroke-linejoin:miter;stroke-miterlimit:4;stroke-dasharray:none;stroke-opacity:1"
       d="M 404.38867 392.42969 C 403.43812 393.51264 405.42569 396.00344 398.86719 399.75977 C 398.14568 400.17298 399.33911 401.41693 387.00977 403.31641 C 378.13434 404.68376 368.06467 426.21091 394.25977 423.98242 C 397.19582 423.7326 403.3767 428.19384 399.51172 433.73047 C 395.33372 439.71554 384.84262 440.56576 386.95508 450.61133 C 380.01904 450.05279 377.01957 449.42101 374.68359 447.79688 C 372.30865 444.72212 371.21147 442.15382 380.35742 436.98438 C 369.84948 436.10269 365.7267 443.53148 362.48047 452.10156 C 362.23631 450.82873 354.29169 442.19341 345.9082 443.2832 C 347.84291 443.66252 350.73026 447.92105 345.94141 454.62695 C 339.78663 458.07902 334.70284 455.1575 330.72266 450.03711 C 331.83883 455.62276 332.15326 457.46034 331.60742 458.76953 C 332.60665 463.15495 320.07288 466.84514 319.36523 461.08594 C 317.65916 447.20044 308.19131 457.16288 296.88867 447.1582 C 296.88867 447.1582 298.65618 450.52989 298.89062 453.07812 C 299.17447 456.16033 298.45771 459.76864 295.98242 461.62695 C 293.02003 463.85102 287.36934 464.04502 284.84961 461.30664 C 282.13614 458.35751 284.70898 452.0831 285 451.53711 C 286.46672 448.7855 293.4632 440.55412 285.75391 435.14062 C 278.06782 429.74354 271.89004 432.865 269.73242 429.8418 C 268.3182 428.93248 269.28948 425.85981 270.35742 422.69922 C 270.35742 422.69922 262.04258 430.33486 261.80859 436.83984 C 261.67215 440.63483 266.67256 444.26636 269.47852 446.49609 C 270.92736 447.64745 264.38725 452.49635 264.01758 457.9668 C 263.90155 459.68334 268.1527 462.95881 273.38281 462.69727 C 278.61292 462.43572 276.97519 468.84383 276.59766 469.92969 C 276.3123 470.75087 270.7108 474.9553 266.78516 474.30469 C 262.13411 473.53385 257.27219 468.24638 253.48242 470.55469 C 254.55301 469.99653 260.39349 475.07322 258.83984 479.03711 C 257.54158 482.34953 255.94163 486.10337 252.85742 487.87695 C 249.05605 490.06296 244.06138 493.8971 239.73242 488.76953 C 237.20966 485.78144 236.39319 481.15836 238.67969 478.50781 C 242.65095 473.90431 241.88864 467.33997 241.12695 467.0293 C 242.02788 469.69031 239.69025 471.46172 237.99805 472.92969 C 233.122 477.15955 229.58656 480.74249 227.85742 483.05469 C 225.13166 486.69955 228.04601 493.65339 226.42773 496.00195 C 223.83781 499.76096 217.41056 502.36572 213.39258 500.19922 C 208.88012 497.76607 209.56641 481.68945 209.56641 481.68945 C 208.91614 481.27873 206.35294 493.05273 205.28125 494.28516 C 204.04705 495.70354 197.83762 498.48508 196.60742 495.73438 C 194.59346 491.23111 195.73268 476.65122 188.1582 479.55469 C 184.46111 480.97186 181.09928 482.66925 179.51562 483.46484 C 175.87806 485.29232 167.52329 486.07177 165.89258 482.3418 C 163.61054 477.12212 179.29454 471.13036 179.01758 466.89453 C 178.32887 456.3611 166.19855 460.56237 166.33594 462.62305 C 166.65871 461.85648 174.16877 461.99789 172.08984 466.9668 C 170.25061 471.36273 164.99089 471.3369 160.31055 472.23242 C 152.83407 473.66294 144.61415 475.75006 140.70117 485 C 138.98334 489.06072 143.73301 496.59542 149.10742 495.64453 C 153.33675 494.89626 161.60212 490.86519 173.03516 492.42969 C 176.25274 492.86996 173.69402 496.50618 173.91406 497.65039 C 174.34364 499.88417 178.07513 501.11143 176.21484 502.42969 C 174.49429 503.64896 171.00891 504.78902 168.01367 507.0293 C 169.83378 507.48431 172.99887 511.26469 172.07617 513.63672 C 170.38279 517.98987 165.14164 518.25907 164.39844 517.13281 C 165.22755 519.37619 170.37402 521.63259 172.5 521.7168 C 176.44447 521.87327 174.69289 531.4186 171.33984 533.50195 C 162.55437 538.96065 157.9257 526.37073 156.09766 522.48828 C 155.33854 524.93197 155.60973 535.58119 150.04688 536.82031 C 144.47423 538.06158 148.3209 524.65531 143.15625 523.28516 C 129.11489 519.56013 127.47065 531.98534 121.70312 525.93945 C 121.4087 527.3753 122.12528 529.69267 123.82422 530.16016 C 127.56708 531.19012 127.49837 531.40905 133.69922 531.57422 C 138.67455 531.70688 128.60422 543.80095 128.55078 545.22852 C 128.46234 547.58879 132.54378 558.13939 128.95508 562.00195 C 124.96477 566.29674 118.57265 565.98286 117.51562 564.65039 C 115.90078 562.61481 116.00844 554.38779 115.17773 547.78711 C 114.81112 544.87264 110.11186 539.06126 93.751953 549.94531 C 92.416495 550.83377 79.478722 559.44236 81.371094 544.89844 C 73.416058 566.34102 92.901915 562.40906 100.0332 554.58789 C 100.8983 553.63915 102.89116 554.24467 103.92773 555.04102 C 108.29358 558.39569 98.660956 563.11918 99.957031 566.57812 C 102.42208 573.15704 108.97562 572.98516 109.58008 572.05664 C 110.14202 571.19347 110.42773 582.27981 104.6875 582.3418 C 95.308602 582.44309 100.14944 564.09776 93.861328 568.26367 C 97.627287 567.3163 93.823542 576.53656 91.910156 576.63672 C 89.996544 576.73688 86.452583 566.60467 82.320312 571.44141 C 86.424728 570.82413 86.372285 581.68638 84.539062 585.84961 C 83.844914 587.42605 78.426756 590.49388 77.515625 582.29688 C 74.852797 558.34094 58.632828 574.3017 55.714844 578.14453 C 54.344009 579.94982 51.432643 580.27852 49.001953 579.23242 C 52.522054 584.0322 55.052443 584.58319 57.646484 587.5957 L 61.769531 591.48242 L 120.28906 591.48242 A 338.19439 272.48899 0 0 1 403.05078 467.34375 A 338.19439 272.48899 0 0 1 686.39844 591.48242 L 750.49023 591.48242 C 749.56831 589.42454 750.22119 588.36235 753.74414 589.30469 C 755.9323 589.88999 767.49588 580.18755 758.57812 570.84766 C 759.46715 576.10177 752.38036 576.22921 747.96289 576.57617 C 742.75712 576.98504 734.81597 590.11359 726.98438 584.32422 C 724.34619 582.37398 725.27449 568.62302 736.52539 566.75586 C 727.42531 556.61444 718.69972 578.89958 710.53125 579.78516 C 708.48509 580.00701 706.72582 574.23481 713.00781 570.97852 C 706.29598 572.69744 699.03865 573.45128 697.73438 568.5332 C 697.04809 565.94555 698.87029 564.94734 707.89062 558.82031 C 702.1623 558.6079 693.80245 555.56858 702.14844 550.44531 C 703.99746 549.31024 710.39623 557.27177 714.0957 556.33789 C 722.50625 554.21474 717.56519 546.83966 725.05859 538.12891 C 718.20744 537.9747 718.29489 545.25511 710.20508 546.625 C 703.11196 547.8261 705.81041 536.28118 695.60156 538.46484 C 687.04483 540.29512 682.28193 558.59243 676.86133 558.07422 C 672.45395 557.65288 671.36935 552.68339 671.73438 550.39258 C 672.38067 546.3362 675.52777 543.48546 683.95898 538.98242 C 670.12376 537.44514 666.69862 542.14304 663.41406 534.7832 C 662.94412 533.73011 675.84126 530.60454 674.99805 529.83008 C 674.02471 528.93607 680.28244 526.87362 679.88672 515.83203 C 676.92206 521.62593 677.35718 523.56412 673.47266 523.67773 C 669.44032 523.79566 670.12118 515.9056 666.58203 516.5293 C 659.87061 517.71202 660.61781 528.67728 659.08789 529.86133 C 656.6942 531.7139 650.29372 533.98213 650.05273 525.30664 C 649.97979 522.68622 653.42238 517.62036 653.58203 515.06445 C 653.99827 508.4016 650.71422 507.91834 649.52344 506 C 647.47172 502.69473 646.70204 496.21518 645.57812 494.82031 C 643.95312 492.80352 651.53623 489.21166 653.88672 491.50977 C 657.35118 494.89698 659.61677 499.79905 666.66797 498.29102 C 674.9406 496.52178 673.62898 488.03544 673.62891 486.45703 C 673.62868 479.72123 665.98817 473.05253 661.81055 474.11133 C 664.2627 474.10932 669.68788 483.41564 661.68359 485.71484 C 657.76849 486.83948 650.35316 483.31378 646.20898 476.35938 C 641.48121 468.42558 635.07896 468.86016 628.96875 472.28906 C 620.5765 476.99854 621.36201 486.21773 620.0625 488.33203 C 618.57405 490.75376 621.10839 491.2213 611.4043 492.03711 C 617.63916 499.11817 617.5898 499.00431 617.67578 502.79102 C 617.80769 508.6093 611.69179 515.22339 610.12109 513.62695 C 608.86293 512.34819 611.87347 506.82242 607.53125 499.16797 C 599.66016 507.95446 589.22232 496.28961 593.52539 490.20117 C 595.24096 487.77381 599.90726 487.76387 607 484.83398 C 599.09534 483.43692 599.73076 477.7818 595.35547 478.67773 C 586.80833 480.42792 588.65127 489.57427 586.25195 491.64844 C 583.1086 494.36577 576.98279 497.61785 574.91406 496.10547 C 573.25054 494.88933 572.40793 488.28137 583.57031 481.19336 C 576.18716 478.8084 576.83604 481.39975 574.90039 480.36133 C 571.7565 478.67475 577.32968 474.13259 573.08984 460.47266 C 567.11588 471.79125 565.12399 467.89274 562.85352 472.30273 C 557.52688 482.649 551.25884 487.52296 550.51953 484.59375 C 549.42056 480.23939 549.45819 480.21141 556.94336 468.64258 C 553.15419 473.0387 543.48771 472.52429 547.29102 469.57422 C 552.72998 465.35543 552.71674 453.6131 550.52344 450.56445 C 550.79481 456.27668 539.49679 460.36092 537.83398 458.38672 C 536.12239 456.35462 534.86879 453.55504 535.49219 451.50586 C 536.93143 446.77487 544.832 446.91095 548.78516 437.98828 C 551.20772 432.52033 547.6504 431.80274 535.63672 428.42188 C 541.63056 433.55334 540.92884 440.01159 534.49219 436.95312 C 526.29636 433.05878 516.8986 437.35173 516.93359 445.51562 C 516.94115 447.38494 521.46263 451.3048 518.00391 457.08789 C 517.64183 457.69314 511.57853 457.84047 509.80469 455.15625 C 511.02941 459.33418 498.30581 467.04078 496.68945 461.79688 C 495.41927 457.6759 495.59496 452.26792 503.08398 447.22656 C 493.17474 445.25093 487.1925 459.56917 486.43164 458.27344 C 486.17652 457.83883 483.30877 457.7538 484.96484 453.10547 C 482.76414 456.12372 477.68994 459.33741 475.75781 455.60547 C 473.67155 451.57581 482.28537 446.52343 484.92578 444.97266 C 493.62047 439.86606 484.50407 434.00682 482.79297 433.42969 C 485.95946 435.42112 484.32176 444.12602 476.27148 438.03516 C 468.22117 431.94426 466.81557 434.56326 464.125 437.52539 C 461.43443 440.48748 460.54517 450.37266 452.59766 445.64258 C 452.41208 448.15184 451.87784 459.44373 446.43555 455.76172 C 440.99322 452.07967 448.92668 450.87556 443.69922 435.15234 C 437.36227 442.13733 429.88163 446.18017 431.17578 442.08789 C 432.46989 437.99561 427.67773 433.05469 427.67773 433.05469 C 427.67773 433.05469 426.96419 438.9731 424.96875 441.23242 C 422.42475 444.1128 418.17225 446.39601 415.57617 443.5625 C 412.79463 440.52652 417.48371 437.18592 419.64258 433.67969 C 420.21472 432.75053 427.06872 418.28841 411.11133 418.92383 C 406.8809 419.0924 400.23405 418.63094 401.96484 414.12695 C 403.03513 411.34182 413.27997 402.38912 404.38867 392.42969 z M 661.81055 474.11133 C 661.61968 474.11148 661.44581 474.16031 661.29883 474.28125 C 661.4621 474.20831 661.63408 474.1563 661.81055 474.11133 z M 164.39844 517.13281 C 164.36064 517.03039 164.32006 516.92627 164.30078 516.82422 C 164.29322 516.93685 164.33456 517.03832 164.39844 517.13281 z "
       transform="scale(0.26458333)"
       id="path828-1" />
    <path
       style="opacity:1;fill:url(#radialGradient26423-4-7);fill-opacity:1;stroke:none;stroke-width:1;stroke-linecap:butt;stroke-linejoin:miter;stroke-miterlimit:4;stroke-dasharray:none;stroke-opacity:1;filter:url(#filter588065)"
       d="m 104.76367,108.29688 c -1.78201,-0.73018 -4.53402,2.50435 -1.13672,1.91992 1.17683,0.41087 0.42379,-1.43531 1.13672,-1.91992 z m 3.1211,4.55273 c 1.72234,4.19564 -6.04379,4.38078 -3.09375,8.625 -2.21344,0.15055 -5.373273,-0.78418 -7.029301,-1.10742 -0.692271,3.73028 8.403411,0.0782 11.958461,1.409 1.9088,-0.77953 9.0351,2.09638 5.97709,-1.20783 0.71349,-2.51571 -1.93626,-0.76092 -3.18165,-1.34961 -3.44989,2.2381 -6.65093,-3.03863 -3.33789,-5.31641 1.06516,-1.40874 -0.41691,-1.02615 -1.29296,-1.05273 z m -35.339848,3.7207 c 2.452912,0.62594 -1.165374,4.89941 0.58789,3.5293 0.116455,-1.61274 2.906781,-3.96826 -0.380859,-3.91211 -0.263557,0.0888 -1.729321,-0.43896 -0.207031,0.38281 z m 51.582028,0.88867 c -1.00991,2.17773 -3.05823,3.00819 -4.23047,4.99219 2.46356,0.0438 11.54185,1.47079 10.55469,1.66797 -1.58883,-1.84124 -7.87188,-0.22706 -6.45508,-4.97656 0.4092,-0.78002 1.67272,-2.20243 0.13086,-1.6836 z m 15.45703,-0.22265 c -1.52488,0.73666 1.07784,4.02274 -1.24804,5.23828 -2.24387,0.28548 -3.88827,1.77976 -6.18164,2.17578 3.63181,0.44484 8.92707,3.25592 11.36914,2.82422 0.31239,-1.43366 -1.58354,-2.85639 -0.83789,-4.0625 -3.21402,-0.0156 -3.44982,-4.61986 -2.33985,-6.07813 -0.24379,-0.0829 -0.50443,-0.12428 -0.76172,-0.0977 z m -45.839839,3.2207 c -0.458963,2.36843 -3.327972,1.73577 -4.529297,2.6543 1.961123,-0.82389 8.060644,0.28907 4.529297,-2.6543 z m -12.853516,1.24609 c -0.400487,2.99815 -4.258362,2.74995 -5.738281,3.02344 -0.07036,1.68581 -4.555871,3.08013 -0.549642,1.72197 2.075426,-1.50551 9.073893,-0.90604 8.356282,-2.97978 -0.698695,-1.14146 -0.124126,-2.37013 -2.068359,-1.76563 z m 94.486325,5.51954 c 0.048,-2.80867 -1.42305,-4.08178 0,0 z m -7.09765,-0.86524 c -2.31144,0.64875 -2.48028,4.0218 -2.91211,5.71485 0.34293,2.06869 -0.64095,4.26177 -2.35352,5.44726 4.42529,2.26608 10.54202,8.18155 12.87695,9.56836 -0.067,-1.95605 0.20619,-2.91721 -1.70312,-3.9082 -1.54173,-0.78265 -4.7258,-1.34706 -4.19141,-4.30469 0.6344,-1.99067 1.29469,-3.42838 -0.38281,-5.11328 -1.02242,-1.89467 -0.98,-4.39389 0.53711,-5.49024 -0.69824,-0.49417 -0.88436,-1.96732 -1.87109,-1.91406 z M 41.451172,127.2168 c -1.39229,-0.076 -3.584253,2.87492 -0.791016,1.51758 1.617854,0.18029 1.66546,-1.19113 0.791016,-1.51758 z m 108.345708,0.20703 c -0.73534,1.46807 -3.55998,2.79612 0.0586,3.05078 -0.0118,-1.17536 1.16616,-2.6034 -0.0586,-3.05078 z m -78.281255,0.0215 c -1.343332,-0.16391 -2.144225,0.7939 0,0 z m -22.257813,1.83594 c -2.923317,0.66903 1.366736,4.42084 -1.804687,5.51758 0.01523,1.63757 0.338661,5.59567 2.454262,2.9929 1.109445,-2.05022 8.080406,-2.4925 4.498863,-4.73704 -3.306844,1.79621 -4.69786,-1.83536 -5.148438,-3.77344 z m 12.783204,1.54687 c -0.175832,0.79928 0.620572,0.0904 0,0 z m 92.916014,1.77149 c -0.7046,1.09493 2.41111,0.85425 0,0 z m 4.39063,2.67187 c 0.5131,-0.75268 -1.79941,-0.28084 0,0 z M 42.072266,137.2207 c 2.803068,-0.22609 5.114606,-2.6208 0,0 z m -4.919922,5.69532 c -1.897953,1.55939 -0.158708,3.66385 -0.775391,5.61914 0.63251,-1.70469 6.854569,-4.95694 5.503906,-5.58985 -1.286134,1.79068 -3.932981,1.00996 -4.728515,-0.0293 z m 145.230466,4.34765 c -0.47526,1.88697 -3.44026,2.64236 -4.17578,2.37891 4.44347,2.76908 5.91813,11.01607 11.5803,10.42942 1.81862,-0.85645 10.57695,1.39584 7.66775,-1.58567 -1.05433,-1.999 -0.93186,-2.96437 -3.2207,-1.57227 -2.18287,1.0044 -3.68295,-2.1169 -4.68946,-1.94922 -2.90176,1.64427 -3.86656,-2.07055 -6.21094,-2.76953 -1.8289,-1.88161 0.57544,-3.78147 -0.48046,-5.68554 z m -148.992185,4.14844 c -1.784313,0.14021 -2.706293,0.0352 -2.595703,2.13281 -0.628265,3.27834 -4.806162,2.8388 -6.251953,1.0957 -0.805005,5.07384 -7.225846,2.17849 -6.47461,-1.90039 -3.954937,2.60813 5.564292,6.02388 6.623686,8.879 2.738179,-1.32606 5.497649,-7.35521 8.692721,-10.14071 l 0.09766,-0.0957 z"
       id="path828-6-61"
       inkscape:connector-curvature="0" />
    <path
       style="opacity:1;fill:url(#radialGradient26423-4);fill-opacity:1;stroke:none;stroke-width:3.77952766;stroke-linecap:butt;stroke-linejoin:miter;stroke-miterlimit:4;stroke-dasharray:none;stroke-opacity:1;filter:url(#filter589211)"
       d="M 404.38867 392.42969 C 403.43812 393.51267 405.42569 396.00344 398.86719 399.75977 C 398.14568 400.17302 399.33911 401.41693 387.00977 403.31641 C 378.13438 404.68376 368.06465 426.21094 394.25977 423.98242 C 397.19582 423.7326 403.3767 428.19388 399.51172 433.73047 C 395.33372 439.71558 384.84266 440.56572 386.95508 450.61133 C 380.01908 450.05275 377.01953 449.42098 374.68359 447.79688 C 372.30865 444.72212 371.21145 442.15379 380.35742 436.98438 C 369.84946 436.10272 365.7267 443.53148 362.48047 452.10156 C 362.23631 450.82873 354.29172 442.19338 345.9082 443.2832 C 347.84294 443.66252 350.73029 447.92109 345.94141 454.62695 C 339.78667 458.07906 334.70284 455.1575 330.72266 450.03711 C 331.83883 455.62276 332.15326 457.46034 331.60742 458.76953 C 332.60662 463.15495 320.07284 466.84514 319.36523 461.08594 C 317.65916 447.20044 308.19127 457.16288 296.88867 447.1582 C 296.88867 447.1582 298.65621 450.52988 298.89062 453.07812 C 299.17409 456.16033 298.45771 459.76864 295.98242 461.62695 C 293.01999 463.85102 287.36934 464.04502 284.84961 461.30664 C 282.13614 458.35751 284.70898 452.0831 285 451.53711 C 286.46672 448.7855 293.46324 440.55412 285.75391 435.14062 C 278.06786 429.74353 271.89004 432.86497 269.73242 429.8418 C 268.3182 428.93244 269.28948 425.85981 270.35742 422.69922 C 270.35742 422.69922 262.04258 430.33486 261.80859 436.83984 C 261.67215 440.63483 266.67256 444.26636 269.47852 446.49609 C 270.92736 447.64745 264.38725 452.49635 264.01758 457.9668 C 263.90155 459.68334 268.1527 462.95877 273.38281 462.69727 C 278.61292 462.43572 276.97519 468.84383 276.59766 469.92969 C 276.31192 470.7509 270.7108 474.9553 266.78516 474.30469 C 262.13411 473.53382 257.27219 468.24638 253.48242 470.55469 C 254.55301 469.99653 260.39349 475.07325 258.83984 479.03711 C 257.54154 482.34953 255.94159 486.10337 252.85742 487.87695 C 249.05605 490.06296 244.06138 493.89707 239.73242 488.76953 C 237.20966 485.78144 236.39319 481.15836 238.67969 478.50781 C 242.65091 473.90431 241.88868 467.33997 241.12695 467.0293 C 242.02792 469.69031 239.69025 471.46172 237.99805 472.92969 C 233.122 477.15955 229.58656 480.74249 227.85742 483.05469 C 225.13166 486.69955 228.04601 493.65339 226.42773 496.00195 C 223.83781 499.76096 217.41056 502.36572 213.39258 500.19922 C 208.88012 497.76603 209.56641 481.68945 209.56641 481.68945 C 208.91614 481.27873 206.35294 493.05273 205.28125 494.28516 C 204.04705 495.70354 197.83762 498.48509 196.60742 495.73438 C 194.59346 491.23114 195.73268 476.65122 188.1582 479.55469 C 184.46111 480.97186 181.09928 482.66925 179.51562 483.46484 C 175.87809 485.29232 167.52333 486.07177 165.89258 482.3418 C 163.61057 477.12212 179.29454 471.13036 179.01758 466.89453 C 178.32883 456.3611 166.19855 460.56237 166.33594 462.62305 C 166.65871 461.85648 174.16877 461.99789 172.08984 466.9668 C 170.25061 471.36273 164.99089 471.3369 160.31055 472.23242 C 152.83404 473.66294 144.61415 475.75006 140.70117 485 C 138.98334 489.06069 143.73301 496.59542 149.10742 495.64453 C 153.33675 494.89626 161.60209 490.86519 173.03516 492.42969 C 176.25274 492.86996 173.69406 496.50618 173.91406 497.65039 C 174.34368 499.88417 178.07513 501.11143 176.21484 502.42969 C 174.49429 503.64896 171.00891 504.78902 168.01367 507.0293 C 169.83378 507.48431 172.99887 511.26469 172.07617 513.63672 C 170.38279 517.9899 165.14161 518.25907 164.39844 517.13281 C 165.22755 519.37619 170.37402 521.63259 172.5 521.7168 C 176.44447 521.87327 174.69289 531.4186 171.33984 533.50195 C 162.55437 538.96065 157.9257 526.37073 156.09766 522.48828 C 155.33854 524.93197 155.6097 535.58116 150.04688 536.82031 C 144.47423 538.06155 148.3209 524.65531 143.15625 523.28516 C 129.11485 519.56013 127.47065 531.9853 121.70312 525.93945 C 121.40873 527.37526 122.12528 529.69267 123.82422 530.16016 C 127.56708 531.19012 127.49837 531.40905 133.69922 531.57422 C 138.67455 531.70688 128.60422 543.80095 128.55078 545.22852 C 128.46234 547.58879 132.54378 558.13939 128.95508 562.00195 C 124.96477 566.29674 118.57265 565.98283 117.51562 564.65039 C 115.90081 562.61481 116.00844 554.38779 115.17773 547.78711 C 114.81074 544.87264 110.11186 539.06126 93.751953 549.94531 C 92.416495 550.83377 79.478722 559.44236 81.371094 544.89844 C 73.416058 566.34102 92.901924 562.40902 100.0332 554.58789 C 100.8983 553.63912 102.89116 554.24433 103.92773 555.04102 C 108.29358 558.39572 98.660956 563.11917 99.957031 566.57812 C 102.42208 573.15704 108.97566 572.98512 109.58008 572.05664 C 110.14202 571.19347 110.42773 582.27981 104.6875 582.3418 C 95.308602 582.44309 100.14944 564.09776 93.861328 568.26367 C 97.627287 567.31633 93.823542 576.53656 91.910156 576.63672 C 89.996544 576.73688 86.452583 566.60471 82.320312 571.44141 C 86.424728 570.82417 86.372322 581.68638 84.539062 585.84961 C 83.844917 587.42605 78.426718 590.49385 77.515625 582.29688 C 74.852834 558.34094 58.632828 574.30173 55.714844 578.14453 C 54.344047 579.94982 51.432681 580.27852 49.001953 579.23242 C 52.522092 584.0322 55.052481 584.58319 57.646484 587.5957 L 61.769531 591.48242 L 120.28906 591.48242 A 338.19439 272.48899 0 0 1 403.05078 467.34375 A 338.19439 272.48899 0 0 1 686.39844 591.48242 L 750.49023 591.48242 C 749.56831 589.42454 750.22119 588.36234 753.74414 589.30469 C 755.9323 589.88999 767.49588 580.18755 758.57812 570.84766 C 759.46715 576.10177 752.3804 576.22925 747.96289 576.57617 C 742.75716 576.98504 734.81594 590.11359 726.98438 584.32422 C 724.34619 582.37398 725.27449 568.62302 736.52539 566.75586 C 727.42531 556.61448 718.69972 578.89954 710.53125 579.78516 C 708.48509 580.00701 706.72582 574.23481 713.00781 570.97852 C 706.29598 572.69741 699.03862 573.45124 697.73438 568.5332 C 697.04809 565.94551 698.87032 564.94734 707.89062 558.82031 C 702.16233 558.6079 693.80248 555.56861 702.14844 550.44531 C 703.99746 549.31028 710.39623 557.27177 714.0957 556.33789 C 722.50625 554.21474 717.56519 546.83962 725.05859 538.12891 C 718.20744 537.9747 718.29489 545.25515 710.20508 546.625 C 703.11196 547.8261 705.81041 536.28118 695.60156 538.46484 C 687.04483 540.29512 682.28193 558.59243 676.86133 558.07422 C 672.45395 557.65284 671.36935 552.68343 671.73438 550.39258 C 672.38064 546.33624 675.52777 543.4855 683.95898 538.98242 C 670.12376 537.44514 666.69859 542.14304 663.41406 534.7832 C 662.94408 533.73011 675.84122 530.6045 674.99805 529.83008 C 674.02471 528.93607 680.28244 526.87358 679.88672 515.83203 C 676.92206 521.6259 677.35718 523.56408 673.47266 523.67773 C 669.44032 523.79566 670.12118 515.9056 666.58203 516.5293 C 659.87061 517.71202 660.61777 528.67728 659.08789 529.86133 C 656.6942 531.71386 650.29372 533.98213 650.05273 525.30664 C 649.97979 522.68618 653.42238 517.62032 653.58203 515.06445 C 653.99827 508.4016 650.71422 507.91837 649.52344 506 C 647.47172 502.69473 646.70204 496.21515 645.57812 494.82031 C 643.95315 492.80348 651.53623 489.2117 653.88672 491.50977 C 657.35118 494.89702 659.61677 499.79905 666.66797 498.29102 C 674.9406 496.52174 673.62898 488.03544 673.62891 486.45703 C 673.62868 479.72127 665.98817 473.05249 661.81055 474.11133 C 664.2627 474.10932 669.68788 483.41564 661.68359 485.71484 C 657.76849 486.83944 650.35316 483.31379 646.20898 476.35938 C 641.48121 468.42562 635.07896 468.8602 628.96875 472.28906 C 620.5765 476.99858 621.36201 486.21776 620.0625 488.33203 C 618.57405 490.7538 621.10839 491.22126 611.4043 492.03711 C 617.63916 499.11817 617.5898 499.00431 617.67578 502.79102 C 617.80806 508.60933 611.69179 515.22339 610.12109 513.62695 C 608.86293 512.34815 611.87347 506.82246 607.53125 499.16797 C 599.66016 507.9545 589.22232 496.28961 593.52539 490.20117 C 595.24096 487.77377 599.90726 487.76384 607 484.83398 C 599.09534 483.43688 599.73076 477.7818 595.35547 478.67773 C 586.80833 480.42792 588.65127 489.57427 586.25195 491.64844 C 583.1086 494.36577 576.98279 497.61781 574.91406 496.10547 C 573.25054 494.88933 572.40793 488.28141 583.57031 481.19336 C 576.18716 478.80844 576.83604 481.39972 574.90039 480.36133 C 571.7565 478.67471 577.32968 474.13259 573.08984 460.47266 C 567.11588 471.79125 565.12399 467.89271 562.85352 472.30273 C 557.52688 482.649 551.25884 487.52296 550.51953 484.59375 C 549.42056 480.23939 549.45819 480.21141 556.94336 468.64258 C 553.15416 473.0387 543.48771 472.52429 547.29102 469.57422 C 552.72998 465.35543 552.71674 453.61313 550.52344 450.56445 C 550.79481 456.27672 539.49679 460.36092 537.83398 458.38672 C 536.12239 456.35462 534.86879 453.55508 535.49219 451.50586 C 536.93143 446.77491 544.832 446.91091 548.78516 437.98828 C 551.20772 432.52033 547.6504 431.80267 535.63672 428.42188 C 541.63056 433.55331 540.92884 440.01159 534.49219 436.95312 C 526.29636 433.05881 516.8986 437.35176 516.93359 445.51562 C 516.94115 447.38494 521.46263 451.3048 518.00391 457.08789 C 517.64183 457.69314 511.5785 457.84047 509.80469 455.15625 C 511.02937 459.33418 498.30581 467.04075 496.68945 461.79688 C 495.41927 457.6759 495.59496 452.26796 503.08398 447.22656 C 493.17474 445.25097 487.1925 459.56917 486.43164 458.27344 C 486.17652 457.83887 483.30877 457.7538 484.96484 453.10547 C 482.76414 456.12372 477.68994 459.33741 475.75781 455.60547 C 473.67155 451.57585 482.28537 446.52343 484.92578 444.97266 C 493.62043 439.86602 484.50407 434.00686 482.79297 433.42969 C 485.95942 435.42112 484.32176 444.12605 476.27148 438.03516 C 468.22117 431.94426 466.81557 434.56326 464.125 437.52539 C 461.43443 440.48748 460.54521 450.37266 452.59766 445.64258 C 452.41208 448.15181 451.87784 459.44377 446.43555 455.76172 C 440.99322 452.0797 448.92668 450.87556 443.69922 435.15234 C 437.36227 442.13733 429.88163 446.18017 431.17578 442.08789 C 432.46989 437.99561 427.67773 433.05469 427.67773 433.05469 C 427.67773 433.05469 426.96423 438.9731 424.96875 441.23242 C 422.42471 444.11284 418.17222 446.39605 415.57617 443.5625 C 412.79459 440.52652 417.48371 437.18588 419.64258 433.67969 C 420.21472 432.75049 427.06872 418.28845 411.11133 418.92383 C 406.8809 419.0924 400.23405 418.6309 401.96484 414.12695 C 403.03513 411.34178 413.27997 402.38912 404.38867 392.42969 z M 661.81055 474.11133 C 661.61968 474.11148 661.44581 474.16031 661.29883 474.28125 C 661.4621 474.20831 661.63408 474.1563 661.81055 474.11133 z M 164.39844 517.13281 C 164.36064 517.03039 164.31968 516.92664 164.30078 516.82422 C 164.29322 516.93685 164.33494 517.03795 164.39844 517.13281 z "
       transform="scale(0.26458333)"
       id="path828-6" />
    <path
       style="opacity:1;fill:url(#radialGradient26423-4-4);fill-opacity:1;stroke:none;stroke-width:1;stroke-linecap:butt;stroke-linejoin:miter;stroke-miterlimit:4;stroke-dasharray:none;stroke-opacity:1;filter:url(#filter587726)"
       d="m 106.30049,121.78844 a 89.480598,72.096044 0 0 0 -39.917456,7.6016 c -0.44522,0.26242 -0.927055,0.51991 -1.416968,0.58653 a 89.480598,72.096044 0 0 0 -40.23837,34.42426 l 0.930693,0.87746 a 89.480598,72.096044 0 0 1 80.982151,-41.62691 89.480598,72.096044 0 0 1 79.14968,38.55681 c 0.28897,-0.009 0.52564,-0.018 0.81078,-0.0274 a 89.480598,72.096044 0 0 0 -80.30051,-40.39237 z"
       id="path828-6-6"
       inkscape:connector-curvature="0" />
    <ellipse
       style="opacity:0;fill:#e70000;fill-opacity:1;stroke:url(#radialGradient26306);stroke-width:1.82214177;stroke-miterlimit:4;stroke-dasharray:none;stroke-opacity:1;filter:url(#filter26154)"
       id="path22633"
       cx="107.10826"
       cy="183.81137"
       rx="80.59832"
       ry="59.737938"
       transform="matrix(1.0068139,0,0,0.99277742,9.2794216,45.153113)" />
    <path
       style="opacity:0;fill:url(#radialGradient26342-6);fill-opacity:1;stroke:none;stroke-width:2.46527314;stroke-miterlimit:4;stroke-dasharray:none;stroke-opacity:1"
       d="m 398.71094,153 c -33.6055,0.37742 -69.2876,16.51082 -84.89844,47.56445 -14.25911,26.38808 -5.15785,61.15911 17.5918,79.78516 40.68746,35.80418 110.20374,32.77398 146.22265,-8.27734 17.49716,-20.24354 21.81487,-51.68286 7.54623,-74.86342 C 468.10845,167.20583 432.07544,152.53568 398.71094,153 Z"
       id="path26312-7"
       inkscape:connector-curvature="0" />
    <ellipse
       style="opacity:1;fill:none;fill-opacity:1;stroke:#fdf0e7;stroke-width:0.35277778;stroke-miterlimit:4;stroke-dasharray:none;stroke-opacity:1;filter:url(#filter587770)"
       id="path26312-8"
       cx="106.64055"
       cy="195.74767"
       rx="89.480598"
       ry="72.096046" />
    <path
       style="opacity:1;fill:url(#radialGradient588295);fill-opacity:1;stroke:none;stroke-width:9.31756783;stroke-miterlimit:4;stroke-dasharray:none;stroke-opacity:1"
       d="M 403.05078 467.34375 A 338.19439 272.48899 0 0 0 119.73633 591.48242 L 686.63281 591.48242 A 338.19439 272.48899 0 0 0 403.05078 467.34375 z "
       transform="scale(0.26458333)"
       id="path26312" />
    <path
       style="opacity:1;fill:url(#radialGradient26423-4-4-9);fill-opacity:1;stroke:none;stroke-width:3.77952766;stroke-linecap:butt;stroke-linejoin:miter;stroke-miterlimit:4;stroke-dasharray:none;stroke-opacity:1;filter:url(#filter589223)"
       d="M 401.76562 460.30273 A 338.19439 272.48899 0 0 0 250.89648 489.0332 C 249.21376 490.02503 247.39264 490.99821 245.54102 491.25 A 338.19439 272.48899 0 0 0 113.40234 591.48242 L 120.28906 591.48242 A 338.19439 272.48899 0 0 1 403.05078 467.34375 A 338.19439 272.48899 0 0 1 686.39844 591.48242 L 690.51172 591.48242 A 338.19439 272.48899 0 0 0 401.76562 460.30273 z "
       transform="scale(0.26458333)"
       id="path828-6-6-6" />
    <path
       style="opacity:1;fill:#ffffff;fill-opacity:1;stroke:none;stroke-width:3.77952766;stroke-miterlimit:4;stroke-dasharray:none;stroke-opacity:1"
       d="M 32.5 358.49023 L 32.5 591.48242 L 61.769531 591.48242 L 57.646484 587.5957 C 55.052443 584.58319 52.522054 584.0322 49.001953 579.23242 C 51.432643 580.27852 54.343971 579.94975 55.714844 578.14453 C 58.632828 574.30166 74.852797 558.34091 77.515625 582.29688 C 78.426756 590.49382 83.844916 587.42605 84.539062 585.84961 C 86.372285 581.68638 86.424728 570.82413 82.320312 571.44141 C 86.452583 566.60467 89.996544 576.73688 91.910156 576.63672 C 93.823542 576.53656 97.627287 567.31633 93.861328 568.26367 C 100.14944 564.09776 95.308602 582.44309 104.6875 582.3418 C 110.42773 582.27981 110.14202 571.19351 109.58008 572.05664 C 108.97562 572.98516 102.42208 573.15704 99.957031 566.57812 C 98.660956 563.1192 108.29358 558.39569 103.92773 555.04102 C 102.89116 554.24467 100.89834 553.63915 100.0332 554.58789 C 92.901963 562.40906 73.416058 566.34102 81.371094 544.89844 C 79.478722 559.44236 92.416495 550.8338 93.751953 549.94531 C 110.11186 539.06129 114.81117 544.8726 115.17773 547.78711 C 116.00847 554.38779 115.9008 562.61481 117.51562 564.65039 C 118.57266 565.98286 124.96477 566.29674 128.95508 562.00195 C 132.54378 558.13939 128.46234 547.58879 128.55078 545.22852 C 128.60407 543.80095 138.67455 531.70688 133.69922 531.57422 C 127.49837 531.40905 127.56708 531.19012 123.82422 530.16016 C 122.12528 529.69267 121.40877 527.37533 121.70312 525.93945 C 127.47068 531.98537 129.11493 519.56013 143.15625 523.28516 C 148.32094 524.65531 144.47423 538.06155 150.04688 536.82031 C 155.60971 535.58116 155.33853 524.93197 156.09766 522.48828 C 157.9257 526.37073 162.55437 538.96061 171.33984 533.50195 C 174.69289 531.41856 176.44447 521.87327 172.5 521.7168 C 170.37402 521.63251 165.22754 519.37619 164.39844 517.13281 C 164.33456 517.03832 164.29322 516.93685 164.30078 516.82422 C 164.31968 516.92627 164.36064 517.03114 164.39844 517.13281 C 165.14164 518.25907 170.38279 517.98987 172.07617 513.63672 C 172.99887 511.26469 169.83378 507.48431 168.01367 507.0293 C 171.00891 504.78902 174.49429 503.64896 176.21484 502.42969 C 178.07513 501.11143 174.34364 499.88417 173.91406 497.65039 C 173.69409 496.50618 176.25271 492.86996 173.03516 492.42969 C 161.60209 490.86519 153.33675 494.89626 149.10742 495.64453 C 143.73301 496.59542 138.98334 489.06069 140.70117 485 C 144.61415 475.75006 152.83404 473.66294 160.31055 472.23242 C 164.99089 471.3369 170.25061 471.36273 172.08984 466.9668 C 174.16877 461.99789 166.65871 461.85648 166.33594 462.62305 C 166.19836 460.56237 178.32883 456.3611 179.01758 466.89453 C 179.29462 471.13036 163.61054 477.12212 165.89258 482.3418 C 167.52329 486.07177 175.87808 485.29232 179.51562 483.46484 C 181.09928 482.66925 184.46111 480.97186 188.1582 479.55469 C 195.73268 476.65122 194.59346 491.23111 196.60742 495.73438 C 197.83762 498.4851 204.04708 495.70414 205.28125 494.28516 C 206.35297 493.05273 208.91613 481.27873 209.56641 481.68945 C 209.56641 481.68945 208.88012 497.76603 213.39258 500.19922 C 217.41056 502.36576 223.83781 499.76096 226.42773 496.00195 C 228.04601 493.65343 225.13166 486.69955 227.85742 483.05469 C 229.58656 480.74249 233.122 477.15955 237.99805 472.92969 C 239.69025 471.46168 242.02789 469.69031 241.12695 467.0293 C 241.88865 467.33997 242.65095 473.90431 238.67969 478.50781 C 236.39319 481.15836 237.20966 485.78144 239.73242 488.76953 C 244.06138 493.8971 249.05605 490.06296 252.85742 487.87695 C 255.94163 486.10337 257.54161 482.34956 258.83984 479.03711 C 260.39349 475.07322 254.55301 469.99653 253.48242 470.55469 C 257.27219 468.24638 262.13411 473.53385 266.78516 474.30469 C 270.7108 474.95533 276.3123 470.75087 276.59766 469.92969 C 276.97523 468.84379 278.61292 462.43572 273.38281 462.69727 C 268.1527 462.95881 263.90155 459.68334 264.01758 457.9668 C 264.38722 452.49635 270.92736 447.64745 269.47852 446.49609 C 266.67256 444.26636 261.67215 440.63483 261.80859 436.83984 C 262.04255 430.33486 270.35742 422.69922 270.35742 422.69922 C 269.28948 425.85981 268.3182 428.93248 269.73242 429.8418 C 271.89004 432.865 278.06782 429.74356 285.75391 435.14062 C 293.4632 440.55416 286.46672 448.78546 285 451.53711 C 284.70898 452.08306 282.13617 458.35751 284.84961 461.30664 C 287.36934 464.04502 293.02003 463.85102 295.98242 461.62695 C 298.45771 459.76864 299.17451 456.16033 298.89062 453.07812 C 298.65631 450.52991 296.88867 447.1582 296.88867 447.1582 C 308.19131 457.16288 317.65919 447.20052 319.36523 461.08594 C 320.07291 466.84511 332.60665 463.15495 331.60742 458.76953 C 332.15326 457.46034 331.83869 455.62276 330.72266 450.03711 C 334.70284 455.1575 339.78663 458.07902 345.94141 454.62695 C 350.73026 447.92105 347.84376 443.66252 345.9082 443.2832 C 354.29169 442.19341 362.23631 450.82873 362.48047 452.10156 C 365.7267 443.53148 369.84949 436.10265 380.35742 436.98438 C 371.21148 442.15377 372.30866 444.72212 374.68359 447.79688 C 377.01957 449.42099 380.01904 450.05279 386.95508 450.61133 C 384.84259 440.56576 395.33368 439.71554 399.51172 433.73047 C 403.3767 428.19384 397.19582 423.73263 394.25977 423.98242 C 368.06467 426.21091 378.13438 404.68376 387.00977 403.31641 C 399.33908 401.41693 398.14568 400.17298 398.86719 399.75977 C 405.42569 396.00344 403.43812 393.51264 404.38867 392.42969 C 413.27993 402.38912 403.03513 411.34182 401.96484 414.12695 C 400.23401 418.63094 406.88094 419.09243 411.11133 418.92383 C 427.06876 418.28841 420.21469 432.75053 419.64258 433.67969 C 417.48367 437.18592 412.79463 440.52652 415.57617 443.5625 C 418.17225 446.39601 422.42475 444.1128 424.96875 441.23242 C 426.96419 438.9731 427.67773 433.05469 427.67773 433.05469 C 427.67773 433.05469 432.46989 437.99561 431.17578 442.08789 C 429.88163 446.18017 437.36227 442.1374 443.69922 435.15234 C 448.92665 450.87556 440.99322 452.07967 446.43555 455.76172 C 451.87784 459.4437 452.41204 448.15184 452.59766 445.64258 C 460.54513 450.37266 461.43443 440.48748 464.125 437.52539 C 466.81557 434.56326 468.2212 431.94426 476.27148 438.03516 C 484.32176 444.12602 485.95946 435.42112 482.79297 433.42969 C 484.50407 434.00682 493.62047 439.86606 484.92578 444.97266 C 482.28537 446.52343 473.67159 451.57577 475.75781 455.60547 C 477.68994 459.33737 482.76418 456.12372 484.96484 453.10547 C 483.30881 457.7538 486.17648 457.83883 486.43164 458.27344 C 487.1925 459.56914 493.17474 445.25093 503.08398 447.22656 C 495.59496 452.26792 495.41927 457.67587 496.68945 461.79688 C 498.30581 467.04072 511.02944 459.33418 509.80469 455.15625 C 511.57853 457.84047 517.64183 457.69314 518.00391 457.08789 C 521.46263 451.3048 516.94115 447.38494 516.93359 445.51562 C 516.89958 437.35175 526.29636 433.05883 534.49219 436.95312 C 540.92884 440.01159 541.63056 433.55332 535.63672 428.42188 C 547.6504 431.80272 551.20772 432.52033 548.78516 437.98828 C 544.832 446.91095 536.93139 446.77487 535.49219 451.50586 C 534.86875 453.55504 536.12243 456.35466 537.83398 458.38672 C 539.49683 460.36095 550.79481 456.27668 550.52344 450.56445 C 552.71674 453.6131 552.72998 465.35543 547.29102 469.57422 C 543.48771 472.52429 553.15419 473.0387 556.94336 468.64258 C 549.45819 480.21141 549.42056 480.23939 550.51953 484.59375 C 551.25884 487.52296 557.52688 482.649 562.85352 472.30273 C 565.12399 467.89274 567.11588 471.79125 573.08984 460.47266 C 577.32968 474.13259 571.7565 478.67475 574.90039 480.36133 C 576.83604 481.39975 576.18719 478.8084 583.57031 481.19336 C 572.40797 488.28137 573.25054 494.88933 574.91406 496.10547 C 576.98279 497.61785 583.1086 494.36577 586.25195 491.64844 C 588.65127 489.57427 586.80833 480.42792 595.35547 478.67773 C 599.73076 477.7818 599.09534 483.43692 607 484.83398 C 599.90726 487.76387 595.24096 487.77381 593.52539 490.20117 C 589.22232 496.28961 599.66016 507.9545 607.53125 499.16797 C 611.87347 506.82242 608.86293 512.34819 610.12109 513.62695 C 611.69179 515.22339 617.80769 508.6093 617.67578 502.79102 C 617.58961 499.00427 617.63799 499.11817 611.4043 492.03711 C 621.10842 491.2213 618.57405 490.75376 620.0625 488.33203 C 621.36201 486.21776 620.5765 476.99854 628.96875 472.28906 C 635.07896 468.86016 641.48121 468.42558 646.20898 476.35938 C 650.35316 483.31376 657.76849 486.83948 661.68359 485.71484 C 669.68788 483.41564 664.26263 474.10932 661.81055 474.11133 C 661.63404 474.1563 661.46207 474.20831 661.29883 474.28125 C 661.44585 474.16031 661.61972 474.11171 661.81055 474.11133 C 665.98817 473.05253 673.62868 479.72123 673.62891 486.45703 C 673.62898 488.03544 674.9406 496.52178 666.66797 498.29102 C 659.61677 499.79905 657.35118 494.89698 653.88672 491.50977 C 651.53623 489.21166 643.95314 492.80352 645.57812 494.82031 C 646.70204 496.21515 647.47172 502.69473 649.52344 506 C 650.71422 507.91834 653.99827 508.4016 653.58203 515.06445 C 653.42254 517.62036 649.97979 522.68622 650.05273 525.30664 C 650.29387 533.98213 656.6942 531.71383 659.08789 529.86133 C 660.61781 528.6772 659.87061 517.71199 666.58203 516.5293 C 670.12118 515.90556 669.44032 523.79566 673.47266 523.67773 C 677.35718 523.56397 676.92206 521.62593 679.88672 515.83203 C 680.28247 526.87362 674.02471 528.93607 674.99805 529.83008 C 675.84126 530.60454 662.94412 533.73011 663.41406 534.7832 C 666.69862 542.14304 670.1238 537.44514 683.95898 538.98242 C 675.5278 543.48546 672.38065 546.3362 671.73438 550.39258 C 671.36927 552.68339 672.45395 557.65288 676.86133 558.07422 C 682.28193 558.59243 687.04483 540.29512 695.60156 538.46484 C 705.81041 536.28118 703.11196 547.8261 710.20508 546.625 C 718.29489 545.25511 718.20744 537.9747 725.05859 538.12891 C 717.56519 546.83966 722.50625 554.21474 714.0957 556.33789 C 710.39623 557.27177 703.99746 549.31028 702.14844 550.44531 C 693.80245 555.56861 702.16356 558.6079 707.89062 558.82031 C 698.87031 564.94734 697.04809 565.94555 697.73438 568.5332 C 699.03863 573.45128 706.29598 572.69744 713.00781 570.97852 C 706.72582 574.23481 708.48509 580.00701 710.53125 579.78516 C 718.69972 578.89958 727.42531 556.6144 736.52539 566.75586 C 725.27449 568.62302 724.34619 582.37398 726.98438 584.32422 C 734.81595 590.11359 742.75712 576.98504 747.96289 576.57617 C 752.38036 576.22921 759.46718 576.10177 758.57812 570.84766 C 767.49588 580.18755 755.9323 589.88999 753.74414 589.30469 C 750.22117 588.36234 749.56829 589.42451 750.49023 591.48242 L 778 591.48242 L 778 358.49023 L 32.5 358.49023 z "
       transform="scale(0.26458333)"
       id="rect26690" />
    <rect
       style="opacity:0;fill:#ffffff;fill-opacity:1;stroke:#fdf0e7;stroke-width:0.35277778;stroke-miterlimit:4;stroke-dasharray:none;stroke-opacity:1"
       id="rect587787"
       width="251.44716"
       height="107.76308"
       x="28.437477"
       y="117.76905" />
    <rect
       style="opacity:1;fill:#ffffff;fill-opacity:1;stroke:none;stroke-width:0.30439755;stroke-miterlimit:4;stroke-dasharray:none;stroke-opacity:1"
       id="rect26783-9"
       width="197.24687"
       height="11.635181"
       x="8.598958"
       y="156.49638" />
  </g>
</svg>
