<?xml version="1.0" encoding="UTF-8" standalone="no"?>
<svg
   xmlns:dc="http://purl.org/dc/elements/1.1/"
   xmlns:cc="http://creativecommons.org/ns#"
   xmlns:rdf="http://www.w3.org/1999/02/22-rdf-syntax-ns#"
   xmlns:svg="http://www.w3.org/2000/svg"
   xmlns="http://www.w3.org/2000/svg"
   xmlns:xlink="http://www.w3.org/1999/xlink"
   xmlns:sodipodi="http://sodipodi.sourceforge.net/DTD/sodipodi-0.dtd"
   xmlns:inkscape="http://www.inkscape.org/namespaces/inkscape"
   version="1.1"
   id="layer"
   x="0px"
   y="0px"
   viewBox="0 0 652 652"
   style="enable-background:new 0 0 652 652;"
   xml:space="preserve"
   sodipodi:docname="d20-system.svg"
   inkscape:version="1.0.2 (e86c870879, 2021-01-15)"><metadata
   id="metadata61"><rdf:RDF><cc:Work
       rdf:about=""><dc:format>image/svg+xml</dc:format><dc:type
         rdf:resource="http://purl.org/dc/dcmitype/StillImage" /><dc:title></dc:title></cc:Work></rdf:RDF></metadata><defs
   id="defs59" /><sodipodi:namedview
   pagecolor="#ffffff"
   bordercolor="#666666"
   borderopacity="1"
   objecttolerance="10"
   gridtolerance="10"
   guidetolerance="10"
   inkscape:pageopacity="0"
   inkscape:pageshadow="2"
   inkscape:window-width="1080"
   inkscape:window-height="463"
   id="namedview57"
   showgrid="false"
   inkscape:zoom="0.56441718"
   inkscape:cx="326"
   inkscape:cy="326"
   inkscape:window-x="0"
   inkscape:window-y="976"
   inkscape:window-maximized="1"
   inkscape:current-layer="layer" />
<style
   type="text/css"
   id="style2">
	.st0{clip-path:url(#SVGID_2_);}
	.st1{clip-path:url(#SVGID_4_);}
	.st2{clip-path:url(#SVGID_6_);fill:#FFFFFF;}
	.st3{clip-path:url(#SVGID_6_);fill:#272425;}
	.st4{clip-path:url(#SVGID_6_);fill:#CC1A33;}
</style>
<g
   id="g54">
	<defs
   id="defs5">
		<polyline
   id="SVGID_1_"
   points="42.3,76 42.3,576 609.6,576 609.6,76 42.3,76   " />
	</defs>
	<clipPath
   id="SVGID_2_">
		<use
   xlink:href="#SVGID_1_"
   style="overflow:visible;"
   id="use7" />
	</clipPath>
	<g
   class="st0"
   clip-path="url(#SVGID_2_)"
   id="g52">
		<defs
   id="defs11">
			<rect
   id="SVGID_3_"
   x="42.2"
   y="76.1"
   width="567.5"
   height="500" />
		</defs>
		<clipPath
   id="SVGID_4_">
			<use
   xlink:href="#SVGID_3_"
   style="overflow:visible;"
   id="use13" />
		</clipPath>
		<g
   class="st1"
   clip-path="url(#SVGID_4_)"
   id="g50">
			<defs
   id="defs17">
				<rect
   id="SVGID_5_"
   x="26.8"
   y="68.9"
   width="589.4"
   height="509.8" />
			</defs>
			<clipPath
   id="SVGID_6_">
				<use
   xlink:href="#SVGID_5_"
   style="overflow:visible;"
   id="use19" />
			</clipPath>
			<rect
   x="54.7"
   y="90.1"
   class="st2"
   width="537"
   height="455.4"
   clip-path="url(#SVGID_6_)"
   id="rect22" />
			<path
   class="st3"
   d="M42.2,76v500h567.5V76H42.2z M579.1,106.6c0,27.5,0,390.5,0,418c-28.1,0-478.3,0-506.3,0     c0-27.5,0-390.5,0-418C100.9,106.6,551.1,106.6,579.1,106.6z"
   clip-path="url(#SVGID_6_)"
   id="path24" />
			<polygon
   class="st4"
   points="595.5,526.8 60.5,543.2 55.9,394.2 591,377.8    "
   clip-path="url(#SVGID_6_)"
   id="polygon26" />
			<path
   class="st3"
   d="M159.4,101.4c3,0-1.2-3.6,7.5,0h5.7h43.5l-3.9,3.6c25.5-10.5,20.1-3.3,30.3-7.5h5.7l-1.8,3.9     c-2.1-0.3-3.6,0-5.7,0c-22.2,0-26.4,36.6-26.4,43.5c0,5.4,0,0.9,0,13.2c0,22.2,0,24.9,0,26.7c0,7.8,0,10.2,0,18.9     c0,2.1,0,3.6,0,5.7c0,1.5,0,3.6,0,7.5c0,22.5-8.7,10.8-13.5,30.3l13.5-13.2c5.7,17.7,0,15,0,17.1c0,0,0-3.6,0,7.5     c0,2.1,0,3.6,0,5.7c0,7.2,0,11.7,0,18.9c0,5.1,1.2,8.4,0,15.3h-5.7l3.6,3.6l3.9,2.1c-0.6,6.9,0,7.5,0,20.7     c0,12.9-6.6,9.6-9.6,22.8l7.8-7.5c3,8.7,5.7,13.5,5.7,22.5c0,1.2,6.9,7.8,20.7,7.8l5.7,5.7H235l-1.2-3.3c-2.4,1.2-12,3.3-12,3.3     s-0.3-3.3-7.5,0l-5.7-5.7c-15.6,9.3-12.6,0-13.2,0c-2.7,0-5.7,3.6-5.7,3.6c-6,0-12.3,0-13.5,0c-1.8,0-6.6,0-9.3,0     c-2.1,0-3.6,0-5.7,0c-0.3,0,0,5.7-22.8,5.7c-15.6,0-46.5-14.4-60.6-51l15-15.3c3.9,11.4,8.4,12.3,5.7,22.8v5.7     c18.9,0,8.7,4.2,24.6,12.3c0,0-3,3-3.6,6.6c8.4-2.1,68.1,2.1,68.1-68.1c0,0-5.7-23.1-11.4-34.2l11.4-11.4l2.1-3.9h-3.9     l-11.4,11.4l-3.9-3.6c3-3,4.2-5.7,5.7-9.6l-7.5,7.5c-3.6-2.4-5.1-5.7-9.3-5.7c-0.3,0-8.7-7.5-19.2-7.5c-5.7,0-9.3,0-15,0     c0,0-16.5,14.1-17.1,17.1c-6.3,1.2-9.3,4.5-13.2,9.6c1.5,1.2,3.6,0.3,5.7,0.9c-15.9,19.5,5.1,34.8-23.7,59.7     c-8.1-19.5-0.9-19.8-0.9-21c0-6.6,0-10.5,0-17.1c0-17.1-0.3-16.8,15-32.1c-4.5-3.9-5.7,0-5.7,0c6.3-12,19.2-25.5,34.2-30.3     L108,234.1l3.9,1.8c12-7.2,12-15,22.5-15c3,0,4.8,0,7.8,0c2.7,0,7.5,0,22.5,0c0.3,0,3.6,5.1,20.1,15c3.3-21.3,0.9-10.8,0.9-30.3     c0-9.3,0-15.3,0-24.6c0-12.6,1.8-22.8,1.8-22.8c0.9-9.6,2.1-7.5,2.1-7.5c0-2.1-5.7,2.1-5.7,0c0-5.7,0-9.6,0-15.3     c0-2.1,1.8-3.6,1.8-5.7c0-22.5-15.9-16.8-23.7-24.6h-0.9L159.4,101.4z M190.3,197.9h-5.7c1.5,2.1,0.9,4.5,0,5.7h5.7     C187.9,200,187.9,201.8,190.3,197.9z M80.5,235.7c-1.5,2.4-2.7,3.9-4.8,5.7c4.2-1.8,1.2-0.9,8.7-3.9     C82.9,236.9,81.7,236.3,80.5,235.7z M171.4,252.8c1.2,2.7,0.9,4.5-0.6,7.5c2.1-1.8,4.5-3.3,6.3-7.5H171.4z M177.1,290.7     c3.9,5.7,5.4-0.9,0,5.7h5.7c-0.9-2.7-0.3-3,2.4-3c0,0,0-0.3,4.2-4.5C185.2,290.7,181.6,291.6,177.1,290.7z"
   clip-path="url(#SVGID_6_)"
   id="path28" />
			<path
   class="st3"
   d="M377.6,374.1c-6.9,0-17.1-2.1-22.5-7.5l-7.8,7.5c-1.2-0.3-51-3.9-108-1.8l66.3-77.7     c23.4-27.3,39.6-58.8,43.8-58.8l16.8-36c0-4.2,0-7.8,0-7.8s-7.5-28.8-7.5-37.8c0-2.1-0.6-4.2,0-7.5c-3-0.9-3.3,0-5.7,0     c-1.2,0-14.1-21-28.2-21c-0.9,0-8.4-8.7-19.2,0v-7.5c-4.2,3-7.2,4.2-13.2,7.5v-5.7c-59.4,40.5-29.1,36-49.2,53.1     c5.1-41.4,39-72,62.4-72c3.9,0,8.1,0.3,15.3,0v-5.7l-1.8,5.7h7.5c2.7-5.4,0-5.7,0-5.7h5.7c2.1,4.8,26.4,9.6,26.4,9.6l5.7,5.7     c0.9,1.8,0-4.8,1.8-5.7v7.5c-7.5,7.5-12,10.5-18.9,18.9h5.7c6.9-4.8,6.6-6.6,17.1-17.1c3.3,3.9,5.1,7.2,9.6,9.6l-5.7,5.7     c2.7,0.3,4.8-1.5,7.5-1.8c1.5,8.7,4.5,5.4,5.7,11.4l-5.7,1.8c0,0,7.5-2.7,7.5,9.3c0,54.3-0.9,22.8-5.7,49.5l5.7,1.8     c0,0-3.9,6.3-26.4,37.8c-28.8,40.5-28.5,31.2-28.5,38.1c0,1.5-36,32.4-36,39.6c0,1.5-7.2,5.1-24.6,26.7     c15.3,8.1,71.4,1.8,108,1.8c0.3,0,22.8-7.5,22.8-28.5h5.7c-6.9,17.7,0,12.6,0,15.3C410,332.4,390.5,374.1,377.6,374.1z"
   clip-path="url(#SVGID_6_)"
   id="path30" />
			<path
   class="st3"
   d="M541.2,109.4c-15-1.5-12.9-4.5-21-1.8V98c10.8,2.4,13.5,0,13.5,0s9.3,7.8,13.2,11.4H541.2z M550.5,145.4     c0,0-1.8-6.3-1.8-13.2c0-3.6-1.8-6-1.8-9.6c0-2.1-5.7,2.1-5.7,0c0-13.2,12.3-7.5,13.2-7.5c0,0,0,1.5,5.7,3.9l-5.7,5.7     c4.2-0.3,7.2-0.3,11.4,0c0,1.5,0,3.6,0,7.5C565.8,137.3,555.3,143,550.5,145.4z M556.2,236.3v-33.9c8.7-5.4,7.2-4.5,13.5-13.5     H564l-5.7,5.7c1.8-9,6.3-13.5,7.5-22.5c-3.6,3.6-5.7,5.1-8.7,7.5c-1.2-11.1-0.9-22.8-0.9-30.3c1.8-1.8,15.3-13.2,15.3-13.2     c2.1,2.4,4.5,7.5,7.5,11.1l-5.7,5.7c2.7,0.9,4.5-1.2,7.8,0c0.6,12,5.4,15.3,5.4,15.3c0,4.5,0,9.6,0,11.4c0,6-20.4,14.7-24.6,28.5     c9.6-3,14.1-10.5,24.6-21c-4.8,9.9-6,6.3,0,15.3v-5.7h2.1v5.7C585.9,209,565.5,231.8,556.2,236.3z M495.6,100.1     c-6.9,1.5-41.4,18-44.4,36c8.4-4.2,10.5-7.8,15.3-13.5c-10.2,16.8-8.7,11.7-8.7,28.5c0,0-5.4,7.5-5.7,11.4     c-0.3,5.1,5.7,9,5.7,9.6c0,0-5.7,1.2-5.7,13.2c0,0-3.6,0.9,0,9.3l-7.5,7.8v1.8h5.7c-5.7,4.5-21,18-21,28.5     c5.4-3.6,11.4-7.2,11.4-13.2c0-2.1,8.1-4.8,10.5-5.7c-4.2,34.8,0.9,32.1,0.9,32.1c0,4.8-3.6,15.6-8.7,18.9c1.5-1.2,3.3-0.9,4.8,0     l-4.2-5.7h-8.4l-13.8,22.8h-3.9v-15.3c9-7.2,14.1-12,17.1-22.5l-15,15c-1.8-3.9-2.1-2.1-2.1-9.3c0-5.1,2.4-6.3,5.7-9.6     c-3-1.8-2.4,0.9-5.7,0v-9.6c0-2.7-0.9-4.8-1.8-7.5c5.4-4.2,7.2-5.1,11.4-9.6c-3.3-0.6-5.4-0.9-9.6-1.8v-13.2     c2.1-1.2,4.2-3.3,5.7-5.7h-5.7c3.3-3.9,7.2-9,9.6-11.4c-2.1-0.9-3.6,0.6-5.7,0c1.8-7.8,0-13.2,0-13.2s7.5-8.1,7.5-18.9     c0-0.6,24.6-30.6,24.6-30.6c0-6.6,25.5-22.5,38.1-22.5c4.2,0,7.5-2.7,9.3-1.5L495.6,100.1z M588.3,247.8c0,4.8,2.1,7.8,2.1,7.8     l-7.5,5.7c3,1.8,5.7,1.5,7.5,1.8c-2.1,5.4-0.6,6.3-7.5,13.2c6.3,5.4,5.7,0,5.7,0c-1.5,3.9,0,7.2,0,11.4c0,1.8-7.5,0-7.5,7.5     c0,1.8,2.7,2.1,3.6,3.9c-2.7,2.7-5.7,3.9-5.7,11.4c0,18.9-8.1,4.8-13.2,26.4l5.7-5.7c-3.3,7.8-15.6,28.8-26.7,32.4l5.7-5.7     l-3.6-2.1c-17.1,17.1-27.6,24.6-49.2,15.3c3.9,0.3,8.7,0,11.1,0c18,0,36-22.5,36-28.5c0-0.3,5.4-7.8,9.6-11.4h-5.7     c2.1-6.6,3.9-1.2,0-11.4l9.6-9.3l-2.1-3.9c-1.2,1.2-1.2,4.5,0,3.9h-5.7c0.6-1.5,3-2.7,2.1-3.9v-7.5c2.1-0.3,4.2,0.9,7.5,0v-5.7     c-0.9,1.2-2.7,3-3.9,1.8v5.7c8.7-3.6,23.7-15.6,27.6-30.3c-19.2,15.6-3.3,13.2-23.7,13.2c0,0-4.8,0-5.7,0v5.7c0.3-3.9,0-7.8,0-15     c0-4.8,11.4-18.9,11.4-24.9c0-3-6-1.2-9.6-2.7c10.5-12,23.4-27.6,36-31.2c-2.1,6.6-0.9,9.9,0,16.8c-0.6,1.2-2.7-0.6-3.6,0.3     c3,4.5,1.5,3.3,5.7,0C591.9,238.1,588.3,241.7,588.3,247.8z M450.2,350.1c-1.8-1.2,0,5.7-2.1,5.7c0,0-17.1-30-17.1-33.9     c0-6.6,2.4-8.4,5.7-12.6c0,0-6,0-7.5-0.9v5.7c-1.8-5.4-2.7-9.3-1.8-15c-5.7-2.7-5.7,0-5.7,0v-5.7l28.5-28.5     c-0.3,3-2.1,7.2-2.1,15.3c0,12.6-6.9,9.6-12.3,24.6c6-4.5,12-9.6,15.3-11.4c4.8,18.3,0.9,24.6,0.9,24.6c0,1.5,5.7,0,5.7,17.1     c0,0-0.6,17.1,0,20.7C450.5,352.8,455.6,353.7,450.2,350.1z M488,375c0,0-19.5-7.5-24.6-10.5c3.3-3.6,5.1-6.6,9.3-6.6l5.7,3.6     c1.2,1.5-5.7,0-5.7,2.1c0,0.3,4.8,0,7.8,5.7c3-0.3,9.9-0.3,14.1,0C492.2,371.7,491.3,375,488,375z"
   clip-path="url(#SVGID_6_)"
   id="path32" />
			<path
   class="st2"
   d="M94.2,496c-7.7,0-14.3-4.9-20.9-4.9c-2,0-2.6,4-5.7,4c-2.7,0-2.2-6.5-2.2-8v-18.5c0-0.9,0-2.2,1.3-2.2     c0.2,0,1.1,0.5,1.5,0.5c4.4,12.5,9.7,25.1,25.1,25.1c9,0,16.8-4.5,16.8-14.2c0-20.9-43.4-17.6-43.4-45.8     c0-13.1,10.4-22.7,23.2-22.7c5.9,0,11.2,3.5,16.8,2.9h1.8c1.5-1.1,4.4-3.5,6-3.6l0.7,1.6v1.3l-0.4,20.2c-0.2,0.7-0.7,1.6-1.6,1.6     c-3.7,0-4.9-19.6-21.8-19.6c-7,0-13.4,3.6-13.4,11.3c0,16.9,42.1,17.1,44.1,42.2c0.2,1.6,0.4,3.3,0.4,4.9     C122.7,488.1,109,496,94.2,496z"
   clip-path="url(#SVGID_6_)"
   id="path34" />
			<path
   class="st2"
   d="M204.6,416.9c-2.2,1.6-3.1,4.7-4.2,7.1l-38.8,89.6c-2.7,6.2-8.2,20.3-16.3,20.3c-2.8,0-5.3-2.6-5.3-5.1     c0-10,13.7-9.3,16.7-16l8.4-20.4l-28.6-67.8c-3.5-8.2-5.3-7.3-12.4-10.5l-1.1-1.4c-0.2-1.6,6.4-1.6,7.3-1.6     c11.2,0,22.2,0.4,33.3,0c1.1,0,2,0.7,2,1.8c0,4.2-12.3-1.1-12.3,8.6c0,7.6,20.1,50.5,20.5,51.2c0.9-2,20.9-42.3,20.9-52.3     c0-2.9-2-4.7-4.8-5.3c-0.9-0.2-6-0.2-6-1.5c0-3.1,2-2.5,4.4-2.5c6.4,0,16.1-0.5,22.2,0.2c1.1,0,1.8,0.5,1.8,1.8     C212.3,414.9,206.1,415.6,204.6,416.9z"
   clip-path="url(#SVGID_6_)"
   id="path36" />
			<path
   class="st2"
   d="M245.2,496c-7.7,0-14.3-4.9-20.9-4.9c-2,0-2.6,4-5.7,4c-2.8,0-2.2-6.5-2.2-8v-18.5c0-0.9,0-2.2,1.3-2.2     c0.2,0,1.1,0.5,1.5,0.5c4.4,12.5,9.7,25.1,25.1,25.1c9,0,16.8-4.5,16.8-14.2c0-20.9-43.4-17.6-43.4-45.8     c0-13.1,10.4-22.7,23.3-22.7c5.9,0,11.2,3.5,16.8,2.9h1.8c1.5-1.1,4.4-3.5,6.1-3.6l0.7,1.6v1.3l-0.4,20.2     c-0.2,0.7-0.7,1.6-1.6,1.6c-3.7,0-4.9-19.6-21.8-19.6c-7,0-13.4,3.6-13.4,11.3c0,16.9,42.1,17.1,44.1,42.2     c0.2,1.6,0.4,3.3,0.4,4.9C273.8,488.1,260.1,496,245.2,496z"
   clip-path="url(#SVGID_6_)"
   id="path38" />
			<path
   class="st2"
   d="M319.2,496.1c-14.3,0-20.1-7.8-20.7-21.4c-0.7-19.5,0-39.1,0-58.4h-9.9v-2.7c10.6-7.1,16.7-11.3,22.9-22.9     c0.4-0.7,0.7-1.5,1.6-1.5c1.1,0,1.3,1.5,1.3,2.2c0.6,6.5,0,13.3,0,19.6c3.7,0,22.3-1.8,22.3,2.4c0,5.3-18.5,2.9-22.3,2.9     c0,12.4-0.2,24.7-0.2,37.1c0,10.7-3.5,37.1,12.6,37.1c11.2,0,8.8-9.1,13.6-9.1c1.3,0,2.6,1.3,2.6,2.5     C343,493.8,326.5,496.1,319.2,496.1z"
   clip-path="url(#SVGID_6_)"
   id="path40" />
			<path
   class="st2"
   d="M411.9,432.5c0,1.6-0.2,3.3-0.5,4.9h-41.8c3.7-12.4,8.6-23.6,23.4-23.6C404.9,413.8,411.9,420.5,411.9,432.5     z M430.2,438.9c0-1.1-0.4-2.4-0.7-3.3c-4.9-17.8-17.8-26.5-35.9-26.5c-24.5,0-45.2,20.2-45.2,44.7c0,27.3,21.1,42.2,46.7,42.2     c10.4,0,24.9-4.2,29.7-14.7c0.2-0.2,0.7-1.4,0.7-1.8c0-1.1-0.7-2.5-2-2.5c-2.4,0-9.9,12.5-24.2,12.5c-19.2,0-31.5-17.4-31.5-35.3     c0-3.8,0.4-7.6,1.1-11.4h57.5C428.9,442.7,430.2,441.4,430.2,438.9z"
   clip-path="url(#SVGID_6_)"
   id="path42" />
			<path
   class="st2"
   d="M582.8,494.5h-29.9c-0.9-0.2-6.2,0.2-6.2-1.5c0-1.6,0.2-2.2,1.9-2.5c10.3-1.8,11.7-6.2,11.7-15.8V448     c0-13.6,1.1-32.5-17.8-32.5c-26,0-22.4,35.4-22.4,53.6c0,2.9,0,6,0,9.1c0.4,10.2,2.4,11.1,11.7,12.4c1.7,0.2,2,0.9,2,2.5     c0,1.6-6.6,1.5-7.7,1.5h-29.6c-1.1-0.2-6.4,0.2-6.4-1.5c0-1.6,0.2-2.2,1.9-2.5c10.2-1.8,11.7-6.2,11.7-15.8v-26.9     c0-12.2,0.9-32.7-16.3-32.7c-28.9,0-24,34.7-24,54c0,3.1-0.2,6,0,9.1c0.4,10.2,2.4,11.1,11.7,12.4c1.6,0.2,2,0.9,2,2.5     c0,1.6-6.6,1.5-7.7,1.5h-29.7c-1.1-0.2-6.4,0.2-6.4-1.5c0-6,13.9,1.8,13.9-15.4c0-16.6,0.5-33.6-0.4-50.3     c-0.4-7.8-2.9-7.3-9.4-7.3c-2,0-4.6,0.2-4.6-2.4c0-0.9,1.1-1.3,1.6-1.3c4.4-1.3,8.8-1.8,13.2-3.1c2.2-0.7,10.1-4.2,11.4-4.2     c1.8,0,3.1,12.7,3.1,14.9c6.8-9.6,18.9-15.1,30.4-15.1c11.5,0,21.1,5.8,26.4,16c5.1-11.1,17.8-15.5,29.3-15.5     c35.9,0,28.2,34.4,28.2,59.1c0,3.1,0,6.2,0,9.3c0.3,10.4,2.2,11.5,11.9,12.7c1.6,0.2,2,0.9,2,2.5     C590.5,494.7,583.9,494.5,582.8,494.5z"
   clip-path="url(#SVGID_6_)"
   id="path44" />
			<polygon
   class="st2"
   points="562.4,541.8 562.4,544.1 555.4,544.1 555.4,561.4 552.5,561.4 552.5,544.1 545.5,544.1 545.5,541.8         "
   clip-path="url(#SVGID_6_)"
   id="polygon46" />
			<path
   class="st2"
   d="M564.9,541.8h4l5.9,16.6l6-16.6h4v19.6h-2.7v-11.6c0-0.4,0-1.1,0-2c0-0.9,0-1.9,0-3l-5.9,16.5h-2.8     l-5.9-16.5v0.6c0,0.5,0,1.2,0,2.2c0,1,0,1.7,0,2.2v11.6h-2.7V541.8z"
   clip-path="url(#SVGID_6_)"
   id="path48" />
		</g>
	</g>
</g>
</svg>
