<?xml version="1.0" encoding="UTF-8" standalone="no"?>
<svg
   xmlns:dc="http://purl.org/dc/elements/1.1/"
   xmlns:cc="http://creativecommons.org/ns#"
   xmlns:rdf="http://www.w3.org/1999/02/22-rdf-syntax-ns#"
   xmlns:svg="http://www.w3.org/2000/svg"
   xmlns="http://www.w3.org/2000/svg"
   xmlns:xlink="http://www.w3.org/1999/xlink"
   xmlns:sodipodi="http://sodipodi.sourceforge.net/DTD/sodipodi-0.dtd"
   xmlns:inkscape="http://www.inkscape.org/namespaces/inkscape"
   width="210mm"
   height="297mm"
   viewBox="0 0 210 297"
   version="1.1"
   id="svg3093"
   inkscape:version="1.0.2 (e86c870879, 2021-01-15)"
   sodipodi:docname="sun-detail.svg">
  <defs
     id="defs3087">
    <linearGradient
       inkscape:collect="always"
       id="linearGradient3705">
      <stop
         style="stop-color:#000000;stop-opacity:1"
         offset="0"
         id="stop3701" />
      <stop
         style="stop-color:#522500;stop-opacity:0.72941178"
         offset="0.71672165"
         id="stop3709" />
      <stop
         style="stop-color:#762600;stop-opacity:0.2"
         offset="0.79591405"
         id="stop3711" />
      <stop
         style="stop-color:#500000;stop-opacity:1"
         offset="1"
         id="stop3703" />
    </linearGradient>
    <radialGradient
       inkscape:collect="always"
       xlink:href="#linearGradient3705"
       id="radialGradient3707"
       cx="174.44434"
       cy="125.37054"
       fx="174.44434"
       fy="125.37054"
       r="219.18429"
       gradientTransform="matrix(0.94316667,0.0081407,-0.00848369,0.98290455,10.977857,0.72316719)"
       gradientUnits="userSpaceOnUse" />
  </defs>
  <sodipodi:namedview
     id="base"
     pagecolor="#ffffff"
     bordercolor="#666666"
     borderopacity="1.0"
     inkscape:pageopacity="0.0"
     inkscape:pageshadow="2"
     inkscape:zoom="0.98994949"
     inkscape:cx="243.01073"
     inkscape:cy="240.86938"
     inkscape:document-units="mm"
     inkscape:current-layer="layer1"
     inkscape:document-rotation="0"
     showgrid="false"
     inkscape:window-width="2160"
     inkscape:window-height="3808"
     inkscape:window-x="0"
     inkscape:window-y="0"
     inkscape:window-maximized="1"
     showguides="true"
     inkscape:guide-bbox="true"
     inkscape:snap-object-midpoints="true">
    <sodipodi:guide
       position="0,370.23186"
       orientation="-1,0"
       id="guide847"
       inkscape:label=""
       inkscape:locked="false"
       inkscape:color="rgb(0,0,255)" />
    <sodipodi:guide
       position="109.04597,297"
       orientation="0,1"
       id="guide849"
       inkscape:label=""
       inkscape:locked="false"
       inkscape:color="rgb(0,0,255)" />
    <sodipodi:guide
       position="105,426.35846"
       orientation="-1,0"
       id="guide851"
       inkscape:label=""
       inkscape:locked="false"
       inkscape:color="rgb(0,0,255)" />
    <sodipodi:guide
       position="210,351.25572"
       orientation="-1,0"
       id="guide853"
       inkscape:label=""
       inkscape:locked="false"
       inkscape:color="rgb(0,0,255)" />
    <sodipodi:guide
       position="-44.099471,0"
       orientation="0,1"
       id="guide855"
       inkscape:label=""
       inkscape:locked="false"
       inkscape:color="rgb(0,0,255)" />
    <sodipodi:guide
       position="-45.970358,148.5"
       orientation="0,1"
       id="guide857"
       inkscape:label=""
       inkscape:locked="false"
       inkscape:color="rgb(0,0,255)" />
  </sodipodi:namedview>
  <metadata
     id="metadata3090">
    <rdf:RDF>
      <cc:Work
         rdf:about="">
        <dc:format>image/svg+xml</dc:format>
        <dc:type
           rdf:resource="http://purl.org/dc/dcmitype/StillImage" />
        <dc:title />
      </cc:Work>
    </rdf:RDF>
  </metadata>
  <g
     inkscape:label="Layer 1"
     inkscape:groupmode="layer"
     id="layer1">
    <g
       id="g3671"
       transform="matrix(0.11289688,0,0,0.11289688,85.305779,134.34606)">
      <path
         style="fill:#6a1600;fill-opacity:1;stroke-width:1.05914"
         d="m 189.21532,343.59699 c 0,-0.83941 -0.48342,-1.82499 -1.07427,-2.19015 -0.59085,-0.36517 -2.10688,-2.65721 -3.36896,-5.09342 -1.91723,-3.70085 -2.27289,-6.07418 -2.16216,-14.42805 0.12213,-9.21381 0.37236,-10.33606 3.18812,-14.29838 2.5707,-3.61748 3.59957,-4.27382 6.4836,-4.13605 5.23167,0.24992 7.52506,2.96323 7.52506,8.90287 0,4.19887 -0.61334,5.76547 -3.70698,9.46831 -4.24384,5.07956 -4.65614,8.49217 -1.6263,13.4613 4.19455,6.87934 17.74261,10.122 25.50952,6.10558 4.46726,-2.31011 4.30272,-6.21499 -0.31738,-7.53206 -2.73101,-0.77853 -3.51568,-1.62 -3.79785,-4.07275 -0.4509,-3.91949 2.02277,-5.84379 7.51211,-5.84379 6.98071,0 12.65433,-4.5887 14.59787,-11.80643 0.60435,-2.24436 1.49646,-4.08065 1.98249,-4.08065 0.48602,0 3.14239,0.99913 5.90305,2.2203 4.88126,2.15921 7.22556,2.22095 14.55961,0.38338 7.15637,-1.79305 11.34783,3.41683 9.92209,12.33291 -0.87082,5.44579 1.35542,5.54339 5.4011,0.2368 4.3962,-5.76636 4.05311,-12.13184 -1.06972,-19.8474 -3.80022,-5.72354 -10.86443,-12.02264 -17.61205,-15.70454 -1.85828,-1.01399 -3.07234,-2.3393 -2.69792,-2.94513 0.91711,-1.48391 7.01896,-0.30472 14.51727,2.80547 3.5749,1.48283 8.19383,2.51284 11.2684,2.51284 9.85165,0 13.07119,-6.51886 4.3373,-8.78204 -4.83844,-1.25376 -9.48374,-4.70575 -9.48374,-7.04748 0,-3.24356 2.92806,-4.59625 11.08179,-5.11953 6.8229,-0.43787 8.32945,-0.1922 11.73722,1.91392 4.46105,2.75707 7.85463,9.163 7.83964,14.79858 -0.005,2.03884 -1.18213,6.09004 -2.6149,9.00268 -4.0943,8.32315 -3.05077,9.17782 3.72816,3.05346 10.82559,-9.78028 14.84909,-20.45133 11.097,-29.43133 -1.21113,-2.89865 -1.37849,-4.41525 -0.5758,-5.21795 0.8027,-0.80269 1.501,-0.76217 2.40256,0.13939 1.7009,1.7009 6.14301,1.62438 6.14301,-0.10581 0,-2.0133 -9.11842,-14.21428 -11.62602,-15.55631 -2.55623,-1.36806 -2.866,-5.8638 -0.46746,-6.78421 3.30077,-1.26662 4.71329,-0.54927 12.20529,6.19843 6.24042,5.62047 8.62533,7.0717 13.36441,8.13225 5.03572,1.12695 6.53065,1.04122 11.76843,-0.67488 3.29997,-1.08119 6.98389,-2.83426 8.18649,-3.89569 1.20259,-1.06145 2.93153,-1.9299 3.84208,-1.9299 1.95015,0 4.64737,-2.91629 3.63424,-3.92942 -0.38544,-0.38544 -4.52835,-0.8465 -9.20647,-1.02457 -8.12708,-0.30935 -12.32373,-1.48173 -13.88199,-3.87808 -0.39376,-0.60554 -0.44257,-4.36164 -0.10846,-8.34689 0.5831,-6.95528 0.46541,-7.4464 -2.93425,-12.24449 -1.94795,-2.74922 -4.13101,-5.36178 -4.85126,-5.80571 -1.6825,-1.03703 -4.62934,-6.92726 -4.62934,-9.25325 0,-1.89933 2.64994,-4.67311 5.2957,-5.54318 2.51667,-0.82761 7.23055,2.10831 7.60356,4.73571 0.30736,2.16497 0.99707,2.42557 7.18848,2.71601 4.56563,0.21417 8.41283,-0.27616 11.54141,-1.47097 2.58109,-0.98573 8.79321,-2.33563 13.8047,-2.99977 11.75309,-1.55757 11.89333,-3.12918 0.6387,-7.15736 -9.10897,-3.26023 -19.58746,-8.36255 -19.59156,-9.53979 -0.001,-0.39764 0.92931,-1.01873 2.06822,-1.3802 2.63779,-0.83721 11.89616,-11.07138 11.38985,-12.59031 -0.23932,-0.71795 -4.49245,-1.15901 -11.42228,-1.18453 -12.81839,-0.0472 -16.11439,-1.23856 -15.6058,-5.64078 0.32548,-2.81739 0.41774,-2.84728 10.91965,-3.53691 5.82526,-0.38254 13.31405,-1.03585 16.64175,-1.4518 5.81675,-0.72705 6.26118,-0.60481 11.51004,3.16612 6.78652,4.87564 7.90738,4.11794 6.42119,-4.34068 -3.20061,-18.21624 -5.28593,-22.15093 -15.38644,-29.03187 -4.46388,-3.04101 -4.41578,-4.33888 0.21234,-5.72951 2.12565,-0.6387 3.37261,-1.70105 3.37261,-2.87331 0,-2.39899 -8.3152,-10.41168 -10.80475,-10.41168 -2.82063,0 -2.30951,-2.01689 0.81188,-3.20363 6.49329,-2.46875 14.86781,-0.32238 21.07838,5.4023 2.47989,2.28589 4.81305,4.15616 5.1848,4.15616 1.87754,0 0.38998,-9.09946 -2.3857,-14.59337 -4.19608,-8.305311 -9.69999,-12.506947 -21.09064,-16.100405 -3.08953,-0.974662 -5.7109,-2.137406 -5.82527,-2.583865 -0.23647,-0.923103 6.00182,-3.231221 11.54265,-4.270692 4.51656,-0.847312 5.15729,-2.237029 3.63605,-7.886466 -1.68998,-6.276109 -4.5545,-7.770576 -14.07463,-7.34298 -7.80117,0.350395 -7.80117,0.350395 -6.1453,-2.555544 0.91073,-1.598262 2.01019,-2.908946 2.44325,-2.912632 0.43305,-0.0032 2.25754,-2.985523 4.05441,-6.626313 4.48383,-9.085052 5.37591,-19.679895 2.18388,-25.936802 -1.2261,-2.403345 -2.7345,-4.681967 -3.352,-5.063606 -0.61749,-0.381629 -3.00737,-3.078144 -5.31083,-5.992238 -3.44403,-4.357024 -4.1881,-6.1282193 -4.1881,-9.9693673 0,-3.81626344 -0.35384,-4.67101728 -1.93366,-4.67101728 -2.80587,0 -6.2814,4.16100478 -8.21468,9.83485838 -1.37953,4.0487182 -1.45699,5.6278202 -0.42884,8.7431292 0.69012,2.091101 0.9509,5.421744 0.57951,7.401423 -0.56129,2.991952 -1.30212,3.772516 -4.38957,4.624996 -5.16537,1.426236 -10.90634,-0.704963 -13.9488,-5.178142 -2.38713,-3.50968 -2.38713,-3.50968 2.60527,-6.789219 5.07462,-3.333534 10.80373,-10.4018155 10.86764,-13.4079139 0.07,-3.2917608 5.28147,-12.4846782 7.47169,-13.1798272 1.32232,-0.4196881 2.07519,-1.4144898 1.86659,-2.4664009 -0.40053,-2.019674 -1.68503,-2.069859 -19.6297,-0.766924 -13.86171,1.006478 -13.97244,0.900098 -9.14553,-8.786251 1.52338,-3.05703 2.50168,-5.826346 2.17399,-6.154035 -0.32769,-0.327688 -2.27373,0.441222 -4.32454,1.708689 -5.88233,3.635483 -16.38996,7.455397 -17.14544,6.233007 -1.22841,-1.987614 -3.57221,-11.979237 -3.58487,-15.282331 -0.0127,-3.316999 2.46751,-9.403766 4.29106,-10.530781 1.08836,-0.672644 1.38936,-5.783815 0.34061,-5.783815 -0.3583,0 -3.87874,1.530549 -7.82321,3.401218 -5.35107,2.537753 -7.6698,4.326024 -9.13356,7.04406 -2.37084,4.402376 -7.8676,7.112078 -11.01272,5.428864 -2.66973,-1.4288 -2.66029,-4.936297 0.0242,-8.989737 1.15738,-1.74758 2.10747,-3.970946 2.1113,-4.940813 0.01,-2.297226 10.21363,-10.411925 13.11979,-10.432923 3.27553,-0.02367 5.15519,-1.544776 4.71756,-3.817681 -0.32249,-1.674893 -1.39106,-2.002289 -6.72383,-2.060105 -4.11131,-0.04458 -8.15648,-0.882392 -11.50596,-2.383063 -10.09347,-4.522182 -24.67811,-2.220907 -29.9802,4.730502 -5.21421,6.836173 -6.00003,6.636118 -10.83723,-2.758947 -4.33877,-8.427015 -5.3467,-13.433036 -3.14744,-15.632295 1.53982,-1.539821 0.29065,-3.48153 -2.23979,-3.48153 -2.89426,0 -8.74964,3.71948 -11.31256,7.186031 -1.21797,1.647384 -3.01307,6.54296 -3.98913,10.879059 -2.354,10.457568 -3.96283,15.827178 -4.9192,16.418248 -0.43134,0.266583 -2.9908,0.787138 -5.6877,1.156789 -4.40324,0.603532 -5.22253,0.366392 -8.03138,-2.324656 -2.39362,-2.293229 -3.12793,-3.944808 -3.12793,-7.03515 0,-3.050326 0.42852,-4.0384 1.7514,-4.0384 0.96328,0 3.58465,-1.985754 5.82527,-4.412787 4.832,-5.234006 5.29691,-9.346161 1.6658,-14.734364 -3.53333,-5.243105 -18.02238,-11.866933 -25.65912,-11.730344 -7.18067,0.128433 -11.74959,3.225533 -6.26707,4.248205 6.57264,1.226014 8.7513,10.742203 2.45934,10.742203 -1.0778,0 -4.59403,1.247329 -7.81385,2.771841 -4.62495,2.189812 -5.85422,3.288674 -5.85422,5.233189 0,3.463754 -2.09547,4.354047 -4.11709,1.749215 -2.54813,-3.283215 -14.14,-11.965136 -15.41021,-11.541732 -0.60711,0.202371 -0.95587,2.085398 -0.77503,4.184505 0.39385,4.571269 -1.36027,8.350198 -3.49564,7.530777 -0.83806,-0.321593 -2.48286,-2.210295 -3.65511,-4.197115 -2.18489,-3.703109 -4.11769,-4.637002 -4.73628,-2.288478 -0.1918,0.728158 -1.17387,3.814839 -2.18238,6.85929 -1.24772,3.766553 -1.60359,6.897173 -1.11366,9.797037 1.03519,6.127221 -1.09548,5.45255 -4.10175,-1.29881 -2.23959,-5.029595 -2.33331,-5.844038 -0.98163,-8.530468 0.82189,-1.633495 1.34965,-3.824185 1.17277,-4.868202 -0.17686,-1.044017 0.36582,-2.726473 1.20597,-3.738789 2.04429,-2.463225 2.04424,-12.082438 -6e-5,-13.364336 -1.12662,-0.706453 -2.77869,0.389191 -6.29374,4.173997 -2.62136,2.82254 -6.77117,6.146843 -9.22177,7.38734 -3.00438,1.520812 -5.41922,3.894676 -7.413973,7.288143 -2.798521,4.760832 -2.950147,5.676356 -2.807026,16.94801 0.08325,6.553424 -0.1551,11.908017 -0.529569,11.899097 -3.460165,-0.08242 -7.762981,-9.437433 -8.395848,-18.253931 -0.417375,-5.814419 -0.848582,-7.149189 -2.309612,-7.149189 -2.024999,0 -8.51034,8.430276 -8.51034,11.062562 0,2.643052 -3.010677,3.185249 -5.44837,0.981206 -1.884833,-1.704163 -3.920435,-1.975349 -14.523719,-1.934873 -14.761527,0.05635 -15.742481,1.198033 -5.763887,6.708315 5.814482,3.210809 8.61707,5.950436 7.366513,7.200994 -0.227673,0.227678 -2.685204,-0.09504 -5.461165,-0.717144 -2.775961,-0.622107 -5.341428,-0.830113 -5.701017,-0.462236 -0.359598,0.367876 0.955206,2.01789 2.921805,3.666696 1.966588,1.648808 5.420504,5.772676 7.675379,9.164152 3.460514,5.204829 4.100298,7.037435 4.103147,11.753017 0.0032,5.121027 -0.239408,5.679118 -2.909264,6.695524 -5.259589,2.002309 -8.918014,0.05676 -12.15612,-6.46462 -5.234646,-10.542315 -13.068388,-16.898887 -22.632487,-18.364797 -5.215656,-0.799416 -6.363879,0.02294 -3.872276,2.773306 1.482308,1.636255 1.840434,3.891728 1.77946,11.20691 -0.04194,5.037106 -0.464867,12.128688 -0.939743,15.7590737 -0.620994,4.7474861 -0.500644,7.03778859 0.428634,8.15750196 C 22.958791,2.9598699 21.105934,6.1834973 17.298647,6.3159141 11.041635,6.5335322 8.6406832,6.0181403 6.4455859,3.9861672 5.2429865,2.872941 3.932302,1.9621206 3.5329536,1.9621206 c -1.1376953,0 -0.8496307,4.0351939 0.3405768,4.7707808 2.2768946,1.4071944 6.1619966,11.1163056 4.4481931,11.1163056 -0.5404892,0 -2.8365119,-1.28731 -5.102275,-2.860703 -3.73378273,-2.592794 -4.989445,-2.855315 -13.4081595,-2.803249 -5.108725,0.03159 -9.565116,0.333975 -9.903087,0.671954 -1.200291,1.200291 0.822124,2.87372 3.473012,2.87372 1.658061,0 4.099365,1.408115 6.359102,3.667851 3.6678513,3.667852 3.6678513,3.667852 2.9305211,13.712558 -0.7373302,10.044705 -0.7373302,10.044705 5.7584858,16.540522 10.2789016,10.278902 8.2845641,12.428425 -6.6715271,7.190664 -9.7272388,-3.406572 -9.7272388,-3.406572 -13.6468368,-0.984131 -2.155771,1.332344 -5.143708,4.511234 -6.639848,7.064204 -2.550386,4.351918 -2.645242,5.003024 -1.519165,10.427362 2.447416,11.789086 -2.305248,18.626645 -12.952847,18.635023 -2.767,0.0021 -5.03091,0.406709 -5.03091,0.898944 0,1.464885 3.356644,3.983676 9.23226,6.927818 6.427926,3.220896 16.086426,3.853516 18.290304,1.198016 1.574293,-1.89691 8.057442,-3.823918 10.155882,-3.018676 2.3051738,0.884582 2.0289822,9.540346 -0.343796,10.774396 -2.2949,1.19355 -14.616998,3.34711 -19.151256,3.34711 -2.583452,0 -3.355448,0.46023 -3.355448,2.0004 0,1.44554 1.022641,2.19225 3.686799,2.69206 2.431836,0.45621 4.59499,1.88233 6.354834,4.18961 3.112661,4.0809 3.263165,5.19943 1.003672,7.45893 -3.560656,3.56066 -8.565246,1.40544 -13.163583,-5.6689 -3.439808,-5.29199 -5.519046,-7.49469 -7.074593,-7.49469 -1.160117,0 -1.385958,0.53038 -0.789228,1.8535 0.459751,1.01942 0.890736,7.09623 0.957737,13.50402 0.07552,7.22058 0.634519,12.58311 1.47018,14.10317 1.595667,2.9025 8.28502,5.9713 19.090324,8.75784 11.9935734,3.09297 14.1435832,6.26531 4.246236,6.26531 -6.877296,0 -12.951956,3.14204 -16.616609,8.59471 -1.580013,2.35092 -4.18344,5.85044 -5.785388,7.7767 -1.601948,1.92627 -2.912632,4.03515 -2.912632,4.68642 0,1.98813 3.785977,1.31929 5.925893,-1.04689 4.525934,-5.00447 14.315492,-7.81118 18.34612,-5.2599 1.200576,0.75993 0.610445,2.01288 -2.952202,6.26807 -4.16661,4.97656 -4.520437,5.91432 -5.506749,14.59449 -1.433312,12.61411 0.269169,23.69819 3.639974,23.69819 0.825059,0 1.802178,-1.20355 2.171373,-2.67455 0.369195,-1.471 2.324842,-4.50485 4.34588,-6.7419 3.407494,-3.77169 4.032651,-4.04056 8.5997749,-3.69864 3.2874615,0.24611 6.5036642,-0.32953 9.672375,-1.73121 2.6109789,-1.15496 5.3847898,-2.09992 6.1640301,-2.09992 1.8715198,0 3.922129,3.92829 2.914062,5.58237 -0.9098321,1.49289 -5.1367817,5.03826 -7.8661299,6.59773 -3.5357555,2.02023 -8.2897962,9.19384 -10.0066182,15.09951 -1.1185673,3.84772 -3.0181329,7.22833 -5.3999669,9.61016 -2.020912,2.02091 -3.427395,4.318 -3.12553,5.10466 1.288188,3.35696 15.72561916,0.0843 21.3279455,-4.83465 3.7317068,-3.27648 8.1991655,-4.26905 9.5291055,-2.11716 0.39097,0.6326 -1.725655,3.40191 -4.703615,6.15403 -2.9779602,2.75213 -5.4144671,5.5364 -5.4144671,6.18728 0,0.80066 1.8767201,0.98972 5.8025461,0.58454 7.284758,-0.75185 8.41415,1.02082 4.886719,7.67009 -1.741606,3.28295 -3.501916,4.9161 -6.618422,6.1403 -5.5866193,2.19449 -5.1423846,4.80241 1.234215,7.24567 9.862882,3.77904 17.03445,1.64968 26.907214,-7.98923 6.774168,-6.61371 9.545744,-7.34112 13.190146,-3.46185 3.459085,3.68204 4.779217,9.46739 3.248592,14.2366 -2.327617,7.25253 -5.987779,9.92355 -14.758562,10.77011 -6.631746,0.6401 -8.007769,3.03948 -2.553648,4.45278 1.868385,0.48414 5.391876,3.1495 8.214936,6.21418 6.444427,6.99601 11.044458,9.02427 15.786277,6.96055 4.669807,-2.03237 8.633666,-6.02531 10.246619,-10.32178 2.58915,-6.89676 5.256485,-10.98003 7.172574,-10.98003 1.687017,0 1.934761,1.13823 2.121296,9.74602 0.218691,10.09162 1.424161,13.99978 5.438891,17.63306 1.187983,1.07511 2.604793,1.67984 3.14847,1.34383 0.543667,-0.33601 1.207482,-4.39372 1.475127,-9.01714 0.317021,-5.47642 1.122486,-9.37667 2.311052,-11.19063 2.00423,-3.05885 6.133039,-5.07794 8.514829,-4.16395 2.03453,0.78072 3.79019,6.07844 3.79019,11.43695 0,3.75536 -0.79309,5.26046 -5.792511,10.99289 -5.433627,6.23029 -6.626811,8.75159 -8.50298,17.9676 -0.842217,4.13704 -0.224845,4.26287 3.897261,0.79435 3.47925,-2.9276 5.937,-3.2492 10.9575,-1.43376 4.41413,1.59617 7.74437,0.65309 11.84259,-3.35368 3.35508,-3.28021 3.35508,-3.28021 5.23893,-0.30553 3.29243,5.19891 10.28099,12.79446 14.72846,16.00773 3.69003,2.66601 13.44983,7.62017 15.0119,7.62017 1.29988,0 -1.3679,-6.58906 -5.7608,-14.22836 -6.59301,-11.46535 -9.43818,-24.02162 -6.6315,-29.26597 1.22294,-2.28507 6.75227,-2.85675 8.00625,-0.82777 0.415,0.67149 0.80058,6.03417 0.85686,11.91709 0.10231,10.69621 0.10231,10.69621 4.97085,17.04928 2.67768,3.49417 5.43498,7.42543 6.12731,8.73611 0.69232,1.31069 1.90205,2.38307 2.68826,2.38307 1.10995,0 1.30596,-1.53888 0.87687,-6.88441 -0.45064,-5.61398 -0.26405,-6.8844 1.01109,-6.8844 0.86004,0 2.0582,1.08529 2.66259,2.41177 2.26772,4.97712 6.90445,9.15578 13.67517,12.32418 7.90551,3.69943 8.86702,3.88846 8.86702,1.74322 z m -34.73776,-68.38705 c -7.34629,-0.954 -36.62704,-8.9059 -38.8724,-10.55673 -0.58252,-0.4283 -5.7896,-3.27705 -11.57129,-6.33058 C 92.0289,251.98234 86.746528,248.22636 72.963476,236.23035 62.228891,226.88755 59.069437,223.25399 49.371896,209.09858 41.352255,197.39239 38.150859,191.07315 32.667209,176.12523 c -6.358043,-17.33145 -7.960775,-27.23587 -8.044764,-49.71427 -0.05974,-15.98877 0.32041,-20.9325 2.356266,-30.643125 3.08505,-14.715001 9.225143,-32.348978 11.82283,-33.954443 0.591349,-0.365466 1.075185,-1.415624 1.075185,-2.333675 0,-0.91804 2.956745,-6.632784 6.570549,-12.699427 21.586036,-36.237374 62.084655,-63.225409 103.579905,-69.025035 14.64085,-2.046292 31.37345,-2.573198 38.92031,-1.225592 29.47112,5.262514 30.37029,5.54319 51.54035,16.0883852 17.42246,8.6784448 35.46335,23.2059678 48.34092,38.9267588 22.73879,27.759273 36.04887,70.059913 32.84942,104.398403 -3.22248,34.58562 -14.2579,62.11173 -33.6982,84.05484 -7.452,8.41141 -21.54601,22.42006 -26.60958,26.44844 -6.07039,4.82937 -22.72396,14.57178 -28.64131,16.7553 -2.67036,0.98537 -5.3318,2.12268 -5.91433,2.52736 -3.36076,2.33471 -28.75927,8.84538 -38.12901,9.77402 -8.49225,0.84167 -26.66871,0.68586 -34.20819,-0.29323 z"
         id="path3675" />
      <path
         style="fill:url(#radialGradient3707);fill-opacity:1;fill-rule:evenodd;stroke-width:1.05914"
         d="m 218.68113,339.27619 c 3.39569,-1.47489 3.78985,-3.68526 0.65715,-3.68526 -2.36573,0 -5.76276,-3.96145 -5.76276,-6.72025 0,-3.73894 3.12467,-5.84024 9.86204,-6.63208 5.07249,-0.59617 6.56529,-1.28171 9.11532,-4.18603 1.69859,-1.93459 3.36669,-5.351 3.76564,-7.71235 0.8916,-5.27736 2.67102,-6.02093 7.53744,-3.14967 4.0306,2.37812 10.31012,2.88663 17.92676,1.45171 6.35182,-1.19664 9.16062,1.46524 9.81008,9.29692 0.27372,3.30067 0.86096,6.00122 1.30498,6.00122 0.44401,0 1.62087,-1.71448 2.61525,-3.80995 4.42807,-9.33146 -3.06613,-21.50717 -18.82996,-30.59279 -3.29914,-1.90148 -4.96892,-3.53423 -4.75745,-4.65195 0.54835,-2.89834 6.63258,-2.59828 16.76841,0.82694 9.45457,3.19502 14.43367,3.44237 17.6973,0.87916 2.23216,-1.75311 1.51815,-2.56901 -3.47056,-3.96577 -4.72438,-1.32274 -10.03346,-6.06311 -10.03346,-8.95867 0,-0.76456 0.90945,-2.51323 2.02099,-3.88593 1.8491,-2.28354 2.82502,-2.49622 11.47423,-2.5004 8.6977,-0.004 9.80573,0.23958 13.86359,3.05036 5.33553,3.69579 7.01816,8.64668 6.24546,18.37626 -0.62952,7.92673 0.21619,7.82565 6.67337,-0.79758 4.66788,-6.2337 4.814,-7.47171 2.57398,-21.80705 -0.76114,-4.87103 1.10674,-6.63356 4.88636,-4.61077 3.11608,1.66768 2.55994,-0.37374 -1.72772,-6.34184 -2.07309,-2.88559 -4.69335,-5.53984 -5.8228,-5.8983 -2.44607,-0.77636 -3.86129,-5.44438 -2.37194,-7.82372 0.58167,-0.92925 2.80644,-1.83807 4.94394,-2.01958 3.38268,-0.28725 4.65957,0.35913 9.85236,4.98739 3.28129,2.92457 7.68012,6.1527 9.77518,7.17362 4.64241,2.26225 11.95444,2.33682 17.37029,0.17716 4.19616,-1.67329 7.89704,-4.67185 6.94327,-5.62562 -0.30378,-0.30378 -3.59256,-0.87009 -7.3084,-1.25847 -9.58748,-1.00209 -11.62741,-3.21623 -10.85108,-11.77775 0.77497,-8.54654 0.13189,-10.53124 -5.21236,-16.08668 -7.84563,-8.15567 -9.12103,-13.02867 -4.59465,-17.55505 4.35314,-4.35314 12.3391,-3.11349 14.371,2.23081 0.86056,2.26345 1.63869,2.58346 6.28189,2.58346 2.91482,0 8.28851,-0.92921 11.94153,-2.0649 3.65303,-1.1357 9.01511,-2.37282 11.91574,-2.74918 4.85005,-0.6293 5.11041,-0.80381 3.23977,-2.17166 -1.11876,-0.81805 -2.67484,-1.48738 -3.45794,-1.48738 -1.82959,0 -21.18642,-9.27187 -21.95582,-10.51677 -0.32011,-0.51795 1.57713,-1.98695 4.21607,-3.26444 4.29588,-2.0796 11.01838,-8.89071 9.88937,-10.01972 -0.24322,-0.24322 -2.299,-0.0234 -4.56841,0.48839 -4.66924,1.05309 -14.67449,-0.39909 -18.15856,-2.63556 -3.12105,-2.00345 -5.37006,-7.6607 -3.70798,-9.32719 0.71232,-0.71422 6.19745,-1.58597 12.59778,-2.00216 6.23488,-0.40543 14.04335,-1.05746 17.35215,-1.44894 5.56545,-0.65847 6.38246,-0.46445 10.90927,2.59065 2.6913,1.81634 5.13689,3.30243 5.43464,3.30243 0.76307,0 -0.74656,-9.83685 -1.7067,-11.12096 -0.43556,-0.58253 -1.13057,-3.4422 -1.54445,-6.35483 -0.64259,-4.52211 -1.50874,-6.01005 -5.92938,-10.1859 -2.84727,-2.68961 -6.61997,-5.48795 -8.38377,-6.21855 -4.42594,-1.83328 -4.20407,-4.86283 0.50008,-6.82835 2.03885,-0.85189 3.70699,-1.94377 3.70699,-2.4264 0,-2.1514 -3.50023,-5.50386 -7.91128,-7.57731 -2.63911,-1.24053 -4.79839,-2.70265 -4.79839,-3.24916 0,-2.29258 4.92559,-4.29097 10.56227,-4.28528 7.97932,0.008 13.16621,1.62243 17.53387,5.45728 2.02291,1.77615 3.67779,3.06084 3.6775,2.85486 -0.002,-1.27017 -4.7499,-12.57561 -6.42726,-15.303664 -2.09054,-3.400016 -13.03648,-9.24621 -19.87126,-10.613166 -4.10916,-0.821829 -6.4138,-4.199995 -4.25459,-6.236413 0.78503,-0.74038 4.46979,-2.098821 8.18837,-3.018758 3.71858,-0.919936 6.93902,-1.850591 7.15654,-2.068117 1.17531,-1.175295 -1.28911,-7.245221 -3.54052,-8.720401 -2.68085,-1.756561 -12.98135,-1.734117 -19.64454,0.04279 -4.31657,1.151136 -3.69081,-0.977533 1.94374,-6.612089 6.32189,-6.321895 10.07172,-14.669606 10.67913,-23.773436 0.5588,-8.375322 -0.60594,-11.172625 -8.3731,-20.109228 -3.84525,-4.424207 -5.37733,-7.1504172 -5.80335,-10.326609 -0.31835,-2.3734872 -1.01948,-4.3154484 -1.55806,-4.3154484 -0.53858,0 -1.91797,2.1221567 -3.06531,4.7159036 -1.59131,3.5974138 -2.03669,6.7227988 -1.87787,13.1775838 0.23682,9.624778 -0.5292,11.155287 -6.47482,12.936643 -5.60775,1.680123 -12.64969,-1.508712 -16.37958,-7.417236 -1.49514,-2.368468 -2.71844,-4.557931 -2.71844,-4.865494 0,-0.307553 1.91734,-1.32635 4.26074,-2.264005 5.08868,-2.036079 11.25365,-8.886456 12.69726,-14.1088928 0.57213,-2.0697665 2.23337,-5.8374642 3.69165,-8.3726629 1.45827,-2.5351977 2.65141,-4.8666255 2.65141,-5.1809504 0,-0.314326 -5.69924,-0.2381411 -12.66497,0.1692981 -14.91635,0.872487 -17.57857,0.125044 -15.78501,-4.431795 0.62634,-1.59133 1.52375,-4.178032 1.99423,-5.748229 0.85543,-2.854905 0.85543,-2.854905 -4.08499,-0.682011 -2.71723,1.195091 -6.28973,2.837257 -7.93888,3.649258 -1.64916,0.812 -3.44825,1.476364 -3.99799,1.476364 -1.17411,0 -2.69285,-3.652572 -4.75568,-11.43742 -1.98854,-7.504519 -1.87874,-10.121227 0.63117,-15.041057 1.16505,-2.283692 2.11828,-4.387535 2.11828,-4.675206 0,-0.287671 -2.3896,0.584079 -5.31022,1.937223 -3.33657,1.545856 -6.47368,4.066362 -8.44057,6.781579 -3.11292,4.297266 -7.57381,6.232198 -12.26936,5.321901 -3.33961,-0.647428 -4.11429,-5.680286 -1.61301,-10.479105 1.2176,-2.336025 2.21382,-4.908077 2.21382,-5.715673 0,-2.322912 11.85012,-12.187961 14.82795,-12.344057 1.45632,-0.07634 0.11999,-0.559464 -2.96963,-1.073611 -3.0896,-0.514146 -7.68902,-1.878514 -10.22091,-3.031927 -2.5319,-1.153413 -7.18327,-2.400322 -10.33638,-2.770908 -7.07612,-0.831659 -11.46289,1.16565 -19.85727,9.041066 -6.40194,6.006177 -8.86188,6.436073 -9.39658,1.642145 -0.19438,-1.742599 -0.97599,-3.88328 -1.73693,-4.757069 -3.13818,-3.603597 -6.10594,-12.619201 -5.39735,-16.396336 0.38458,-2.050018 0.41568,-3.727307 0.0691,-3.727307 -1.50828,0 -6.5386,3.181011 -8.63396,5.459847 -2.42002,2.6319 -5.65981,12.17651 -5.65981,16.674114 0,1.476743 -0.77774,4.721468 -1.72831,7.210501 -1.42668,3.735687 -2.39712,4.711291 -5.56048,5.589982 -6.85263,1.903472 -9.66491,1.364661 -13.36737,-2.561087 -1.88677,-2.000554 -3.68241,-4.955259 -3.99032,-6.566011 -0.76613,-4.007743 0.85222,-7.801982 3.32777,-7.801982 1.11912,0 3.56434,-1.742086 5.43382,-3.871304 2.86009,-3.25746 3.30399,-4.457124 2.79951,-7.56585 -0.74679,-4.601891 -3.80328,-7.928296 -9.93212,-10.809189 -5.23062,-2.458684 -15.8502,-4.905626 -16.86892,-3.886903 -0.35629,0.35629 0.15992,1.880528 1.14712,3.387196 1.0061,1.535496 1.65098,4.208747 1.46739,6.082811 -0.28572,2.916642 -0.89,3.505466 -4.73401,4.61293 -8.20001,2.362431 -11.86343,4.622136 -12.21343,7.533627 -0.61796,5.140371 -3.36406,5.379661 -8.64953,0.753705 -7.31393,-6.401286 -10.92335,-8.941146 -11.6598,-8.204697 -0.3686,0.368605 -0.67019,1.981612 -0.67019,3.58446 0,4.494544 -1.05919,6.264936 -3.74818,6.264936 -1.54614,0 -3.33459,-1.224862 -4.80633,-3.291723 -2.3439,-3.291723 -2.3439,-3.291723 -3.97937,0.264785 -0.94397,2.052764 -1.66274,6.652589 -1.69998,10.879059 -0.0423,4.793464 -0.51354,7.473317 -1.36459,7.759068 -2.03915,0.684674 -5.9529,-4.263079 -8.10397,-10.245007 -1.80984,-5.032989 -1.82936,-5.604698 -0.251,-7.348766 0.94133,-1.040159 1.72666,-3.521812 1.74518,-5.514787 0.0185,-1.992974 0.73346,-4.548756 1.58871,-5.679516 1.84777,-2.442974 2.04002,-6.521999 0.35642,-7.562519 -0.65923,-0.407428 -1.64022,0.04836 -2.17999,1.012871 -1.58603,2.834072 -5.28122,5.912398 -10.54599,8.785464 -3.49983,1.909907 -5.6787,4.108049 -7.541193,7.60787 -3.676589,6.908696 -4.099843,10.508315 -2.325817,19.780286 0.852321,4.4547 1.54968,8.534141 1.54968,9.065424 0,1.303931 -3.892834,1.22445 -6.425892,-0.1312 -2.489835,-1.33252 -7.342915,-10.594195 -7.342915,-14.013311 0,-1.359176 -0.520768,-2.991995 -1.157258,-3.628488 -0.836921,-0.836918 -0.813164,-1.800203 0.08579,-3.479956 0.683685,-1.277484 0.923432,-2.639338 0.532747,-3.026341 -1.112625,-1.102178 -5.716734,5.216138 -7.092503,9.733212 -1.615303,5.303512 -3.20273,5.774652 -8.07657,2.39708 -4.176937,-2.894621 -6.519657,-3.200606 -15.889786,-2.075367 l -5.648653,0.678334 4.815217,2.997068 c 8.565235,5.331136 10.433175,11.288194 3.170024,10.109547 -1.964767,-0.31884 -3.572317,-0.394204 -3.572317,-0.167474 0,0.226731 2.230494,3.602994 4.956664,7.502806 8.702882,12.44959 7.37649,23.14824 -2.869864,23.14824 -3.994108,0 -4.938839,-0.516291 -8.490471,-4.640051 -2.197968,-2.552029 -3.77654,-5.212744 -3.507943,-5.9127 1.28266,-3.342569 -13.088373,-14.288874 -18.759385,-14.288874 -1.681616,0 -1.791735,0.407639 -0.844303,3.125447 1.046133,3.000926 0.741164,12.95016 -0.725277,23.6620611 -0.382138,2.7913356 -0.207337,6.3659301 0.388428,7.94354314 0.595766,1.57761206 1.36934,4.17907046 1.719057,5.78101836 0.635833,2.9126325 0.635833,2.9126325 -7.857456,2.9126325 -4.671311,0 -8.4932881,0.253614 -8.4932881,0.563588 0,0.309973 0.7149188,2.2746289 1.5887085,4.3658999 0.8737896,2.09128 1.5887086,4.459028 1.5887086,5.261675 0,2.385341 -3.6047373,1.671502 -8.5785176,-1.698774 -3.9063483,-2.646979 -5.6893028,-3.154402 -11.015554,-3.13502 -6.1380814,0.02235 -6.2587914,0.07531 -3.5390384,1.552529 1.548694,0.841168 3.8745631,3.242512 5.1686085,5.336313 2.0131902,3.257414 2.2349739,4.597575 1.5364823,9.284381 -0.4489796,3.012605 -0.7808502,7.059184 -0.737489,8.992398 0.091615,4.086551 4.3746995,10.245625 8.8869387,12.779562 2.5732206,1.445047 3.0004773,2.286808 2.7499379,5.417846 -0.2509524,3.136153 -0.7310707,3.757232 -3.1178722,4.033308 -1.551681,0.179471 -6.3536371,-0.892908 -10.671016,-2.383063 -9.7396832,-3.361697 -10.4635832,-3.358477 -14.5317052,0.06461 -5.288206,4.449729 -6.481072,7.684118 -5.364401,14.545231 0.758545,4.660636 0.582834,7.093913 -0.830079,11.49543 -1.576338,4.910666 -2.36653,5.86118 -6.558411,7.889029 -2.675216,1.294152 -5.81158,2.062176 -7.149188,1.750662 -3.84208,-0.894782 -2.766016,0.311535 2.938729,3.294462 8.092129,4.231258 13.261787,4.573018 19.038405,1.258607 5.09699,-2.924474 10.427403,-3.559618 12.4978401,-1.489181 1.469746,1.469746 1.6791272,9.154272 0.3083895,11.318722 -1.0200144,1.61066 -13.0297926,4.25593 -19.6023746,4.3176 -4.610083,0.0432 -4.35196,0.99225 0.720775,2.64987 3.313792,1.08285 8.193648,6.90387 8.193648,9.77394 0,2.5312 -5.021961,6.67963 -8.086166,6.67963 -2.067069,0 -4.175264,-1.38365 -7.424639,-4.87293 -2.49584,-2.68012 -4.825172,-5.7781 -5.176309,-6.88441 -1.406663,-4.43201 -2.075213,-1.4975 -1.899989,8.33973 0.264202,14.83213 0.671409,15.91125 7.111144,18.84485 2.97778,1.35651 7.797201,3.02632 10.709833,3.71068 8.701886,2.04463 12.414275,3.53126 13.6296471,5.45803 1.6930655,2.68407 -0.063972,3.80158 -6.7452431,4.29008 -8.521578,0.62306 -15.261399,4.94127 -18.972357,12.15561 -1.449093,2.81714 -1.268658,2.87061 2.699417,0.80008 4.695311,-2.45001 9.72708,-3.0461 14.256826,-1.68897 5.315247,1.59249 5.298502,3.66102 -0.06683,8.25354 -5.312588,4.54737 -6.37678,8.35133 -6.384278,22.82081 -0.0064,11.36293 0.84443,13.71021 3.261332,9.00268 0.672924,-1.31068 2.660483,-3.90197 4.416811,-5.75843 2.952869,-3.12121 3.576511,-3.32998 8.2825625,-2.77262 3.9634146,0.46942 6.0477154,0.10316 9.42187808,-1.65554 5.40394962,-2.81669 9.15000772,-2.89088 10.58497142,-0.20964 2.401555,4.48735 1.315896,6.92741 -5.5232191,12.41368 -7.0412302,5.64841 -7.9476731,6.95836 -11.4408935,16.53401 -1.2252226,3.35861 -3.408267,7.5096 -4.8511954,9.22442 -2.623498,3.11786 -2.623498,3.11786 2.9949166,2.51121 4.0854804,-0.44113 7.32518533,-1.72979 11.8739861,-4.72309 6.9141863,-4.54982 10.5821753,-5.16937 12.2421003,-2.06778 1.753352,3.27618 1.379296,4.008 -3.934511,7.6975 l -5.0309098,3.49309 5.1881708,0.52957 c 3.138325,0.32033 5.606118,1.19711 6.246008,2.21913 2.333601,3.72717 -2.834574,13.07872 -8.8241,15.96675 -3.6692178,1.76922 -3.6692178,1.76922 0.268534,3.4422 9.041679,3.84141 17.091718,1.29842 26.547128,-8.38615 6.28527,-6.43761 8.716587,-7.09397 13.544196,-3.65642 6.105671,4.34763 6.808209,17.69877 1.239679,23.55904 -3.397537,3.57552 -7.768149,6.04359 -10.702398,6.04359 -1.626213,0 -0.827749,1.28174 3.665405,5.88391 6.315953,6.46919 11.404808,9.18419 14.725188,7.85617 3.511851,-1.40461 8.86439,-6.99503 9.634267,-10.06246 0.397548,-1.58398 1.888668,-4.96589 3.31358,-7.51534 1.916661,-3.42921 3.239949,-4.63537 5.085583,-4.63537 3.643661,0 4.165202,1.56215 4.243271,12.70967 0.05508,7.86009 0.491186,10.69917 1.993151,12.97445 2.83826,4.2996 3.797353,3.58614 3.797353,-2.82481 0,-6.61808 3.076343,-14.74988 6.215631,-16.42997 6.334817,-3.3903 11.426907,-0.0458 12.537567,8.23477 0.77867,5.80541 -1.06125,10.42446 -6.604535,16.58049 -4.235878,4.70412 -6.82954,10.03416 -6.847058,14.07086 -0.0042,1.01775 0.510981,1.08456 2.04274,0.26478 2.743435,-1.46824 9.938183,-1.39557 11.449403,0.11565 1.6658,1.66579 7.32367,-0.73553 9.47729,-4.02238 2.3882,-3.64483 6.22897,-3.25341 8.35152,0.85114 2.8428,5.49736 15.47128,17.22597 20.06597,18.63612 2.25733,0.69281 4.30895,1.05494 4.55914,0.80474 0.2502,-0.25019 -0.93463,-2.73694 -2.63294,-5.52608 -5.52032,-9.06611 -6.53788,-11.38381 -8.28612,-18.87342 -2.67305,-11.45161 -0.42707,-18.5015 5.89426,-18.5015 3.25137,0 6.20701,2.36718 6.37601,5.10656 0.0604,0.97781 0.17948,6.06735 0.26478,11.31009 0.15242,9.36678 0.22798,9.62877 4.35296,15.09273 2.30882,3.05827 4.54532,5.56048 4.97002,5.56048 0.42468,0 0.91871,-2.0256 1.09784,-4.50134 0.47101,-6.5099 3.79306,-6.2487 9.07729,0.71373 3.77111,4.96874 7.7508,7.95931 12.66923,9.52035 2.24005,0.71097 2.24005,0.71097 0.20664,-4.64052 -1.39135,-3.66174 -2.03341,-8.03407 -2.03341,-13.84727 0,-9.02609 1.26983,-13.23401 5.54597,-18.37814 2.27557,-2.73746 2.97886,-2.9853 6.56323,-2.31287 6.14589,1.15298 9.07358,4.72025 9.07358,11.05579 0,4.44149 -0.56707,5.92238 -3.70698,9.6806 -3.91799,4.68953 -4.5122,7.66534 -2.43914,12.21522 2.71813,5.96566 14.84317,8.73924 22.90226,5.23885 z M 165.12686,303.3824 c -0.38984,-0.38984 0.30241,-0.97324 1.53831,-1.29643 1.28944,-0.3372 2.54765,-1.78627 2.95231,-3.40019 0.74011,-2.95178 3.90577,-6.51955 5.78475,-6.51955 1.66855,0 1.32156,1.89094 -0.53795,2.93158 -1.80854,1.01211 -3.09794,7.65981 -1.48572,7.65981 0.55485,0 1.00882,0.46318 1.00882,1.0293 0,1.11387 -8.09577,0.76022 -9.26052,-0.40452 z m 49.65925,-4.74533 c -0.90174,-0.57136 -1.17113,-1.74922 -0.72298,-3.16119 0.81794,-2.57712 2.68981,-3.03766 2.68981,-0.6618 0,0.87379 0.4647,1.58871 1.03266,1.58871 0.59002,0 0.75107,-1.40796 0.37572,-3.28471 -0.56429,-2.82142 -0.37496,-3.2304 1.34234,-2.89968 1.0996,0.21176 2.66248,1.76876 3.47308,3.46 1.32364,2.7617 1.27686,3.21898 -0.45916,4.48839 -2.1971,1.60657 -5.61051,1.81419 -7.73147,0.47028 z m 10.06761,-9.14652 c 0.32686,-0.85179 1.00015,-1.29788 1.49619,-0.9913 0.49605,0.30656 0.63447,1.25431 0.30761,2.10611 -0.32686,0.85179 -1.00015,1.29787 -1.49619,0.9913 -0.49605,-0.30657 -0.63447,-1.25432 -0.30761,-2.10611 z m -85.9475,-15.82661 C 122.0579,269.19788 116.879,267.25205 104.75843,260.8339 87.667407,251.78377 65.930232,234.29052 56.29338,221.83109 40.473116,201.37716 29.939566,178.90568 24.9698,155.00772 21.738981,139.47176 21.455503,111.97082 24.385695,98.343777 27.014002,86.12073 32.114529,70.212069 35.209948,64.582713 c 1.401675,-2.549115 2.5485,-5.108472 2.5485,-5.687482 0,-2.158716 11.802007,-20.693226 18.488373,-29.035133 15.047865,-18.773727 36.120759,-34.8552206 56.710499,-43.277849 3.78642,-1.54891 7.70056,-3.242754 8.69808,-3.764099 5.9858,-3.1284 29.3201,-7.765456 44.25887,-8.795241 10.06534,-0.693841 34.18388,1.513702 43.72438,4.002047 9.83178,2.564318 22.16297,6.911941 25.96216,9.153519 1.93333,1.140687 3.91579,2.073977 4.40548,2.073977 1.20357,0 14.23909,7.9063235 20.31325,12.3204201 2.69941,1.9616665 5.30402,3.5666657 5.78802,3.5666657 0.96983,0 1.12368,0.1438163 14.63857,13.6837172 5.19613,5.205764 9.92553,10.333374 10.50977,11.394673 0.58424,1.061311 1.96313,2.573518 3.06421,3.360458 1.10108,0.786951 2.4598,2.455095 3.01939,3.706987 1.00156,2.240651 3.17335,5.876178 8.36834,14.008396 3.0725,4.809677 9.54503,19.361624 9.54503,21.459725 0,0.791738 0.67145,2.941388 1.49212,4.777003 0.82067,1.835616 1.73453,4.529017 2.03079,5.985333 0.29626,1.456316 1.30893,5.269217 2.25036,8.473113 0.94144,3.203895 1.9917,7.970021 2.33393,10.591387 0.94786,7.26043 1.08439,42.53876 0.17625,45.54298 -0.44022,1.45632 -2.02408,7.65228 -3.51968,13.76881 -3.34498,13.67986 -3.78699,14.90465 -10.1291,28.06719 -8.03507,16.67611 -14.57538,25.76895 -30.47279,42.36556 -19.17979,20.02335 -43.40874,34.22883 -69.55156,40.7782 -14.03947,3.5172 -20.8809,4.13661 -41.30108,3.7393 -16.50731,-0.32117 -20.48515,-0.74751 -29.65589,-3.17843 z M 94.532259,275.654 c -0.355468,-0.92637 -0.364036,-2.14104 -0.01906,-2.69928 0.810622,-1.31154 3.616176,0.95745 3.616176,2.92453 0,2.01545 -2.804664,1.83981 -3.597112,-0.22525 z m -3.816861,-0.56368 c 0,-1.87071 0.264657,-2.02832 1.577047,-0.93914 1.593994,1.32291 1.254497,3.1871 -0.580419,3.1871 -0.548146,0 -0.996628,-1.01158 -0.996628,-2.24796 z m -22.241919,-6.22515 c 0,-0.58253 0.714919,-1.05914 1.588708,-1.05914 0.87379,0 1.588709,0.47661 1.588709,1.05914 0,0.58253 -0.714919,1.05914 -1.588709,1.05914 -0.873789,0 -1.588708,-0.47661 -1.588708,-1.05914 z M 292.87449,258.00899 c -2.00086,-1.65513 -5.47935,-7.18211 -4.89068,-7.77079 0.2408,-0.2408 2.4204,1.3925 4.84356,3.62955 2.42316,2.23705 4.09125,4.38187 3.70685,4.76626 -1.01227,1.01228 -1.85428,0.86848 -3.65973,-0.62502 z M 38.978745,241.48871 c -1.587543,-1.58754 -1.715498,-2.28757 -0.677594,-3.70698 0.703745,-0.96243 1.708105,-1.74987 2.231923,-1.74987 1.401262,0 3.755178,-4.15574 3.024012,-5.33878 -0.345375,-0.55883 -0.155334,-1.01606 0.422321,-1.01606 1.513139,0 2.778841,4.59057 1.393053,5.0525 -0.627095,0.20903 -0.877655,1.06418 -0.556789,1.90034 0.320856,0.83615 0.05582,1.52028 -0.589072,1.52028 -0.644857,0 -1.172456,0.87379 -1.172456,1.94175 0,1.75308 -0.842556,3.35394 -1.765235,3.35394 -0.194172,0 -1.233749,-0.8807 -2.310163,-1.95712 z m -6.515992,-1.04377 c 0,-1.37908 1.259072,-2.29625 2.283281,-1.66326 1.095383,0.67699 0.150874,2.54587 -1.286653,2.54587 -0.548146,0 -0.996628,-0.39717 -0.996628,-0.88261 z M 318.43028,226.96667 c 0,-0.83941 -0.95322,-1.5262 -2.11828,-1.5262 -1.16505,0 -2.11827,-0.47662 -2.11827,-1.05914 0,-0.58253 0.47661,-1.05914 1.05914,-1.05914 0.58252,0 1.05913,-0.60027 1.05913,-1.33393 0,-0.73367 1.0171,-1.96913 2.26023,-2.74547 3.8055,-2.37658 4.68704,0.47817 2.56794,8.31596 -0.23625,0.87379 -0.466,1.73599 -0.51057,1.916 -0.24748,0.9995 -2.19932,-1.22637 -2.19932,-2.50808 z m 6.95857,-1.64621 c 1.0685,-1.72886 2.57368,-0.96341 2.57368,1.30883 0,1.87071 -0.26465,2.02832 -1.57704,0.93914 -0.86738,-0.71987 -1.31586,-1.73145 -0.99664,-2.24797 z M 23.97996,222.80428 c 0.719865,-0.86737 1.78233,-1.28441 2.361044,-0.92675 0.639148,0.39502 0.488093,1.00774 -0.384796,1.56084 -2.284595,1.44759 -3.405429,1.08797 -1.976248,-0.63409 z m 2.922313,-3.65785 c -3.271288,-1.63973 -3.667004,-2.7221 -1.323924,-3.62123 0.87379,-0.3353 1.588709,-1.28853 1.588709,-2.11828 0,-1.43331 2.138147,-2.7944 4.38976,-2.7944 0.57149,0 0.901868,0.83407 0.734164,1.85349 -0.167715,1.01942 0.0627,2.43941 0.511966,3.15553 0.874277,1.39349 -1.057868,5.95474 -2.265392,5.34796 -0.397463,-0.19972 -2.033335,-1.02011 -3.635283,-1.82307 z m -4.765977,-8.09275 c 1.009306,-1.00931 3.032834,0.62553 2.280644,1.84259 -0.447084,0.72339 -1.039503,0.70512 -1.800155,-0.0555 -0.623579,-0.62358 -0.839802,-1.42775 -0.480489,-1.78705 z M 333.43525,187.47634 c 1.40124,-0.5368 4.05953,0.66972 4.05953,1.8425 0,1.73667 -3.67135,1.8604 -4.35925,0.14691 -0.35875,-0.8936 -0.22387,-1.78883 0.29972,-1.98941 z M 8.7270454,189.82473 c -0.7729279,-2.0142 2.3621026,-4.82759 4.5243456,-4.06014 0.933472,0.33132 1.229861,-0.0407 0.840606,-1.05504 -0.330673,-0.86175 -0.117532,-1.86575 0.473658,-2.23113 0.607437,-0.37541 0.771657,-2.0449 0.377636,-3.83892 -0.593933,-2.70416 -0.406932,-3.11949 1.261911,-2.80274 2.539953,0.48209 3.434629,6.179 0.970383,6.179 -2.179761,0 -2.142246,2.76537 0.04893,3.6062 1.383225,0.5308 1.45926,0.95514 0.399888,2.2316 -0.719462,0.86689 -2.174847,1.57618 -3.234197,1.57618 -1.059341,0 -2.220644,0.47661 -2.580667,1.05914 -0.974312,1.57647 -2.3352105,1.28327 -3.0824966,-0.66415 z m -8.89597322,-3.30762 c 0.42993629,-2.2325 2.30964322,-2.09173 2.78866002,0.20884 0.1998066,0.95956 -0.3840332,1.64465 -1.4015798,1.64465 -1.09087082,0 -1.61034672,-0.69416 -1.38708022,-1.85349 z M 329.02167,185.72275 c 0,-0.87379 0.71492,-1.58871 1.58871,-1.58871 1.65392,0 2.1013,1.25265 0.88262,2.47132 -1.21868,1.21869 -2.47133,0.77131 -2.47133,-0.88261 z M 5.9842779,179.89749 c 0,-1.16506 0.4766125,-2.11828 1.059139,-2.11828 0.5825264,0 1.059139,0.19933 1.059139,0.44294 0,0.24362 0.2892932,1.19685 0.6428868,2.11828 0.4218656,1.09938 0.057723,1.67533 -1.059139,1.67533 -0.9959296,0 -1.7020258,-0.87877 -1.7020258,-2.11827 z M 337.49478,176.66926 c 0,-0.48582 0.51815,-1.20354 1.15143,-1.59493 1.47059,-0.90888 3.54391,1.1057 2.64118,2.56633 -0.75176,1.21638 -3.79261,0.43752 -3.79261,-0.9714 z M 6.6672531,168.79438 c -0.3429916,-0.89384 -1.3047745,-1.30148 -2.2315953,-0.94582 -1.0492149,0.40262 -1.6287969,0.0194 -1.6287969,-1.07699 0,-2.11745 4.9942216,-2.26551 7.6787581,-0.22766 2.757881,2.09353 2.249463,2.83541 -2.5345306,3.69846 -0.3745751,0.0676 -0.9522931,-0.58402 -1.2838353,-1.44799 z M -0.37055611,147.2407 c 0,-0.48544 0.29131618,-1.17393 0.64735635,-1.52998 0.35605075,-0.35605 0.83445326,-3.04259 1.06312136,-5.97008 0.3441354,-4.40572 0.1413739,-5.21741 -1.17692585,-4.71154 -1.01507881,0.38952 -1.59269085,-0.0135 -1.59269085,-1.11102 0,-1.34136 0.64410478,-1.56834 2.9126322,-1.02641 4.8121663,1.14955 5.8531728,2.44709 4.104492,5.11591 -0.8679432,1.32465 -1.1531906,2.94072 -0.674661,3.82229 1.2769933,2.35254 -0.6835577,6.29344 -3.1309208,6.29344 -1.1838208,0 -2.15240341,-0.39717 -2.15240341,-0.88261 z m -9.53225099,-4.53469 c 0,-0.97765 6.1803408,-4.11495 8.1062686,-4.11495 2.15798513,0 1.71147331,1.65718 -0.9570804,3.55212 -2.285463,1.62292 -2.3019538,1.74171 -0.402494,2.90078 1.510883,0.92195 1.6583787,1.40768 0.6219688,2.04822 -1.3368134,0.82619 -7.368663,-2.76425 -7.368663,-4.38617 z m 358.5971471,1.53321 c -0.37269,-0.9712 -0.18197,-2.26145 0.42382,-2.86724 1.39059,-1.3906 4.84819,1.77135 3.79695,3.47228 -1.07487,1.73918 -3.45197,1.39844 -4.22077,-0.60504 z m -7.24368,0.44189 c -0.6512,-1.88567 1.48492,-6.21691 2.84625,-5.77112 0.62778,0.20558 1.29077,1.88606 1.47331,3.73441 0.27207,2.75499 -0.0461,3.36064 -1.76523,3.36064 -1.15342,0 -2.30287,-0.59577 -2.55433,-1.32393 z m 11.05919,-5.38346 c -0.20269,-1.04512 0.33762,-1.76573 1.32393,-1.76573 0.98249,0 1.66637,0.90557 1.66637,2.20654 0,2.58117 -2.47497,2.21632 -2.9903,-0.44081 z M 340.6722,125.89777 c 0,-0.44889 0.72021,-1.41386 1.60046,-2.1444 1.41937,-1.17798 1.39697,-1.47705 -0.198,-2.64332 -1.6452,-1.203 -1.59199,-1.38059 0.62444,-2.08406 2.64083,-0.83816 6.04688,1.38839 3.53358,2.30993 -0.72816,0.267 -1.32392,1.55782 -1.32392,2.86851 0,1.31068 -0.28491,2.66796 -0.63312,3.01617 -0.79882,0.79882 -3.60344,-0.23076 -3.60344,-1.32283 z M -0.15624993,119.38609 c -0.22981197,-1.91355 0.41605099,-3.01636 2.38306273,-4.06908 1.4840868,-0.79425 2.6983261,-2.34491 2.6983261,-3.44591 0,-1.15001 0.4813998,-1.70428 1.1313405,-1.3026 0.6222441,0.38457 0.8523315,1.42633 0.5112993,2.31503 -0.3410215,0.88871 -0.1269907,2.20992 0.4756382,2.93604 1.4826463,1.78648 0.2020625,4.74353 -2.530389,5.84299 -3.176951,1.27832 -4.30860922,0.72659 -4.66927783,-2.27647 z M 7.3314179,99.667701 c 0.4222046,-1.765235 0.4817388,-1.765235 1.2501124,0 0.4437369,1.019419 0.4437369,2.687569 0,3.706989 -0.7683736,1.76523 -0.8279078,1.76523 -1.2501124,0 -0.2438243,-1.01942 -0.2438243,-2.68757 0,-3.706989 z M 347.00579,102.02516 c -0.73686,-0.88786 -1.07435,-1.8797 -0.74996,-2.204085 0.81053,-0.810527 5.00776,1.533355 5.00776,2.796515 0,1.58824 -2.76761,1.20314 -4.2578,-0.59243 z M 339.8367,84.443594 c -0.21592,-1.133788 0.60129,-1.89766 2.39752,-2.241022 3.08033,-0.58885 4.05035,0.314765 3.07274,2.862387 -0.84416,2.199832 -5.0234,1.725115 -5.47026,-0.621365 z m 12.94657,-3.847959 c 1.86528,-1.758086 1.92612,-1.753606 1.27854,0.09416 -0.37397,1.067061 -0.67994,2.473068 -0.67994,3.12446 0,0.821013 -0.39223,0.79212 -1.27853,-0.09416 -0.99862,-0.99862 -0.84976,-1.682676 0.67993,-3.12446 z M -2.7770258,82.321227 c -0.7884231,0.788423 -1.4924116,0.612797 -2.3734776,-0.592112 -1.0034706,-1.372347 -0.8633677,-2.102221 0.7045499,-3.670139 2.097307,-2.097307 8.7845836,-2.703834 9.9006619,-0.89798 0.3600225,0.582526 1.5796846,1.059139 2.7103579,1.059139 1.1306732,0 2.0557677,0.714919 2.0557677,1.588708 0,0.99378 -1.0039898,1.588709 -2.6810834,1.588709 -1.4746075,0 -2.9619987,0.732024 -3.3053186,1.626721 C 3.6780663,84.474107 3.3238902,84.463389 0.9770288,82.925663 -0.87512993,81.71208 -1.9886028,81.5328 -2.7770258,82.321223 Z M 329.45762,65.78061 c 1.157,-1.157004 1.95037,0.682996 1.11969,2.596807 -0.78765,1.814698 -0.84475,1.813045 -1.2836,-0.03717 -0.25261,-1.065018 -0.17885,-2.216831 0.16391,-2.55959 z m 5.48573,-4.905594 c 0.62244,-1.622061 -4.19129,-3.318388 -6.0888,-2.145667 -0.62087,0.383715 -1.52701,0.05338 -2.01366,-0.733994 -1.11784,-1.808703 0.71652,-3.038638 4.56384,-3.060065 1.60195,-0.0089 2.91264,-0.492828 2.91264,-1.075354 0,-0.582527 1.42983,-1.059139 3.17741,-1.059139 3.22853,0 4.26185,1.430494 1.8535,2.565923 -0.72816,0.343288 0.0117,0.367659 1.64423,0.05412 2.71491,-0.521382 2.86987,-0.386374 1.81623,1.582375 -0.6797,1.270056 -2.22212,2.152414 -3.76251,2.152414 -1.61443,0 -2.61058,0.60623 -2.61058,1.588709 0,0.87379 -0.46166,1.588708 -1.0259,1.588708 -0.56425,0 -0.77413,-0.656115 -0.4664,-1.458032 z M 17.105237,48.017343 c 0,-1.515638 -0.828945,-2.196008 -2.975428,-2.442141 -1.721821,-0.197445 -2.791107,-0.8668 -2.537962,-1.588709 0.240594,-0.686132 1.18614,-1.115729 2.101205,-0.954645 0.915053,0.161085 1.966122,-0.196375 2.335687,-0.794354 0.369565,-0.597979 1.597044,-1.087227 2.727717,-1.087227 1.735251,0 2.055768,0.755187 2.055768,4.843782 0,4.0441 -0.306007,4.784396 -1.853493,4.484024 -1.021392,-0.19826 -1.853494,-1.302964 -1.853494,-2.46073 z M 316.84157,36.839952 c 0,-0.817264 0.83408,-1.646569 1.8535,-1.842891 1.82568,-0.351592 2.58042,1.895806 1.12533,3.350904 -1.11019,1.110189 -2.97883,0.164219 -2.97883,-1.508013 z M 33.052524,26.057535 c 0.402886,-1.310685 0.792458,-2.44301 0.865729,-2.516271 0.521923,-0.521923 4.899334,-1.493376 4.899334,-1.087281 0,0.920361 -4.744752,5.947861 -5.631855,5.967476 -0.476147,0.01059 -0.536094,-1.05324 -0.133208,-2.363924 z M 304.10323,16.743677 c -0.37579,-0.608051 -0.12458,-1.778707 0.55825,-2.601457 1.61947,-1.951342 0.33587,-4.2451078 -1.51567,-2.708466 -1.85822,1.542184 -2.43261,0.596068 -1.88856,-3.1107713 0.33895,-2.3093914 1.04305,-3.1834449 2.56445,-3.1834449 1.20649,0 2.3325,-0.8996825 2.65117,-2.1182781 0.60748,-2.32302567 1.90894,-2.75126737 2.99936,-0.9869334 0.38456,0.622239 1.35065,0.8813605 2.14686,0.5758264 2.36524,-0.9076292 2.62709,0.9545661 0.4021,2.8596607 -2.55791,2.1901556 -2.62908,3.7642799 -0.21053,4.6566206 4.06066,1.498206 4.88796,6.196998 0.91555,5.199978 -1.5989,-0.401298 -3.00769,-0.05455 -3.83668,0.944328 -1.5227,1.834747 -3.80526,2.06029 -4.7863,0.472937 z m 15.4184,-8.1619371 c 0.0238,-2.9330421 0.28749,-3.5353745 1.00832,-2.3031266 0.87281,1.4920537 0.38919,6.2748977 -0.63449,6.2748977 -0.22332,0 -0.39155,-1.787297 -0.37383,-3.9717711 z M 46.23156,10.964803 c 0,-0.679615 1.429837,-1.2356628 3.177417,-1.2356628 1.747579,0 3.177417,0.5560478 3.177417,1.2356628 0,0.679614 -1.429838,1.235662 -3.177417,1.235662 -1.74758,0 -3.177417,-0.556048 -3.177417,-1.235662 z m 4.39745,-5.31132 C 50.423854,5.4483256 50.53062,4.8360659 50.866352,4.2929055 51.808954,2.7677314 56.82295,4.1267372 56.82295,5.9073978 c 0,1.1945373 -0.710121,1.4018267 -2.910461,0.8495768 C 52.311738,6.3552113 50.834175,5.8586393 50.62901,5.653483 Z M 44.642851,4.536212 c 0,-1.1085321 0.834072,-2.17614 1.853494,-2.372462 1.863999,-0.3589741 2.683371,2.8520063 1.125335,4.410039 -1.251288,1.2512924 -2.978829,0.069628 -2.978829,-2.037577 z M 287.97261,-7.1214015 c 1.04239,-1.0423867 2.92006,0.5578348 2.92006,2.4885839 0,1.6167472 -0.13932,1.6138463 -1.79045,-0.037292 -0.98475,-0.9847472 -1.49307,-2.0878289 -1.12961,-2.4512937 z m -9.4722,-0.7135144 c -0.46584,-0.7281582 -1.8002,-1.8516209 -2.96526,-2.4965851 -2.44775,-1.355059 -3.0676,-3.465466 -1.66097,-5.655176 0.81376,-1.266773 1.35775,-1.083329 3.14085,1.059139 1.7979,2.160244 2.1625,2.280578 2.19187,0.723416 0.0194,-1.027326 -0.54249,-2.792946 -1.2486,-3.923603 -1.68188,-2.693132 -0.30297,-3.993392 2.0717,-1.953524 1.02299,0.878763 2.74351,1.912518 3.82337,2.297236 1.24243,0.442633 1.72857,1.311393 1.32392,2.365891 -0.3517,0.916523 -0.63946,2.58065 -0.63946,3.698058 0,1.11741 -0.71491,2.0316547 -1.5887,2.0316547 -0.87379,0 -1.58871,0.7149188 -1.58871,1.5887086 0,1.9289655 -1.69495,2.0858876 -2.86001,0.2647848 z M 78.42929,-18.333052 c -0.427384,-0.691523 0.231072,-2.033673 1.503014,-3.063628 2.263602,-1.832959 2.263602,-1.832959 -0.09628,-3.564836 -2.359868,-1.731877 -2.359868,-1.731877 0.28798,-1.030176 3.250709,0.861464 4.199338,2.20487 4.22034,5.976677 0.01324,2.386366 -0.450918,2.912632 -2.569121,2.912632 -1.421937,0 -2.927609,-0.5538 -3.345937,-1.230669 z m 175.39351,-4.594596 c 0,-0.87379 -0.59576,-1.596007 -1.32392,-1.604927 -0.88261,-0.01081 -0.79435,-0.358452 0.26478,-1.042921 1.95573,-1.263886 2.26545,-1.268679 4.16846,-0.0645 1.2602,0.797426 1.28334,1.248082 0.13509,2.63163 -1.74925,2.107723 -3.24441,2.144923 -3.24441,0.08072 z m -11.35359,-7.582282 c -0.22502,-0.675096 1.04595,-1.547037 2.82438,-1.937648 3.26143,-0.716328 4.12549,-1.983886 2.17438,-3.189739 -0.58253,-0.360021 -1.05914,-1.850105 -1.05914,-3.311298 0,-2.04383 0.42759,-2.523658 1.85349,-2.079949 2.34213,0.728815 5.00817,-0.875364 4.04496,-2.433881 -0.81375,-1.316673 1.40784,-1.570619 3.21046,-0.366981 0.64095,0.427975 1.73388,1.857585 2.42874,3.176913 1.03234,1.960125 0.97672,2.508771 -0.30414,3.000285 -0.86212,0.33083 -1.3083,1.276983 -0.9915,2.102564 0.31681,0.82558 0.0484,1.501056 -0.59644,1.501056 -0.64486,0 -1.17246,0.873789 -1.17246,1.941754 0,1.067966 -0.19859,2.140345 -0.44131,2.383063 -1.04419,1.044202 -11.59219,0.351536 -11.97142,-0.786139 z m -6.65177,-1.4204 c 0,-1.74758 0.47661,-3.177417 1.05914,-3.177417 0.58253,0 1.05914,1.429837 1.05914,3.177417 0,1.747579 -0.47661,3.177417 -1.05914,3.177417 -0.58253,0 -1.05914,-1.429838 -1.05914,-3.177417 z m -16.53479,-5.590356 c -0.42047,-0.420463 0.0299,-0.764479 1.00075,-0.764479 0.97088,0 1.76523,-0.476612 1.76523,-1.059139 0,-0.582526 -0.47661,-1.059139 -1.05914,-1.059139 -0.58252,0 -1.05913,-0.765911 -1.05913,-1.702025 0,-1.064194 0.58486,-1.477589 1.56069,-1.103128 0.85839,0.329392 1.98716,-0.163143 2.50839,-1.094524 1.33471,-2.384991 3.34489,-0.767646 3.34489,2.691218 0,1.596695 0.58458,3.487658 1.29905,4.20214 1.02599,1.025985 0.25903,1.231213 -3.64859,0.976306 -2.72122,-0.177514 -5.29168,-0.666767 -5.71214,-1.08723 z m -82.40341,-2.735028 c -0.86543,-1.400297 0.33864,-2.093749 2.60597,-1.50083 1.12476,0.294135 1.78396,0.957216 1.46487,1.473515 -0.74149,1.199747 -3.33548,1.217153 -4.07084,0.02732 z m 38.81,-12.658809 c -0.23058,-0.69175 0.33539,-1.257728 1.25773,-1.257728 0.92233,0 1.67696,0.754637 1.67696,1.67697 0,1.870362 -2.28007,1.544638 -2.93469,-0.419242 z"
         id="path3673" />
    </g>
  </g>
</svg>
