<?xml version="1.0" encoding="UTF-8" standalone="no"?>
<svg
   xmlns:dc="http://purl.org/dc/elements/1.1/"
   xmlns:cc="http://creativecommons.org/ns#"
   xmlns:rdf="http://www.w3.org/1999/02/22-rdf-syntax-ns#"
   xmlns:svg="http://www.w3.org/2000/svg"
   xmlns="http://www.w3.org/2000/svg"
   xmlns:xlink="http://www.w3.org/1999/xlink"
   xmlns:sodipodi="http://sodipodi.sourceforge.net/DTD/sodipodi-0.dtd"
   xmlns:inkscape="http://www.inkscape.org/namespaces/inkscape"
   width="210mm"
   height="297mm"
   viewBox="0 0 210 297"
   version="1.1"
   id="svg3093"
   inkscape:version="1.0.2 (e86c870879, 2021-01-15)"
   sodipodi:docname="sun-detail.svg">
  <defs
     id="defs3087">
    <linearGradient
       inkscape:collect="always"
       id="linearGradient3705">
      <stop
         style="stop-color:#000000;stop-opacity:1"
         offset="0"
         id="stop3701" />
      <stop
         style="stop-color:#654700;stop-opacity:0.5"
         offset="0.50244504"
         id="stop3709" />
      <stop
         style="stop-color:#8f1603;stop-opacity:0.50205815"
         offset="0.63833016"
         id="stop3711" />
      <stop
         style="stop-color:#500000;stop-opacity:1"
         offset="0.79643208"
         id="stop845" />
      <stop
         style="stop-color:#000000;stop-opacity:1"
         offset="1"
         id="stop3703" />
    </linearGradient>
    <radialGradient
       inkscape:collect="always"
       xlink:href="#linearGradient3705"
       id="radialGradient3707"
       cx="174.44434"
       cy="125.37054"
       fx="174.44434"
       fy="125.37054"
       r="219.18429"
       gradientTransform="matrix(1.2157879,-4.8731753e-8,4.3584528e-8,1.1150673,-37.642978,-14.426045)"
       gradientUnits="userSpaceOnUse" />
    <clipPath
       clipPathUnits="userSpaceOnUse"
       id="clipPath6811">
      <path
         d="M 0,0 H 595.27557 V 841.88977 H 0 Z"
         id="path6809" />
    </clipPath>
    <clipPath
       clipPathUnits="userSpaceOnUse"
       id="clipPath6815">
      <path
         d="m 311.793,559.113 c 1.09,-0.472 1.215,-1.179 0.211,-1.179 -0.758,0 -1.844,-1.27 -1.844,-2.153 0,-1.195 1,-1.867 3.156,-2.121 1.625,-0.191 2.102,-0.41 2.918,-1.34 0.543,-0.621 1.078,-1.711 1.204,-2.468 0.285,-1.688 0.855,-1.926 2.414,-1.008 1.289,0.761 3.3,0.926 5.738,0.465 2.031,-0.383 2.93,0.468 3.137,2.976 0.089,1.055 0.277,1.918 0.418,1.918 0.144,0 0.519,-0.547 0.835,-1.219 1.418,-2.984 -0.98,-6.882 -6.023,-9.789 -1.059,-0.609 -1.59,-1.133 -1.523,-1.488 0.175,-0.93 2.121,-0.832 5.367,0.262 3.023,1.023 4.617,1.101 5.664,0.281 0.711,-0.559 0.484,-0.82 -1.113,-1.266 -1.512,-0.425 -3.211,-1.941 -3.211,-2.867 0,-0.246 0.293,-0.805 0.648,-1.246 0.59,-0.73 0.902,-0.797 3.672,-0.801 2.781,0 3.137,0.078 4.437,0.977 1.707,1.183 2.247,2.769 1.997,5.883 -0.2,2.535 0.07,2.504 2.136,-0.258 1.492,-1.992 1.539,-2.391 0.824,-6.977 -0.242,-1.558 0.356,-2.125 1.563,-1.476 1,0.535 0.82,-0.117 -0.551,-2.028 -0.664,-0.925 -1.504,-1.773 -1.863,-1.89 -0.785,-0.246 -1.238,-1.742 -0.762,-2.504 0.188,-0.297 0.899,-0.586 1.582,-0.645 1.086,-0.093 1.492,0.114 3.156,1.598 1.047,0.934 2.458,1.969 3.125,2.293 1.489,0.727 3.829,0.75 5.559,0.059 1.344,-0.536 2.527,-1.497 2.223,-1.801 -0.098,-0.098 -1.149,-0.278 -2.336,-0.403 -3.071,-0.32 -3.723,-1.031 -3.473,-3.769 0.246,-2.734 0.039,-3.371 -1.668,-5.149 -2.512,-2.609 -2.922,-4.168 -1.472,-5.617 1.394,-1.394 3.949,-0.996 4.597,0.715 0.277,0.723 0.527,0.824 2.012,0.824 0.933,0 2.652,-0.297 3.82,-0.66 1.172,-0.363 2.887,-0.758 3.817,-0.879 1.55,-0.203 1.632,-0.258 1.035,-0.695 -0.36,-0.262 -0.856,-0.477 -1.106,-0.477 -0.586,0 -6.781,-2.968 -7.027,-3.367 -0.102,-0.164 0.504,-0.633 1.348,-1.043 1.375,-0.664 3.527,-2.843 3.168,-3.207 -0.079,-0.078 -0.739,-0.008 -1.465,0.156 -1.492,0.336 -4.696,-0.128 -5.809,-0.843 -1,-0.641 -1.719,-2.449 -1.187,-2.985 0.226,-0.226 1.984,-0.507 4.031,-0.64 1.996,-0.129 4.496,-0.34 5.555,-0.465 1.781,-0.211 2.039,-0.149 3.488,0.832 0.863,0.578 1.644,1.055 1.742,1.055 0.242,0 -0.242,-3.149 -0.547,-3.559 -0.14,-0.187 -0.363,-1.102 -0.496,-2.035 -0.203,-1.445 -0.48,-1.922 -1.898,-3.258 -0.911,-0.859 -2.118,-1.758 -2.68,-1.992 -1.418,-0.586 -1.348,-1.555 0.16,-2.184 0.652,-0.273 1.184,-0.621 1.184,-0.777 0,-0.688 -1.118,-1.762 -2.532,-2.426 -0.843,-0.394 -1.535,-0.863 -1.535,-1.039 0,-0.734 1.578,-1.371 3.379,-1.371 2.555,0.004 4.215,0.519 5.613,1.746 0.649,0.57 1.176,0.981 1.176,0.914 0,-0.406 -1.519,-4.023 -2.054,-4.898 -0.672,-1.086 -4.172,-2.957 -6.36,-3.395 -1.316,-0.262 -2.055,-1.344 -1.363,-1.996 0.25,-0.238 1.43,-0.672 2.621,-0.965 1.191,-0.297 2.219,-0.594 2.289,-0.664 0.375,-0.375 -0.41,-2.316 -1.133,-2.789 -0.859,-0.562 -4.152,-0.555 -6.285,0.012 -1.383,0.371 -1.184,-0.313 0.621,-2.113 2.024,-2.024 3.223,-4.696 3.418,-7.61 0.18,-2.68 -0.195,-3.574 -2.68,-6.433 -1.23,-1.418 -1.722,-2.29 -1.859,-3.305 -0.101,-0.762 -0.324,-1.383 -0.496,-1.383 -0.172,0 -0.613,0.68 -0.98,1.508 -0.512,1.152 -0.653,2.152 -0.602,4.219 0.074,3.078 -0.172,3.57 -2.074,4.14 -1.793,0.535 -4.047,-0.484 -5.242,-2.375 -0.477,-0.758 -0.868,-1.457 -0.868,-1.558 0,-0.098 0.614,-0.422 1.364,-0.723 1.629,-0.652 3.601,-2.844 4.062,-4.516 0.184,-0.66 0.715,-1.867 1.18,-2.679 0.469,-0.813 0.851,-1.559 0.851,-1.657 0,-0.101 -1.824,-0.078 -4.054,0.055 -4.774,0.277 -5.625,0.039 -5.051,-1.418 0.199,-0.512 0.488,-1.34 0.637,-1.84 0.273,-0.914 0.273,-0.914 -1.305,-0.218 -0.871,0.382 -2.016,0.906 -2.543,1.168 -0.527,0.257 -1.102,0.472 -1.277,0.472 -0.375,0 -0.864,-1.172 -1.524,-3.66 -0.636,-2.402 -0.601,-3.242 0.203,-4.816 0.371,-0.731 0.676,-1.403 0.676,-1.496 0,-0.09 -0.762,0.187 -1.699,0.621 -1.066,0.496 -2.07,1.3 -2.699,2.171 -0.996,1.376 -2.426,1.993 -3.926,1.704 -1.07,-0.207 -1.317,-1.821 -0.52,-3.356 0.391,-0.746 0.711,-1.57 0.711,-1.828 0,-0.742 3.793,-3.902 4.746,-3.949 0.465,-0.028 0.036,-0.18 -0.953,-0.344 -0.988,-0.168 -2.461,-0.601 -3.269,-0.973 -0.809,-0.367 -2.301,-0.765 -3.309,-0.886 -2.265,-0.266 -3.668,0.375 -6.355,2.894 -2.047,1.922 -2.836,2.059 -3.004,0.524 -0.063,-0.555 -0.313,-1.243 -0.559,-1.52 -1.004,-1.156 -1.953,-4.039 -1.726,-5.25 0.125,-0.656 0.132,-1.191 0.023,-1.191 -0.484,0 -2.094,1.019 -2.766,1.746 -0.773,0.844 -1.808,3.898 -1.808,5.336 0,0.472 -0.25,1.511 -0.555,2.308 -0.457,1.196 -0.765,1.508 -1.777,1.789 -2.196,0.61 -3.094,0.438 -4.281,-0.82 -0.602,-0.641 -1.176,-1.586 -1.278,-2.101 -0.242,-1.282 0.274,-2.497 1.067,-2.497 0.359,0 1.14,-0.558 1.738,-1.238 0.918,-1.043 1.058,-1.426 0.898,-2.422 -0.242,-1.472 -1.218,-2.535 -3.179,-3.457 -1.676,-0.789 -5.075,-1.57 -5.399,-1.246 -0.113,0.113 0.051,0.602 0.367,1.086 0.321,0.488 0.528,1.344 0.469,1.945 -0.09,0.934 -0.285,1.122 -1.515,1.477 -2.622,0.754 -3.797,1.48 -3.907,2.41 -0.199,1.645 -1.078,1.723 -2.769,0.242 -2.34,-2.05 -3.496,-2.863 -3.731,-2.625 -0.117,0.118 -0.215,0.633 -0.215,1.145 0,1.441 -0.339,2.008 -1.199,2.008 -0.496,0 -1.066,-0.395 -1.539,-1.055 -0.75,-1.055 -0.75,-1.055 -1.273,0.086 -0.301,0.656 -0.532,2.129 -0.543,3.48 -0.016,1.536 -0.164,2.391 -0.438,2.485 -0.652,0.219 -1.906,-1.367 -2.593,-3.281 -0.579,-1.61 -0.586,-1.793 -0.079,-2.352 0.301,-0.332 0.551,-1.125 0.559,-1.766 0.004,-0.636 0.234,-1.453 0.508,-1.816 0.59,-0.781 0.652,-2.086 0.113,-2.418 -0.211,-0.133 -0.527,0.016 -0.699,0.324 -0.508,0.906 -1.688,1.891 -3.375,2.809 -1.117,0.613 -1.817,1.316 -2.414,2.437 -1.176,2.211 -1.309,3.36 -0.742,6.328 0.273,1.426 0.496,2.731 0.496,2.903 0,0.418 -1.246,0.39 -2.059,-0.043 -0.797,-0.426 -2.348,-3.391 -2.348,-4.485 0,-0.433 -0.168,-0.957 -0.371,-1.16 -0.269,-0.269 -0.261,-0.578 0.028,-1.113 0.218,-0.41 0.297,-0.848 0.172,-0.969 -0.356,-0.355 -1.832,1.668 -2.27,3.113 -0.519,1.7 -1.027,1.848 -2.586,0.766 -1.336,-0.926 -2.086,-1.023 -5.086,-0.664 l -1.808,0.219 1.543,0.961 c 2.742,1.703 3.339,3.609 1.015,3.234 -0.629,-0.101 -1.144,-0.129 -1.144,-0.055 0,0.075 0.714,1.153 1.586,2.403 2.785,3.984 2.359,7.406 -0.918,7.406 -1.278,0 -1.582,-0.164 -2.719,-1.484 -0.703,-0.817 -1.207,-1.668 -1.121,-1.891 0.41,-1.07 -4.188,-4.574 -6.004,-4.574 -0.539,0 -0.574,0.129 -0.27,1 0.336,0.961 0.239,4.144 -0.234,7.574 -0.121,0.891 -0.066,2.035 0.125,2.539 0.191,0.508 0.437,1.34 0.551,1.852 0.203,0.933 0.203,0.933 -2.516,0.933 -1.492,0 -2.715,0.078 -2.715,0.18 0,0.098 0.227,0.726 0.508,1.394 0.277,0.672 0.508,1.43 0.508,1.688 0,0.762 -1.152,0.531 -2.746,-0.547 -1.25,-0.848 -1.821,-1.008 -3.524,-1 -1.964,0.004 -2.004,0.024 -1.132,0.496 0.496,0.27 1.238,1.035 1.652,1.707 0.644,1.043 0.715,1.473 0.492,2.973 -0.144,0.961 -0.25,2.258 -0.234,2.875 0.027,1.308 1.398,3.281 2.843,4.09 0.821,0.465 0.957,0.734 0.879,1.734 -0.082,1.004 -0.234,1.203 -0.996,1.289 -0.5,0.059 -2.035,-0.285 -3.418,-0.762 -3.117,-1.074 -3.347,-1.074 -4.648,0.024 -1.692,1.422 -2.074,2.457 -1.719,4.652 0.242,1.492 0.188,2.27 -0.266,3.68 -0.503,1.57 -0.757,1.875 -2.097,2.523 -0.856,0.414 -1.86,0.66 -2.289,0.563 -1.227,-0.289 -0.883,0.097 0.941,1.054 2.59,1.352 4.246,1.461 6.094,0.403 1.629,-0.938 3.336,-1.141 4,-0.477 0.469,0.469 0.535,2.93 0.098,3.621 -0.329,0.516 -4.172,1.364 -6.274,1.383 -1.476,0.012 -1.394,0.317 0.231,0.848 1.062,0.348 2.621,2.207 2.621,3.129 0,0.808 -1.606,2.136 -2.586,2.136 -0.66,0 -1.336,-0.445 -2.375,-1.558 -0.801,-0.859 -1.547,-1.852 -1.657,-2.203 -0.453,-1.422 -0.664,-0.481 -0.609,2.668 0.086,4.746 0.215,5.09 2.274,6.031 0.953,0.434 2.496,0.969 3.429,1.187 2.785,0.653 3.973,1.129 4.36,1.747 0.543,0.859 -0.02,1.214 -2.157,1.371 -2.726,0.199 -4.882,1.582 -6.07,3.89 -0.465,0.903 -0.406,0.918 0.863,0.258 1.5,-0.785 3.114,-0.976 4.563,-0.543 1.699,0.512 1.695,1.172 -0.024,2.645 -1.699,1.453 -2.039,2.672 -2.043,7.3 0,3.637 0.27,4.387 1.043,2.883 0.215,-0.422 0.852,-1.25 1.414,-1.843 0.946,-1 1.145,-1.067 2.653,-0.887 1.265,0.148 1.933,0.031 3.015,-0.531 1.727,-0.903 2.926,-0.926 3.387,-0.067 0.77,1.438 0.422,2.215 -1.769,3.973 -2.254,1.808 -2.543,2.226 -3.661,5.293 -0.39,1.074 -1.089,2.402 -1.55,2.949 -0.84,1 -0.84,1 0.957,0.805 1.308,-0.141 2.343,-0.555 3.801,-1.512 2.21,-1.457 3.386,-1.652 3.917,-0.66 0.559,1.047 0.442,1.281 -1.261,2.461 l -1.61,1.117 1.661,0.172 c 1.003,0.101 1.796,0.383 2,0.711 0.746,1.191 -0.907,4.183 -2.825,5.109 -1.175,0.567 -1.175,0.567 0.086,1.102 2.895,1.226 5.469,0.414 8.496,-2.684 2.012,-2.062 2.789,-2.273 4.336,-1.172 1.953,1.391 2.176,5.664 0.395,7.539 -1.086,1.145 -2.485,1.934 -3.426,1.934 -0.519,0 -0.266,0.41 1.176,1.883 2.019,2.07 3.648,2.941 4.711,2.515 1.125,-0.449 2.836,-2.238 3.082,-3.218 0.129,-0.508 0.605,-1.59 1.062,-2.407 0.614,-1.097 1.035,-1.484 1.625,-1.484 1.168,0 1.336,0.5 1.36,4.066 0.019,2.516 0.156,3.426 0.636,4.153 0.911,1.379 1.215,1.148 1.215,-0.903 0,-2.117 0.985,-4.718 1.992,-5.257 2.028,-1.086 3.657,-0.016 4.012,2.636 0.25,1.856 -0.34,3.336 -2.113,5.305 -1.356,1.504 -2.188,3.211 -2.192,4.504 -0.003,0.324 0.165,0.347 0.653,0.082 0.879,-0.469 3.179,-0.445 3.664,0.039 0.535,0.531 2.344,-0.234 3.035,-1.289 0.762,-1.164 1.992,-1.039 2.672,0.273 0.91,1.758 4.949,5.512 6.422,5.965 0.722,0.223 1.379,0.336 1.457,0.258 0.082,-0.082 -0.297,-0.875 -0.844,-1.77 -1.766,-2.902 -2.09,-3.644 -2.648,-6.039 -0.856,-3.664 -0.137,-5.922 1.886,-5.922 1.039,0 1.985,0.758 2.039,1.633 0.02,0.313 0.059,1.942 0.086,3.621 0.047,2.996 0.071,3.082 1.391,4.828 0.738,0.981 1.457,1.782 1.59,1.782 0.136,0 0.297,-0.649 0.351,-1.442 0.153,-2.082 1.215,-2 2.907,0.231 1.207,1.59 2.48,2.547 4.054,3.047 0.715,0.226 0.715,0.226 0.067,-1.489 -0.446,-1.171 -0.653,-2.57 -0.653,-4.429 0,-2.887 0.407,-4.235 1.778,-5.883 0.726,-0.875 0.953,-0.953 2.097,-0.738 1.969,0.367 2.907,1.511 2.907,3.539 0,1.422 -0.184,1.894 -1.188,3.097 -1.254,1.5 -1.445,2.453 -0.781,3.911 0.871,1.906 4.75,2.792 7.328,1.675 z m -25.527,-21 c -5.395,-1.429 -7.051,-2.051 -10.93,-4.105 -5.469,-2.895 -12.426,-8.492 -15.508,-12.481 -5.062,-6.547 -8.433,-13.738 -10.027,-21.386 -1.031,-4.969 -1.121,-13.77 -0.184,-18.133 0.84,-3.91 2.473,-9.004 3.461,-10.805 0.449,-0.816 0.817,-1.633 0.817,-1.82 0,-0.692 3.777,-6.621 5.917,-9.289 4.817,-6.012 11.559,-11.156 18.149,-13.852 1.211,-0.496 2.465,-1.039 2.785,-1.203 1.914,-1.004 9.383,-2.488 14.16,-2.816 3.223,-0.223 10.942,0.484 13.996,1.281 3.145,0.82 7.09,2.211 8.309,2.93 0.617,0.363 1.25,0.664 1.406,0.664 0.387,0 4.559,2.527 6.504,3.941 0.863,0.629 1.695,1.141 1.852,1.141 0.308,0 0.359,0.047 4.683,4.379 1.664,1.668 3.176,3.308 3.364,3.648 0.187,0.34 0.628,0.824 0.98,1.074 0.352,0.254 0.789,0.785 0.969,1.188 0.32,0.715 1.015,1.879 2.676,4.484 0.984,1.539 3.054,6.195 3.054,6.867 0,0.25 0.215,0.942 0.477,1.528 0.265,0.586 0.554,1.449 0.652,1.914 0.094,0.468 0.418,1.687 0.719,2.711 0.301,1.027 0.637,2.55 0.746,3.39 0.305,2.325 0.348,13.614 0.059,14.575 -0.141,0.468 -0.649,2.449 -1.129,4.406 -1.071,4.379 -1.211,4.769 -3.239,8.984 -2.574,5.336 -4.668,8.246 -9.754,13.559 -6.136,6.406 -13.89,10.953 -22.257,13.047 -4.493,1.128 -6.684,1.324 -13.219,1.199 -5.281,-0.106 -6.555,-0.238 -9.488,-1.02 z"
         clip-rule="evenodd"
         id="path6813" />
    </clipPath>
    <mask
       maskUnits="userSpaceOnUse"
       x="0"
       y="0"
       width="1"
       height="1"
       id="mask6833">
      <g
         id="g6839">
        <g
           clip-path="url(#clipPath6819)"
           id="g6837">
          <path
             d="M -7.106657,-69.832126 H 355.287 V 319.69079 H -7.106657 Z"
             style="fill:url(#radialGradient6831);stroke:none"
             id="path6835" />
        </g>
      </g>
    </mask>
    <clipPath
       clipPathUnits="userSpaceOnUse"
       id="clipPath6819">
      <path
         d="M -7.106657,-69.832126 H 355.287 V 319.69079 H -7.106657 Z"
         id="path6817" />
    </clipPath>
    <radialGradient
       fx="174.44434"
       fy="125.37054"
       cx="174.44434"
       cy="125.37054"
       r="219.1843"
       gradientUnits="userSpaceOnUse"
       spreadMethod="pad"
       id="radialGradient6831">
      <stop
         style="stop-opacity:1;stop-color:#ffffff"
         offset="0"
         id="stop6821" />
      <stop
         style="stop-opacity:0.50000763;stop-color:#ffffff"
         offset="0.502445"
         id="stop6823" />
      <stop
         style="stop-opacity:0.50205234;stop-color:#ffffff"
         offset="0.63833"
         id="stop6825" />
      <stop
         style="stop-opacity:1;stop-color:#ffffff"
         offset="0.796432"
         id="stop6827" />
      <stop
         style="stop-opacity:1;stop-color:#ffffff"
         offset="1"
         id="stop6829" />
    </radialGradient>
    <radialGradient
       fx="174.44434"
       fy="125.37054"
       cx="174.44434"
       cy="125.37054"
       r="219.1843"
       gradientUnits="userSpaceOnUse"
       spreadMethod="pad"
       id="radialGradient6851">
      <stop
         style="stop-opacity:1;stop-color:#000000"
         offset="0"
         id="stop6841" />
      <stop
         style="stop-opacity:1;stop-color:#654700"
         offset="0.502445"
         id="stop6843" />
      <stop
         style="stop-opacity:1;stop-color:#8f1603"
         offset="0.63833"
         id="stop6845" />
      <stop
         style="stop-opacity:1;stop-color:#500000"
         offset="0.796432"
         id="stop6847" />
      <stop
         style="stop-opacity:1;stop-color:#000000"
         offset="1"
         id="stop6849" />
    </radialGradient>
  </defs>
  <sodipodi:namedview
     id="base"
     pagecolor="#ffffff"
     bordercolor="#666666"
     borderopacity="1.0"
     inkscape:pageopacity="0.0"
     inkscape:pageshadow="2"
     inkscape:zoom="2.8"
     inkscape:cx="470.85339"
     inkscape:cy="512.94315"
     inkscape:document-units="mm"
     inkscape:current-layer="layer1"
     inkscape:document-rotation="0"
     showgrid="false"
     inkscape:window-width="2160"
     inkscape:window-height="1888"
     inkscape:window-x="0"
     inkscape:window-y="0"
     inkscape:window-maximized="1"
     showguides="true"
     inkscape:guide-bbox="true"
     inkscape:snap-object-midpoints="true"
     inkscape:snap-bbox="true"
     inkscape:bbox-nodes="false"
     inkscape:snap-bbox-edge-midpoints="true"
     inkscape:snap-bbox-midpoints="true">
    <sodipodi:guide
       position="0,370.23186"
       orientation="-1,0"
       id="guide847"
       inkscape:label=""
       inkscape:locked="false"
       inkscape:color="rgb(0,0,255)" />
    <sodipodi:guide
       position="109.04597,297"
       orientation="0,1"
       id="guide849"
       inkscape:label=""
       inkscape:locked="false"
       inkscape:color="rgb(0,0,255)" />
    <sodipodi:guide
       position="102.5,426.35846"
       orientation="-1,0"
       id="guide851"
       inkscape:label=""
       inkscape:locked="false"
       inkscape:color="rgb(0,0,255)" />
    <sodipodi:guide
       position="210,351.25572"
       orientation="-1,0"
       id="guide853"
       inkscape:label=""
       inkscape:locked="false"
       inkscape:color="rgb(0,0,255)" />
    <sodipodi:guide
       position="-44.099471,0"
       orientation="0,1"
       id="guide855"
       inkscape:label=""
       inkscape:locked="false"
       inkscape:color="rgb(0,0,255)" />
    <sodipodi:guide
       position="-45.970358,148.5"
       orientation="0,1"
       id="guide857"
       inkscape:label=""
       inkscape:locked="false"
       inkscape:color="rgb(0,0,255)" />
    <sodipodi:guide
       position="209.99999,215.5"
       orientation="0,1"
       id="guide1629"
       inkscape:label=""
       inkscape:locked="false"
       inkscape:color="rgb(0,0,255)" />
    <sodipodi:guide
       position="102.5,153.43889"
       orientation="0,-1"
       id="guide873" />
    <sodipodi:guide
       position="102.5,143.56112"
       orientation="0,-1"
       id="guide875" />
  </sodipodi:namedview>
  <metadata
     id="metadata3090">
    <rdf:RDF>
      <cc:Work
         rdf:about="">
        <dc:format>image/svg+xml</dc:format>
        <dc:type
           rdf:resource="http://purl.org/dc/dcmitype/StillImage" />
        <dc:title />
      </cc:Work>
    </rdf:RDF>
  </metadata>
  <g
     inkscape:label="Layer 1"
     inkscape:groupmode="layer"
     id="layer1">
    <g
       id="g3671"
       transform="matrix(0.11289688,0,0,0.11289688,82.805779,67.346058)">
      <path
         style="fill:#8f1603;fill-opacity:1;stroke-width:1.05914"
         d="m 189.21532,343.59699 c 0,-0.83941 -0.48342,-1.82499 -1.07427,-2.19015 -0.59085,-0.36517 -2.10688,-2.65721 -3.36896,-5.09342 -1.91723,-3.70085 -2.27289,-6.07418 -2.16216,-14.42805 0.12213,-9.21381 0.37236,-10.33606 3.18812,-14.29838 2.5707,-3.61748 3.59957,-4.27382 6.4836,-4.13605 5.23167,0.24992 7.52506,2.96323 7.52506,8.90287 0,4.19887 -0.61334,5.76547 -3.70698,9.46831 -4.24384,5.07956 -4.65614,8.49217 -1.6263,13.4613 4.19455,6.87934 17.74261,10.122 25.50952,6.10558 4.46726,-2.31011 4.30272,-6.21499 -0.31738,-7.53206 -2.73101,-0.77853 -3.51568,-1.62 -3.79785,-4.07275 -0.4509,-3.91949 2.02277,-5.84379 7.51211,-5.84379 6.98071,0 12.65433,-4.5887 14.59787,-11.80643 0.60435,-2.24436 1.49646,-4.08065 1.98249,-4.08065 0.48602,0 3.14239,0.99913 5.90305,2.2203 4.88126,2.15921 7.22556,2.22095 14.55961,0.38338 7.15637,-1.79305 11.34783,3.41683 9.92209,12.33291 -0.87082,5.44579 1.35542,5.54339 5.4011,0.2368 4.3962,-5.76636 4.05311,-12.13184 -1.06972,-19.8474 -3.80022,-5.72354 -10.86443,-12.02264 -17.61205,-15.70454 -1.85828,-1.01399 -3.07234,-2.3393 -2.69792,-2.94513 0.91711,-1.48391 7.01896,-0.30472 14.51727,2.80547 3.5749,1.48283 8.19383,2.51284 11.2684,2.51284 9.85165,0 13.07119,-6.51886 4.3373,-8.78204 -4.83844,-1.25376 -9.48374,-4.70575 -9.48374,-7.04748 0,-3.24356 2.92806,-4.59625 11.08179,-5.11953 6.8229,-0.43787 8.32945,-0.1922 11.73722,1.91392 4.46105,2.75707 7.85463,9.163 7.83964,14.79858 -0.005,2.03884 -1.18213,6.09004 -2.6149,9.00268 -4.0943,8.32315 -3.05077,9.17782 3.72816,3.05346 10.82559,-9.78028 14.84909,-20.45133 11.097,-29.43133 -1.21113,-2.89865 -1.37849,-4.41525 -0.5758,-5.21795 0.8027,-0.80269 1.501,-0.76217 2.40256,0.13939 1.7009,1.7009 6.14301,1.62438 6.14301,-0.10581 0,-2.0133 -9.11842,-14.21428 -11.62602,-15.55631 -2.55623,-1.36806 -2.866,-5.8638 -0.46746,-6.78421 3.30077,-1.26662 4.71329,-0.54927 12.20529,6.19843 6.24042,5.62047 8.62533,7.0717 13.36441,8.13225 5.03572,1.12695 6.53065,1.04122 11.76843,-0.67488 3.29997,-1.08119 6.98389,-2.83426 8.18649,-3.89569 1.20259,-1.06145 2.93153,-1.9299 3.84208,-1.9299 1.95015,0 4.64737,-2.91629 3.63424,-3.92942 -0.38544,-0.38544 -4.52835,-0.8465 -9.20647,-1.02457 -8.12708,-0.30935 -12.32373,-1.48173 -13.88199,-3.87808 -0.39376,-0.60554 -0.44257,-4.36164 -0.10846,-8.34689 0.5831,-6.95528 0.46541,-7.4464 -2.93425,-12.24449 -1.94795,-2.74922 -4.13101,-5.36178 -4.85126,-5.80571 -1.6825,-1.03703 -4.62934,-6.92726 -4.62934,-9.25325 0,-1.89933 2.64994,-4.67311 5.2957,-5.54318 2.51667,-0.82761 7.23055,2.10831 7.60356,4.73571 0.30736,2.16497 0.99707,2.42557 7.18848,2.71601 4.56563,0.21417 8.41283,-0.27616 11.54141,-1.47097 2.58109,-0.98573 8.79321,-2.33563 13.8047,-2.99977 11.75309,-1.55757 11.89333,-3.12918 0.6387,-7.15736 -9.10897,-3.26023 -19.58746,-8.36255 -19.59156,-9.53979 -0.001,-0.39764 0.92931,-1.01873 2.06822,-1.3802 2.63779,-0.83721 11.89616,-11.07138 11.38985,-12.59031 -0.23932,-0.71795 -4.49245,-1.15901 -11.42228,-1.18453 -12.81839,-0.0472 -16.11439,-1.23856 -15.6058,-5.64078 0.32548,-2.81739 0.41774,-2.84728 10.91965,-3.53691 5.82526,-0.38254 13.31405,-1.03585 16.64175,-1.4518 5.81675,-0.72705 6.26118,-0.60481 11.51004,3.16612 6.78652,4.87564 7.90738,4.11794 6.42119,-4.34068 -3.20061,-18.21624 -5.28593,-22.15093 -15.38644,-29.03187 -4.46388,-3.04101 -4.41578,-4.33888 0.21234,-5.72951 2.12565,-0.6387 3.37261,-1.70105 3.37261,-2.87331 0,-2.39899 -8.3152,-10.41168 -10.80475,-10.41168 -2.82063,0 -2.30951,-2.01689 0.81188,-3.20363 6.49329,-2.46875 14.86781,-0.32238 21.07838,5.4023 2.47989,2.28589 4.81305,4.15616 5.1848,4.15616 1.87754,0 0.38998,-9.09946 -2.3857,-14.59337 -4.19608,-8.305311 -9.69999,-12.506947 -21.09064,-16.100405 -3.08953,-0.974662 -5.7109,-2.137406 -5.82527,-2.583865 -0.23647,-0.923103 6.00182,-3.231221 11.54265,-4.270692 4.51656,-0.847312 5.15729,-2.237029 3.63605,-7.886466 -1.68998,-6.276109 -4.5545,-7.770576 -14.07463,-7.34298 -7.80117,0.350395 -7.80117,0.350395 -6.1453,-2.555544 0.91073,-1.598262 2.01019,-2.908946 2.44325,-2.912632 0.43305,-0.0032 2.25754,-2.985523 4.05441,-6.626313 4.48383,-9.085052 5.37591,-19.679895 2.18388,-25.936802 -1.2261,-2.403345 -2.7345,-4.681967 -3.352,-5.063606 -0.61749,-0.381629 -3.00737,-3.078144 -5.31083,-5.992238 -3.44403,-4.357024 -4.1881,-6.1282193 -4.1881,-9.9693673 0,-3.81626344 -0.35384,-4.67101728 -1.93366,-4.67101728 -2.80587,0 -6.2814,4.16100478 -8.21468,9.83485838 -1.37953,4.0487182 -1.45699,5.6278202 -0.42884,8.7431292 0.69012,2.091101 0.9509,5.421744 0.57951,7.401423 -0.56129,2.991952 -1.30212,3.772516 -4.38957,4.624996 -5.16537,1.426236 -10.90634,-0.704963 -13.9488,-5.178142 -2.38713,-3.50968 -2.38713,-3.50968 2.60527,-6.789219 5.07462,-3.333534 10.80373,-10.4018155 10.86764,-13.4079139 0.07,-3.2917608 5.28147,-12.4846782 7.47169,-13.1798272 1.32232,-0.4196881 2.07519,-1.4144898 1.86659,-2.4664009 -0.40053,-2.019674 -1.68503,-2.069859 -19.6297,-0.766924 -13.86171,1.006478 -13.97244,0.900098 -9.14553,-8.786251 1.52338,-3.05703 2.50168,-5.826346 2.17399,-6.154035 -0.32769,-0.327688 -2.27373,0.441222 -4.32454,1.708689 -5.88233,3.635483 -16.38996,7.455397 -17.14544,6.233007 -1.22841,-1.987614 -3.57221,-11.979237 -3.58487,-15.282331 -0.0127,-3.316999 2.46751,-9.403766 4.29106,-10.530781 1.08836,-0.672644 1.38936,-5.783815 0.34061,-5.783815 -0.3583,0 -3.87874,1.530549 -7.82321,3.401218 -5.35107,2.537753 -7.6698,4.326024 -9.13356,7.04406 -2.37084,4.402376 -7.8676,7.112078 -11.01272,5.428864 -2.66973,-1.4288 -2.66029,-4.936297 0.0242,-8.989737 1.15738,-1.74758 2.10747,-3.970946 2.1113,-4.940813 0.01,-2.297226 10.21363,-10.411925 13.11979,-10.432923 3.27553,-0.02367 5.15519,-1.544776 4.71756,-3.817681 -0.32249,-1.674893 -1.39106,-2.002289 -6.72383,-2.060105 -4.11131,-0.04458 -8.15648,-0.882392 -11.50596,-2.383063 -10.09347,-4.522182 -24.67811,-2.220907 -29.9802,4.730502 -5.21421,6.836173 -6.00003,6.636118 -10.83723,-2.758947 -4.33877,-8.427015 -5.3467,-13.433036 -3.14744,-15.632295 1.53982,-1.539821 0.29065,-3.48153 -2.23979,-3.48153 -2.89426,0 -8.74964,3.71948 -11.31256,7.186031 -1.21797,1.647384 -3.01307,6.54296 -3.98913,10.879059 -2.354,10.457568 -3.96283,15.827178 -4.9192,16.418248 -0.43134,0.266583 -2.9908,0.787138 -5.6877,1.156789 -4.40324,0.603532 -5.22253,0.366392 -8.03138,-2.324656 -2.39362,-2.293229 -3.12793,-3.944808 -3.12793,-7.03515 0,-3.050326 0.42852,-4.0384 1.7514,-4.0384 0.96328,0 3.58465,-1.985754 5.82527,-4.412787 4.832,-5.234006 5.29691,-9.346161 1.6658,-14.734364 -3.53333,-5.243105 -18.02238,-11.866933 -25.65912,-11.730344 -7.18067,0.128433 -11.74959,3.225533 -6.26707,4.248205 6.57264,1.226014 8.7513,10.742203 2.45934,10.742203 -1.0778,0 -4.59403,1.247329 -7.81385,2.771841 -4.62495,2.189812 -5.85422,3.288674 -5.85422,5.233189 0,3.463754 -2.09547,4.354047 -4.11709,1.749215 -2.54813,-3.283215 -14.14,-11.965136 -15.41021,-11.541732 -0.60711,0.202371 -0.95587,2.085398 -0.77503,4.184505 0.39385,4.571269 -1.36027,8.350198 -3.49564,7.530777 -0.83806,-0.321593 -2.48286,-2.210295 -3.65511,-4.197115 -2.18489,-3.703109 -4.11769,-4.637002 -4.73628,-2.288478 -0.1918,0.728158 -1.17387,3.814839 -2.18238,6.85929 -1.24772,3.766553 -1.60359,6.897173 -1.11366,9.797037 1.03519,6.127221 -1.09548,5.45255 -4.10175,-1.29881 -2.23959,-5.029595 -2.33331,-5.844038 -0.98163,-8.530468 0.82189,-1.633495 1.34965,-3.824185 1.17277,-4.868202 -0.17686,-1.044017 0.36582,-2.726473 1.20597,-3.738789 2.04429,-2.463225 2.04424,-12.082438 -6e-5,-13.364336 -1.12662,-0.706453 -2.77869,0.389191 -6.29374,4.173997 -2.62136,2.82254 -6.77117,6.146843 -9.22177,7.38734 -3.00438,1.520812 -5.41922,3.894676 -7.413973,7.288143 -2.798521,4.760832 -2.950147,5.676356 -2.807026,16.94801 0.08325,6.553424 -0.1551,11.908017 -0.529569,11.899097 -3.460165,-0.08242 -7.762981,-9.437433 -8.395848,-18.253931 -0.417375,-5.814419 -0.848582,-7.149189 -2.309612,-7.149189 -2.024999,0 -8.51034,8.430276 -8.51034,11.062562 0,2.643052 -3.010677,3.185249 -5.44837,0.981206 -1.884833,-1.704163 -3.920435,-1.975349 -14.523719,-1.934873 -14.761527,0.05635 -15.742481,1.198033 -5.763887,6.708315 5.814482,3.210809 8.61707,5.950436 7.366513,7.200994 -0.227673,0.227678 -2.685204,-0.09504 -5.461165,-0.717144 -2.775961,-0.622107 -5.341428,-0.830113 -5.701017,-0.462236 -0.359598,0.367876 0.955206,2.01789 2.921805,3.666696 1.966588,1.648808 5.420504,5.772676 7.675379,9.164152 3.460514,5.204829 4.100298,7.037435 4.103147,11.753017 0.0032,5.121027 -0.239408,5.679118 -2.909264,6.695524 -5.259589,2.002309 -8.918014,0.05676 -12.15612,-6.46462 -5.234646,-10.542315 -13.068388,-16.898887 -22.632487,-18.364797 -5.215656,-0.799416 -6.363879,0.02294 -3.872276,2.773306 1.482308,1.636255 1.840434,3.891728 1.77946,11.20691 -0.04194,5.037106 -0.464867,12.128688 -0.939743,15.7590737 -0.620994,4.7474861 -0.500644,7.03778859 0.428634,8.15750196 C 22.958791,2.9598699 21.105934,6.1834973 17.298647,6.3159141 11.041635,6.5335322 8.6406832,6.0181403 6.4455859,3.9861672 5.2429865,2.872941 3.932302,1.9621206 3.5329536,1.9621206 c -1.1376953,0 -0.8496307,4.0351939 0.3405768,4.7707808 2.2768946,1.4071944 6.1619966,11.1163056 4.4481931,11.1163056 -0.5404892,0 -2.8365119,-1.28731 -5.102275,-2.860703 -3.73378273,-2.592794 -4.989445,-2.855315 -13.4081595,-2.803249 -5.108725,0.03159 -9.565116,0.333975 -9.903087,0.671954 -1.200291,1.200291 0.822124,2.87372 3.473012,2.87372 1.658061,0 4.099365,1.408115 6.359102,3.667851 3.6678513,3.667852 3.6678513,3.667852 2.9305211,13.712558 -0.7373302,10.044705 -0.7373302,10.044705 5.7584858,16.540522 10.2789016,10.278902 8.2845641,12.428425 -6.6715271,7.190664 -9.7272388,-3.406572 -9.7272388,-3.406572 -13.6468368,-0.984131 -2.155771,1.332344 -5.143708,4.511234 -6.639848,7.064204 -2.550386,4.351918 -2.645242,5.003024 -1.519165,10.427362 2.447416,11.789086 -2.305248,18.626645 -12.952847,18.635023 -2.767,0.0021 -5.03091,0.406709 -5.03091,0.898944 0,1.464885 3.356644,3.983676 9.23226,6.927818 6.427926,3.220896 16.086426,3.853516 18.290304,1.198016 1.574293,-1.89691 8.057442,-3.823918 10.155882,-3.018676 2.3051738,0.884582 2.0289822,9.540346 -0.343796,10.774396 -2.2949,1.19355 -14.616998,3.34711 -19.151256,3.34711 -2.583452,0 -3.355448,0.46023 -3.355448,2.0004 0,1.44554 1.022641,2.19225 3.686799,2.69206 2.431836,0.45621 4.59499,1.88233 6.354834,4.18961 3.112661,4.0809 3.263165,5.19943 1.003672,7.45893 -3.560656,3.56066 -8.565246,1.40544 -13.163583,-5.6689 -3.439808,-5.29199 -5.519046,-7.49469 -7.074593,-7.49469 -1.160117,0 -1.385958,0.53038 -0.789228,1.8535 0.459751,1.01942 0.890736,7.09623 0.957737,13.50402 0.07552,7.22058 0.634519,12.58311 1.47018,14.10317 1.595667,2.9025 8.28502,5.9713 19.090324,8.75784 11.9935734,3.09297 14.1435832,6.26531 4.246236,6.26531 -6.877296,0 -12.951956,3.14204 -16.616609,8.59471 -1.580013,2.35092 -4.18344,5.85044 -5.785388,7.7767 -1.601948,1.92627 -2.912632,4.03515 -2.912632,4.68642 0,1.98813 3.785977,1.31929 5.925893,-1.04689 4.525934,-5.00447 14.315492,-7.81118 18.34612,-5.2599 1.200576,0.75993 0.610445,2.01288 -2.952202,6.26807 -4.16661,4.97656 -4.520437,5.91432 -5.506749,14.59449 -1.433312,12.61411 0.269169,23.69819 3.639974,23.69819 0.825059,0 1.802178,-1.20355 2.171373,-2.67455 0.369195,-1.471 2.324842,-4.50485 4.34588,-6.7419 3.407494,-3.77169 4.032651,-4.04056 8.5997749,-3.69864 3.2874615,0.24611 6.5036642,-0.32953 9.672375,-1.73121 2.6109789,-1.15496 5.3847898,-2.09992 6.1640301,-2.09992 1.8715198,0 3.922129,3.92829 2.914062,5.58237 -0.9098321,1.49289 -5.1367817,5.03826 -7.8661299,6.59773 -3.5357555,2.02023 -8.2897962,9.19384 -10.0066182,15.09951 -1.1185673,3.84772 -3.0181329,7.22833 -5.3999669,9.61016 -2.020912,2.02091 -3.427395,4.318 -3.12553,5.10466 1.288188,3.35696 15.72561916,0.0843 21.3279455,-4.83465 3.7317068,-3.27648 8.1991655,-4.26905 9.5291055,-2.11716 0.39097,0.6326 -1.725655,3.40191 -4.703615,6.15403 -2.9779602,2.75213 -5.4144671,5.5364 -5.4144671,6.18728 0,0.80066 1.8767201,0.98972 5.8025461,0.58454 7.284758,-0.75185 8.41415,1.02082 4.886719,7.67009 -1.741606,3.28295 -3.501916,4.9161 -6.618422,6.1403 -5.5866193,2.19449 -5.1423846,4.80241 1.234215,7.24567 9.862882,3.77904 17.03445,1.64968 26.907214,-7.98923 6.774168,-6.61371 9.545744,-7.34112 13.190146,-3.46185 3.459085,3.68204 4.779217,9.46739 3.248592,14.2366 -2.327617,7.25253 -5.987779,9.92355 -14.758562,10.77011 -6.631746,0.6401 -8.007769,3.03948 -2.553648,4.45278 1.868385,0.48414 5.391876,3.1495 8.214936,6.21418 6.444427,6.99601 11.044458,9.02427 15.786277,6.96055 4.669807,-2.03237 8.633666,-6.02531 10.246619,-10.32178 2.58915,-6.89676 5.256485,-10.98003 7.172574,-10.98003 1.687017,0 1.934761,1.13823 2.121296,9.74602 0.218691,10.09162 1.424161,13.99978 5.438891,17.63306 1.187983,1.07511 2.604793,1.67984 3.14847,1.34383 0.543667,-0.33601 1.207482,-4.39372 1.475127,-9.01714 0.317021,-5.47642 1.122486,-9.37667 2.311052,-11.19063 2.00423,-3.05885 6.133039,-5.07794 8.514829,-4.16395 2.03453,0.78072 3.79019,6.07844 3.79019,11.43695 0,3.75536 -0.79309,5.26046 -5.792511,10.99289 -5.433627,6.23029 -6.626811,8.75159 -8.50298,17.9676 -0.842217,4.13704 -0.224845,4.26287 3.897261,0.79435 3.47925,-2.9276 5.937,-3.2492 10.9575,-1.43376 4.41413,1.59617 7.74437,0.65309 11.84259,-3.35368 3.35508,-3.28021 3.35508,-3.28021 5.23893,-0.30553 3.29243,5.19891 10.28099,12.79446 14.72846,16.00773 3.69003,2.66601 13.44983,7.62017 15.0119,7.62017 1.29988,0 -1.3679,-6.58906 -5.7608,-14.22836 -6.59301,-11.46535 -9.43818,-24.02162 -6.6315,-29.26597 1.22294,-2.28507 6.75227,-2.85675 8.00625,-0.82777 0.415,0.67149 0.80058,6.03417 0.85686,11.91709 0.10231,10.69621 0.10231,10.69621 4.97085,17.04928 2.67768,3.49417 5.43498,7.42543 6.12731,8.73611 0.69232,1.31069 1.90205,2.38307 2.68826,2.38307 1.10995,0 1.30596,-1.53888 0.87687,-6.88441 -0.45064,-5.61398 -0.26405,-6.8844 1.01109,-6.8844 0.86004,0 2.0582,1.08529 2.66259,2.41177 2.26772,4.97712 6.90445,9.15578 13.67517,12.32418 7.90551,3.69943 8.86702,3.88846 8.86702,1.74322 z m -34.73776,-68.38705 c -7.34629,-0.954 -36.62704,-8.9059 -38.8724,-10.55673 -0.58252,-0.4283 -5.7896,-3.27705 -11.57129,-6.33058 C 92.0289,251.98234 86.746528,248.22636 72.963476,236.23035 62.228891,226.88755 59.069437,223.25399 49.371896,209.09858 41.352255,197.39239 38.150859,191.07315 32.667209,176.12523 c -6.358043,-17.33145 -7.960775,-27.23587 -8.044764,-49.71427 -0.05974,-15.98877 0.32041,-20.9325 2.356266,-30.643125 3.08505,-14.715001 9.225143,-32.348978 11.82283,-33.954443 0.591349,-0.365466 1.075185,-1.415624 1.075185,-2.333675 0,-0.91804 2.956745,-6.632784 6.570549,-12.699427 21.586036,-36.237374 62.084655,-63.225409 103.579905,-69.025035 14.64085,-2.046292 31.37345,-2.573198 38.92031,-1.225592 29.47112,5.262514 30.37029,5.54319 51.54035,16.0883852 17.42246,8.6784448 35.46335,23.2059678 48.34092,38.9267588 22.73879,27.759273 36.04887,70.059913 32.84942,104.398403 -3.22248,34.58562 -14.2579,62.11173 -33.6982,84.05484 -7.452,8.41141 -21.54601,22.42006 -26.60958,26.44844 -6.07039,4.82937 -22.72396,14.57178 -28.64131,16.7553 -2.67036,0.98537 -5.3318,2.12268 -5.91433,2.52736 -3.36076,2.33471 -28.75927,8.84538 -38.12901,9.77402 -8.49225,0.84167 -26.66871,0.68586 -34.20819,-0.29323 z"
         id="path3675" />
      <path
         style="fill:url(#radialGradient3707);fill-opacity:1;fill-rule:evenodd;stroke-width:1.05914"
         d="m 218.68113,339.27619 c 3.39569,-1.47489 3.78985,-3.68526 0.65715,-3.68526 -2.36573,0 -5.76276,-3.96145 -5.76276,-6.72025 0,-3.73894 3.12467,-5.84024 9.86204,-6.63208 5.07249,-0.59617 6.56529,-1.28171 9.11532,-4.18603 1.69859,-1.93459 3.36669,-5.351 3.76564,-7.71235 0.8916,-5.27736 2.67102,-6.02093 7.53744,-3.14967 4.0306,2.37812 10.31012,2.88663 17.92676,1.45171 6.35182,-1.19664 9.16062,1.46524 9.81008,9.29692 0.27372,3.30067 0.86096,6.00122 1.30498,6.00122 0.44401,0 1.62087,-1.71448 2.61525,-3.80995 4.42807,-9.33146 -3.06613,-21.50717 -18.82996,-30.59279 -3.29914,-1.90148 -4.96892,-3.53423 -4.75745,-4.65195 0.54835,-2.89834 6.63258,-2.59828 16.76841,0.82694 9.45457,3.19502 14.43367,3.44237 17.6973,0.87916 2.23216,-1.75311 1.51815,-2.56901 -3.47056,-3.96577 -4.72438,-1.32274 -10.03346,-6.06311 -10.03346,-8.95867 0,-0.76456 0.90945,-2.51323 2.02099,-3.88593 1.8491,-2.28354 2.82502,-2.49622 11.47423,-2.5004 8.6977,-0.004 9.80573,0.23958 13.86359,3.05036 5.33553,3.69579 7.01816,8.64668 6.24546,18.37626 -0.62952,7.92673 0.21619,7.82565 6.67337,-0.79758 4.66788,-6.2337 4.814,-7.47171 2.57398,-21.80705 -0.76114,-4.87103 1.10674,-6.63356 4.88636,-4.61077 3.11608,1.66768 2.55994,-0.37374 -1.72772,-6.34184 -2.07309,-2.88559 -4.69335,-5.53984 -5.8228,-5.8983 -2.44607,-0.77636 -3.86129,-5.44438 -2.37194,-7.82372 0.58167,-0.92925 2.80644,-1.83807 4.94394,-2.01958 3.38268,-0.28725 4.65957,0.35913 9.85236,4.98739 3.28129,2.92457 7.68012,6.1527 9.77518,7.17362 4.64241,2.26225 11.95444,2.33682 17.37029,0.17716 4.19616,-1.67329 7.89704,-4.67185 6.94327,-5.62562 -0.30378,-0.30378 -3.59256,-0.87009 -7.3084,-1.25847 -9.58748,-1.00209 -11.62741,-3.21623 -10.85108,-11.77775 0.77497,-8.54654 0.13189,-10.53124 -5.21236,-16.08668 -7.84563,-8.15567 -9.12103,-13.02867 -4.59465,-17.55505 4.35314,-4.35314 12.3391,-3.11349 14.371,2.23081 0.86056,2.26345 1.63869,2.58346 6.28189,2.58346 2.91482,0 8.28851,-0.92921 11.94153,-2.0649 3.65303,-1.1357 9.01511,-2.37282 11.91574,-2.74918 4.85005,-0.6293 5.11041,-0.80381 3.23977,-2.17166 -1.11876,-0.81805 -2.67484,-1.48738 -3.45794,-1.48738 -1.82959,0 -21.18642,-9.27187 -21.95582,-10.51677 -0.32011,-0.51795 1.57713,-1.98695 4.21607,-3.26444 4.29588,-2.0796 11.01838,-8.89071 9.88937,-10.01972 -0.24322,-0.24322 -2.299,-0.0234 -4.56841,0.48839 -4.66924,1.05309 -14.67449,-0.39909 -18.15856,-2.63556 -3.12105,-2.00345 -5.37006,-7.6607 -3.70798,-9.32719 0.71232,-0.71422 6.19745,-1.58597 12.59778,-2.00216 6.23488,-0.40543 14.04335,-1.05746 17.35215,-1.44894 5.56545,-0.65847 6.38246,-0.46445 10.90927,2.59065 2.6913,1.81634 5.13689,3.30243 5.43464,3.30243 0.76307,0 -0.74656,-9.83685 -1.7067,-11.12096 -0.43556,-0.58253 -1.13057,-3.4422 -1.54445,-6.35483 -0.64259,-4.52211 -1.50874,-6.01005 -5.92938,-10.1859 -2.84727,-2.68961 -6.61997,-5.48795 -8.38377,-6.21855 -4.42594,-1.83328 -4.20407,-4.86283 0.50008,-6.82835 2.03885,-0.85189 3.70699,-1.94377 3.70699,-2.4264 0,-2.1514 -3.50023,-5.50386 -7.91128,-7.57731 -2.63911,-1.24053 -4.79839,-2.70265 -4.79839,-3.24916 0,-2.29258 4.92559,-4.29097 10.56227,-4.28528 7.97932,0.008 13.16621,1.62243 17.53387,5.45728 2.02291,1.77615 3.67779,3.06084 3.6775,2.85486 -0.002,-1.27017 -4.7499,-12.57561 -6.42726,-15.303664 -2.09054,-3.400016 -13.03648,-9.24621 -19.87126,-10.613166 -4.10916,-0.821829 -6.4138,-4.199995 -4.25459,-6.236413 0.78503,-0.74038 4.46979,-2.098821 8.18837,-3.018758 3.71858,-0.919936 6.93902,-1.850591 7.15654,-2.068117 1.17531,-1.175295 -1.28911,-7.245221 -3.54052,-8.720401 -2.68085,-1.756561 -12.98135,-1.734117 -19.64454,0.04279 -4.31657,1.151136 -3.69081,-0.977533 1.94374,-6.612089 6.32189,-6.321895 10.07172,-14.669606 10.67913,-23.773436 0.5588,-8.375322 -0.60594,-11.172625 -8.3731,-20.109228 -3.84525,-4.424207 -5.37733,-7.1504172 -5.80335,-10.326609 -0.31835,-2.3734872 -1.01948,-4.3154484 -1.55806,-4.3154484 -0.53858,0 -1.91797,2.1221567 -3.06531,4.7159036 -1.59131,3.5974138 -2.03669,6.7227988 -1.87787,13.1775838 0.23682,9.624778 -0.5292,11.155287 -6.47482,12.936643 -5.60775,1.680123 -12.64969,-1.508712 -16.37958,-7.417236 -1.49514,-2.368468 -2.71844,-4.557931 -2.71844,-4.865494 0,-0.307553 1.91734,-1.32635 4.26074,-2.264005 5.08868,-2.036079 11.25365,-8.886456 12.69726,-14.1088928 0.57213,-2.0697665 2.23337,-5.8374642 3.69165,-8.3726629 1.45827,-2.5351977 2.65141,-4.8666255 2.65141,-5.1809504 0,-0.314326 -5.69924,-0.2381411 -12.66497,0.1692981 -14.91635,0.872487 -17.57857,0.125044 -15.78501,-4.431795 0.62634,-1.59133 1.52375,-4.178032 1.99423,-5.748229 0.85543,-2.854905 0.85543,-2.854905 -4.08499,-0.682011 -2.71723,1.195091 -6.28973,2.837257 -7.93888,3.649258 -1.64916,0.812 -3.44825,1.476364 -3.99799,1.476364 -1.17411,0 -2.69285,-3.652572 -4.75568,-11.43742 -1.98854,-7.504519 -1.87874,-10.121227 0.63117,-15.041057 1.16505,-2.283692 2.11828,-4.387535 2.11828,-4.675206 0,-0.287671 -2.3896,0.584079 -5.31022,1.937223 -3.33657,1.545856 -6.47368,4.066362 -8.44057,6.781579 -3.11292,4.297266 -7.57381,6.232198 -12.26936,5.321901 -3.33961,-0.647428 -4.11429,-5.680286 -1.61301,-10.479105 1.2176,-2.336025 2.21382,-4.908077 2.21382,-5.715673 0,-2.322912 11.85012,-12.187961 14.82795,-12.344057 1.45632,-0.07634 0.11999,-0.559464 -2.96963,-1.073611 -3.0896,-0.514146 -7.68902,-1.878514 -10.22091,-3.031927 -2.5319,-1.153413 -7.18327,-2.400322 -10.33638,-2.770908 -7.07612,-0.831659 -11.46289,1.16565 -19.85727,9.041066 -6.40194,6.006177 -8.86188,6.436073 -9.39658,1.642145 -0.19438,-1.742599 -0.97599,-3.88328 -1.73693,-4.757069 -3.13818,-3.603597 -6.10594,-12.619201 -5.39735,-16.396336 0.38458,-2.050018 0.41568,-3.727307 0.0691,-3.727307 -1.50828,0 -6.5386,3.181011 -8.63396,5.459847 -2.42002,2.6319 -5.65981,12.17651 -5.65981,16.674114 0,1.476743 -0.77774,4.721468 -1.72831,7.210501 -1.42668,3.735687 -2.39712,4.711291 -5.56048,5.589982 -6.85263,1.903472 -9.66491,1.364661 -13.36737,-2.561087 -1.88677,-2.000554 -3.68241,-4.955259 -3.99032,-6.566011 -0.76613,-4.007743 0.85222,-7.801982 3.32777,-7.801982 1.11912,0 3.56434,-1.742086 5.43382,-3.871304 2.86009,-3.25746 3.30399,-4.457124 2.79951,-7.56585 -0.74679,-4.601891 -3.80328,-7.928296 -9.93212,-10.809189 -5.23062,-2.458684 -15.8502,-4.905626 -16.86892,-3.886903 -0.35629,0.35629 0.15992,1.880528 1.14712,3.387196 1.0061,1.535496 1.65098,4.208747 1.46739,6.082811 -0.28572,2.916642 -0.89,3.505466 -4.73401,4.61293 -8.20001,2.362431 -11.86343,4.622136 -12.21343,7.533627 -0.61796,5.140371 -3.36406,5.379661 -8.64953,0.753705 -7.31393,-6.401286 -10.92335,-8.941146 -11.6598,-8.204697 -0.3686,0.368605 -0.67019,1.981612 -0.67019,3.58446 0,4.494544 -1.05919,6.264936 -3.74818,6.264936 -1.54614,0 -3.33459,-1.224862 -4.80633,-3.291723 -2.3439,-3.291723 -2.3439,-3.291723 -3.97937,0.264785 -0.94397,2.052764 -1.66274,6.652589 -1.69998,10.879059 -0.0423,4.793464 -0.51354,7.473317 -1.36459,7.759068 -2.03915,0.684674 -5.9529,-4.263079 -8.10397,-10.245007 -1.80984,-5.032989 -1.82936,-5.604698 -0.251,-7.348766 0.94133,-1.040159 1.72666,-3.521812 1.74518,-5.514787 0.0185,-1.992974 0.73346,-4.548756 1.58871,-5.679516 1.84777,-2.442974 2.04002,-6.521999 0.35642,-7.562519 -0.65923,-0.407428 -1.64022,0.04836 -2.17999,1.012871 -1.58603,2.834072 -5.28122,5.912398 -10.54599,8.785464 -3.49983,1.909907 -5.6787,4.108049 -7.541193,7.60787 -3.676589,6.908696 -4.099843,10.508315 -2.325817,19.780286 0.852321,4.4547 1.54968,8.534141 1.54968,9.065424 0,1.303931 -3.892834,1.22445 -6.425892,-0.1312 -2.489835,-1.33252 -7.342915,-10.594195 -7.342915,-14.013311 0,-1.359176 -0.520768,-2.991995 -1.157258,-3.628488 -0.836921,-0.836918 -0.813164,-1.800203 0.08579,-3.479956 0.683685,-1.277484 0.923432,-2.639338 0.532747,-3.026341 -1.112625,-1.102178 -5.716734,5.216138 -7.092503,9.733212 -1.615303,5.303512 -3.20273,5.774652 -8.07657,2.39708 -4.176937,-2.894621 -6.519657,-3.200606 -15.889786,-2.075367 l -5.648653,0.678334 4.815217,2.997068 c 8.565235,5.331136 10.433175,11.288194 3.170024,10.109547 -1.964767,-0.31884 -3.572317,-0.394204 -3.572317,-0.167474 0,0.226731 2.230494,3.602994 4.956664,7.502806 8.702882,12.44959 7.37649,23.14824 -2.869864,23.14824 -3.994108,0 -4.938839,-0.516291 -8.490471,-4.640051 -2.197968,-2.552029 -3.77654,-5.212744 -3.507943,-5.9127 1.28266,-3.342569 -13.088373,-14.288874 -18.759385,-14.288874 -1.681616,0 -1.791735,0.407639 -0.844303,3.125447 1.046133,3.000926 0.741164,12.95016 -0.725277,23.6620611 -0.382138,2.7913356 -0.207337,6.3659301 0.388428,7.94354314 0.595766,1.57761206 1.36934,4.17907046 1.719057,5.78101836 0.635833,2.9126325 0.635833,2.9126325 -7.857456,2.9126325 -4.671311,0 -8.4932881,0.253614 -8.4932881,0.563588 0,0.309973 0.7149188,2.2746289 1.5887085,4.3658999 0.8737896,2.09128 1.5887086,4.459028 1.5887086,5.261675 0,2.385341 -3.6047373,1.671502 -8.5785176,-1.698774 -3.9063483,-2.646979 -5.6893028,-3.154402 -11.015554,-3.13502 -6.1380814,0.02235 -6.2587914,0.07531 -3.5390384,1.552529 1.548694,0.841168 3.8745631,3.242512 5.1686085,5.336313 2.0131902,3.257414 2.2349739,4.597575 1.5364823,9.284381 -0.4489796,3.012605 -0.7808502,7.059184 -0.737489,8.992398 0.091615,4.086551 4.3746995,10.245625 8.8869387,12.779562 2.5732206,1.445047 3.0004773,2.286808 2.7499379,5.417846 -0.2509524,3.136153 -0.7310707,3.757232 -3.1178722,4.033308 -1.551681,0.179471 -6.3536371,-0.892908 -10.671016,-2.383063 -9.7396832,-3.361697 -10.4635832,-3.358477 -14.5317052,0.06461 -5.288206,4.449729 -6.481072,7.684118 -5.364401,14.545231 0.758545,4.660636 0.582834,7.093913 -0.830079,11.49543 -1.576338,4.910666 -2.36653,5.86118 -6.558411,7.889029 -2.675216,1.294152 -5.81158,2.062176 -7.149188,1.750662 -3.84208,-0.894782 -2.766016,0.311535 2.938729,3.294462 8.092129,4.231258 13.261787,4.573018 19.038405,1.258607 5.09699,-2.924474 10.427403,-3.559618 12.4978401,-1.489181 1.469746,1.469746 1.6791272,9.154272 0.3083895,11.318722 -1.0200144,1.61066 -13.0297926,4.25593 -19.6023746,4.3176 -4.610083,0.0432 -4.35196,0.99225 0.720775,2.64987 3.313792,1.08285 8.193648,6.90387 8.193648,9.77394 0,2.5312 -5.021961,6.67963 -8.086166,6.67963 -2.067069,0 -4.175264,-1.38365 -7.424639,-4.87293 -2.49584,-2.68012 -4.825172,-5.7781 -5.176309,-6.88441 -1.406663,-4.43201 -2.075213,-1.4975 -1.899989,8.33973 0.264202,14.83213 0.671409,15.91125 7.111144,18.84485 2.97778,1.35651 7.797201,3.02632 10.709833,3.71068 8.701886,2.04463 12.414275,3.53126 13.6296471,5.45803 1.6930655,2.68407 -0.063972,3.80158 -6.7452431,4.29008 -8.521578,0.62306 -15.261399,4.94127 -18.972357,12.15561 -1.449093,2.81714 -1.268658,2.87061 2.699417,0.80008 4.695311,-2.45001 9.72708,-3.0461 14.256826,-1.68897 5.315247,1.59249 5.298502,3.66102 -0.06683,8.25354 -5.312588,4.54737 -6.37678,8.35133 -6.384278,22.82081 -0.0064,11.36293 0.84443,13.71021 3.261332,9.00268 0.672924,-1.31068 2.660483,-3.90197 4.416811,-5.75843 2.952869,-3.12121 3.576511,-3.32998 8.2825625,-2.77262 3.9634146,0.46942 6.0477154,0.10316 9.42187808,-1.65554 5.40394962,-2.81669 9.15000772,-2.89088 10.58497142,-0.20964 2.401555,4.48735 1.315896,6.92741 -5.5232191,12.41368 -7.0412302,5.64841 -7.9476731,6.95836 -11.4408935,16.53401 -1.2252226,3.35861 -3.408267,7.5096 -4.8511954,9.22442 -2.623498,3.11786 -2.623498,3.11786 2.9949166,2.51121 4.0854804,-0.44113 7.32518533,-1.72979 11.8739861,-4.72309 6.9141863,-4.54982 10.5821753,-5.16937 12.2421003,-2.06778 1.753352,3.27618 1.379296,4.008 -3.934511,7.6975 l -5.0309098,3.49309 5.1881708,0.52957 c 3.138325,0.32033 5.606118,1.19711 6.246008,2.21913 2.333601,3.72717 -2.834574,13.07872 -8.8241,15.96675 -3.6692178,1.76922 -3.6692178,1.76922 0.268534,3.4422 9.041679,3.84141 17.091718,1.29842 26.547128,-8.38615 6.28527,-6.43761 8.716587,-7.09397 13.544196,-3.65642 6.105671,4.34763 6.808209,17.69877 1.239679,23.55904 -3.397537,3.57552 -7.768149,6.04359 -10.702398,6.04359 -1.626213,0 -0.827749,1.28174 3.665405,5.88391 6.315953,6.46919 11.404808,9.18419 14.725188,7.85617 3.511851,-1.40461 8.86439,-6.99503 9.634267,-10.06246 0.397548,-1.58398 1.888668,-4.96589 3.31358,-7.51534 1.916661,-3.42921 3.239949,-4.63537 5.085583,-4.63537 3.643661,0 4.165202,1.56215 4.243271,12.70967 0.05508,7.86009 0.491186,10.69917 1.993151,12.97445 2.83826,4.2996 3.797353,3.58614 3.797353,-2.82481 0,-6.61808 3.076343,-14.74988 6.215631,-16.42997 6.334817,-3.3903 11.426907,-0.0458 12.537567,8.23477 0.77867,5.80541 -1.06125,10.42446 -6.604535,16.58049 -4.235878,4.70412 -6.82954,10.03416 -6.847058,14.07086 -0.0042,1.01775 0.510981,1.08456 2.04274,0.26478 2.743435,-1.46824 9.938183,-1.39557 11.449403,0.11565 1.6658,1.66579 7.32367,-0.73553 9.47729,-4.02238 2.3882,-3.64483 6.22897,-3.25341 8.35152,0.85114 2.8428,5.49736 15.47128,17.22597 20.06597,18.63612 2.25733,0.69281 4.30895,1.05494 4.55914,0.80474 0.2502,-0.25019 -0.93463,-2.73694 -2.63294,-5.52608 -5.52032,-9.06611 -6.53788,-11.38381 -8.28612,-18.87342 -2.67305,-11.45161 -0.42707,-18.5015 5.89426,-18.5015 3.25137,0 6.20701,2.36718 6.37601,5.10656 0.0604,0.97781 0.17948,6.06735 0.26478,11.31009 0.15242,9.36678 0.22798,9.62877 4.35296,15.09273 2.30882,3.05827 4.54532,5.56048 4.97002,5.56048 0.42468,0 0.91871,-2.0256 1.09784,-4.50134 0.47101,-6.5099 3.79306,-6.2487 9.07729,0.71373 3.77111,4.96874 7.7508,7.95931 12.66923,9.52035 2.24005,0.71097 2.24005,0.71097 0.20664,-4.64052 -1.39135,-3.66174 -2.03341,-8.03407 -2.03341,-13.84727 0,-9.02609 1.26983,-13.23401 5.54597,-18.37814 2.27557,-2.73746 2.97886,-2.9853 6.56323,-2.31287 6.14589,1.15298 9.07358,4.72025 9.07358,11.05579 0,4.44149 -0.56707,5.92238 -3.70698,9.6806 -3.91799,4.68953 -4.5122,7.66534 -2.43914,12.21522 2.71813,5.96566 14.84317,8.73924 22.90226,5.23885 z M 138.90622,273.66394 C 122.0579,269.19788 116.879,267.25205 104.75843,260.8339 87.667407,251.78377 65.930232,234.29052 56.29338,221.83109 40.473116,201.37716 29.939566,178.90568 24.9698,155.00772 21.738981,139.47176 21.455503,111.97082 24.385695,98.343777 27.014002,86.12073 32.114529,70.212069 35.209948,64.582713 c 1.401675,-2.549115 2.5485,-5.108472 2.5485,-5.687482 0,-2.158716 11.802007,-20.693226 18.488373,-29.035133 15.047865,-18.773727 36.120759,-34.8552206 56.710499,-43.277849 3.78642,-1.54891 7.70056,-3.242754 8.69808,-3.764099 5.9858,-3.1284 29.3201,-7.765456 44.25887,-8.795241 10.06534,-0.693841 34.18388,1.513702 43.72438,4.002047 9.83178,2.564318 22.16297,6.911941 25.96216,9.153519 1.93333,1.140687 3.91579,2.073977 4.40548,2.073977 1.20357,0 14.23909,7.9063235 20.31325,12.3204201 2.69941,1.9616665 5.30402,3.5666657 5.78802,3.5666657 0.96983,0 1.12368,0.1438163 14.63857,13.6837172 5.19613,5.205764 9.92553,10.333374 10.50977,11.394673 0.58424,1.061311 1.96313,2.573518 3.06421,3.360458 1.10108,0.786951 2.4598,2.455095 3.01939,3.706987 1.00156,2.240651 3.17335,5.876178 8.36834,14.008396 3.0725,4.809677 9.54503,19.361624 9.54503,21.459725 0,0.791738 0.67145,2.941388 1.49212,4.777003 0.82067,1.835616 1.73453,4.529017 2.03079,5.985333 0.29626,1.456316 1.30893,5.269217 2.25036,8.473113 0.94144,3.203895 1.9917,7.970021 2.33393,10.591387 0.94786,7.26043 1.08439,42.53876 0.17625,45.54298 -0.44022,1.45632 -2.02408,7.65228 -3.51968,13.76881 -3.34498,13.67986 -3.78699,14.90465 -10.1291,28.06719 -8.03507,16.67611 -14.57538,25.76895 -30.47279,42.36556 -19.17979,20.02335 -43.40874,34.22883 -69.55156,40.7782 -14.03947,3.5172 -20.8809,4.13661 -41.30108,3.7393 -16.50731,-0.32117 -20.48515,-0.74751 -29.65589,-3.17843 z"
         id="path3673"
         sodipodi:nodetypes="sssssssssssssssssssssssssssssssssssssssssssssssssssssssssssssssssssssssssssssssssssssssssssssssssssssssssssssssssssssssssssssssssssssssssssssssssssscsssssssssssssssssssssssssssssssssssssssssssssssssscsssssssssssscssssssssssssssssssssssssssssssssssssssssssssssssssssssssssssssssssssssssssssss" />
    </g>
  </g>
</svg>
